<svg id="t-applied-statistics--regression-family-which-model-for-this-outcome" width="100%" xmlns="http://www.w3.org/2000/svg" xmlns:xlink="http://www.w3.org/1999/xlink" class="rc-tree-diagram flowchart" style="max-width: 1974.27px; background-color: transparent;" viewBox="0 0 1974.265625 1159.09375" role="graphics-document document" aria-roledescription="flowchart-v2"><style>#t-applied-statistics--regression-family-which-model-for-this-outcome .nodeLabel,#t-applied-statistics--regression-family-which-model-for-this-outcome .edgeLabel,#t-applied-statistics--regression-family-which-model-for-this-outcome text,#t-applied-statistics--regression-family-which-model-for-this-outcome span,#t-applied-statistics--regression-family-which-model-for-this-outcome p,#t-applied-statistics--regression-family-which-model-for-this-outcome div{fill:var(--text)!important;color:var(--text)!important;background:transparent!important}#t-applied-statistics--regression-family-which-model-for-this-outcome .node rect,#t-applied-statistics--regression-family-which-model-for-this-outcome .node polygon,#t-applied-statistics--regression-family-which-model-for-this-outcome .node circle,#t-applied-statistics--regression-family-which-model-for-this-outcome .node path,#t-applied-statistics--regression-family-which-model-for-this-outcome .label-container{fill:var(--surface-2)!important;stroke:var(--border)!important;stroke-width:1.5px!important}#t-applied-statistics--regression-family-which-model-for-this-outcome .cluster rect{fill:var(--surface)!important;stroke:var(--border)!important}#t-applied-statistics--regression-family-which-model-for-this-outcome .edgePath .path,#t-applied-statistics--regression-family-which-model-for-this-outcome .edgePath path,#t-applied-statistics--regression-family-which-model-for-this-outcome path.flowchart-link,#t-applied-statistics--regression-family-which-model-for-this-outcome .flowchart-link{stroke:var(--muted)!important;stroke-width:1.5px!important;fill:none!important}#t-applied-statistics--regression-family-which-model-for-this-outcome marker path,#t-applied-statistics--regression-family-which-model-for-this-outcome .arrowMarkerPath,#t-applied-statistics--regression-family-which-model-for-this-outcome #arrowhead path{fill:var(--muted)!important;stroke:none!important}#t-applied-statistics--regression-family-which-model-for-this-outcome .edgeLabel rect,#t-applied-statistics--regression-family-which-model-for-this-outcome .edgeLabel .labelBkg,#t-applied-statistics--regression-family-which-model-for-this-outcome .label-container.edgeLabel{fill:var(--bg)!important;opacity:1!important}#t-applied-statistics--regression-family-which-model-for-this-outcome .edgeLabel text,#t-applied-statistics--regression-family-which-model-for-this-outcome .edgeLabel span{fill:var(--muted)!important;color:var(--muted)!important}#t-applied-statistics--regression-family-which-model-for-this-outcome .node:hover rect,#t-applied-statistics--regression-family-which-model-for-this-outcome .node:hover polygon,#t-applied-statistics--regression-family-which-model-for-this-outcome .node:hover circle,#t-applied-statistics--regression-family-which-model-for-this-outcome .node:hover path{stroke:var(--accent)!important;stroke-width:2.5px!important;cursor:default}</style><style>#t-applied-statistics--regression-family-which-model-for-this-outcome{font-family:"trebuchet ms",verdana,arial,sans-serif;font-size:16px;fill:#333;}@keyframes edge-animation-frame{from{stroke-dashoffset:0;}}@keyframes dash{to{stroke-dashoffset:0;}}#t-applied-statistics--regression-family-which-model-for-this-outcome .edge-animation-slow{stroke-dasharray:9,5!important;stroke-dashoffset:900;animation:dash 50s linear infinite;stroke-linecap:round;}#t-applied-statistics--regression-family-which-model-for-this-outcome .edge-animation-fast{stroke-dasharray:9,5!important;stroke-dashoffset:900;animation:dash 20s linear infinite;stroke-linecap:round;}#t-applied-statistics--regression-family-which-model-for-this-outcome .error-icon{fill:#552222;}#t-applied-statistics--regression-family-which-model-for-this-outcome .error-text{fill:#552222;stroke:#552222;}#t-applied-statistics--regression-family-which-model-for-this-outcome .edge-thickness-normal{stroke-width:1px;}#t-applied-statistics--regression-family-which-model-for-this-outcome .edge-thickness-thick{stroke-width:3.5px;}#t-applied-statistics--regression-family-which-model-for-this-outcome .edge-pattern-solid{stroke-dasharray:0;}#t-applied-statistics--regression-family-which-model-for-this-outcome .edge-thickness-invisible{stroke-width:0;fill:none;}#t-applied-statistics--regression-family-which-model-for-this-outcome .edge-pattern-dashed{stroke-dasharray:3;}#t-applied-statistics--regression-family-which-model-for-this-outcome .edge-pattern-dotted{stroke-dasharray:2;}#t-applied-statistics--regression-family-which-model-for-this-outcome .marker{fill:#333333;stroke:#333333;}#t-applied-statistics--regression-family-which-model-for-this-outcome .marker.cross{stroke:#333333;}#t-applied-statistics--regression-family-which-model-for-this-outcome svg{font-family:"trebuchet ms",verdana,arial,sans-serif;font-size:16px;}#t-applied-statistics--regression-family-which-model-for-this-outcome p{margin:0;}#t-applied-statistics--regression-family-which-model-for-this-outcome .label{font-family:"trebuchet ms",verdana,arial,sans-serif;color:#333;}#t-applied-statistics--regression-family-which-model-for-this-outcome .cluster-label text{fill:#333;}#t-applied-statistics--regression-family-which-model-for-this-outcome .cluster-label span{color:#333;}#t-applied-statistics--regression-family-which-model-for-this-outcome .cluster-label span p{background-color:transparent;}#t-applied-statistics--regression-family-which-model-for-this-outcome .label text,#t-applied-statistics--regression-family-which-model-for-this-outcome span{fill:#333;color:#333;}#t-applied-statistics--regression-family-which-model-for-this-outcome .node rect,#t-applied-statistics--regression-family-which-model-for-this-outcome .node circle,#t-applied-statistics--regression-family-which-model-for-this-outcome .node ellipse,#t-applied-statistics--regression-family-which-model-for-this-outcome .node polygon,#t-applied-statistics--regression-family-which-model-for-this-outcome .node path{fill:#ECECFF;stroke:#9370DB;stroke-width:1px;}#t-applied-statistics--regression-family-which-model-for-this-outcome .rough-node .label text,#t-applied-statistics--regression-family-which-model-for-this-outcome .node .label text,#t-applied-statistics--regression-family-which-model-for-this-outcome .image-shape .label,#t-applied-statistics--regression-family-which-model-for-this-outcome .icon-shape .label{text-anchor:middle;}#t-applied-statistics--regression-family-which-model-for-this-outcome .node .katex path{fill:#000;stroke:#000;stroke-width:1px;}#t-applied-statistics--regression-family-which-model-for-this-outcome .rough-node .label,#t-applied-statistics--regression-family-which-model-for-this-outcome .node .label,#t-applied-statistics--regression-family-which-model-for-this-outcome .image-shape .label,#t-applied-statistics--regression-family-which-model-for-this-outcome .icon-shape .label{text-align:center;}#t-applied-statistics--regression-family-which-model-for-this-outcome .node.clickable{cursor:pointer;}#t-applied-statistics--regression-family-which-model-for-this-outcome .root .anchor path{fill:#333333!important;stroke-width:0;stroke:#333333;}#t-applied-statistics--regression-family-which-model-for-this-outcome .arrowheadPath{fill:#333333;}#t-applied-statistics--regression-family-which-model-for-this-outcome .edgePath .path{stroke:#333333;stroke-width:1px;}#t-applied-statistics--regression-family-which-model-for-this-outcome .flowchart-link{stroke:#333333;fill:none;}#t-applied-statistics--regression-family-which-model-for-this-outcome .edgeLabel{background-color:rgba(232,232,232, 0.8);text-align:center;}#t-applied-statistics--regression-family-which-model-for-this-outcome .edgeLabel p{background-color:rgba(232,232,232, 0.8);}#t-applied-statistics--regression-family-which-model-for-this-outcome .edgeLabel rect{opacity:0.5;background-color:rgba(232,232,232, 0.8);fill:rgba(232,232,232, 0.8);}#t-applied-statistics--regression-family-which-model-for-this-outcome .labelBkg{background-color:rgba(232, 232, 232, 0.5);}#t-applied-statistics--regression-family-which-model-for-this-outcome .cluster rect{fill:#ffffde;stroke:#aaaa33;stroke-width:1px;}#t-applied-statistics--regression-family-which-model-for-this-outcome .cluster text{fill:#333;}#t-applied-statistics--regression-family-which-model-for-this-outcome .cluster span{color:#333;}#t-applied-statistics--regression-family-which-model-for-this-outcome div.mermaidTooltip{position:absolute;text-align:center;max-width:200px;padding:2px;font-family:"trebuchet ms",verdana,arial,sans-serif;font-size:12px;background:hsl(80, 100%, 96.2745098039%);border:1px solid #aaaa33;border-radius:2px;pointer-events:none;z-index:100;}#t-applied-statistics--regression-family-which-model-for-this-outcome .flowchartTitleText{text-anchor:middle;font-size:18px;fill:#333;}#t-applied-statistics--regression-family-which-model-for-this-outcome rect.text{fill:none;stroke-width:0;}#t-applied-statistics--regression-family-which-model-for-this-outcome .icon-shape,#t-applied-statistics--regression-family-which-model-for-this-outcome .image-shape{background-color:rgba(232,232,232, 0.8);text-align:center;}#t-applied-statistics--regression-family-which-model-for-this-outcome .icon-shape p,#t-applied-statistics--regression-family-which-model-for-this-outcome .image-shape p{background-color:rgba(232,232,232, 0.8);padding:2px;}#t-applied-statistics--regression-family-which-model-for-this-outcome .icon-shape .label rect,#t-applied-statistics--regression-family-which-model-for-this-outcome .image-shape .label rect{opacity:0.5;background-color:rgba(232,232,232, 0.8);fill:rgba(232,232,232, 0.8);}#t-applied-statistics--regression-family-which-model-for-this-outcome .label-icon{display:inline-block;height:1em;overflow:visible;vertical-align:-0.125em;}#t-applied-statistics--regression-family-which-model-for-this-outcome .node .label-icon path{fill:currentColor;stroke:revert;stroke-width:revert;}#t-applied-statistics--regression-family-which-model-for-this-outcome .node .neo-node{stroke:#9370DB;}#t-applied-statistics--regression-family-which-model-for-this-outcome [data-look="neo"].node rect,#t-applied-statistics--regression-family-which-model-for-this-outcome [data-look="neo"].cluster rect,#t-applied-statistics--regression-family-which-model-for-this-outcome [data-look="neo"].node polygon{stroke:#9370DB;filter:drop-shadow(1px 2px 2px rgba(185, 185, 185, 1));}#t-applied-statistics--regression-family-which-model-for-this-outcome [data-look="neo"].node path{stroke:#9370DB;stroke-width:1px;}#t-applied-statistics--regression-family-which-model-for-this-outcome [data-look="neo"].node .outer-path{filter:drop-shadow(1px 2px 2px rgba(185, 185, 185, 1));}#t-applied-statistics--regression-family-which-model-for-this-outcome [data-look="neo"].node .neo-line path{stroke:#9370DB;filter:none;}#t-applied-statistics--regression-family-which-model-for-this-outcome [data-look="neo"].node circle{stroke:#9370DB;filter:drop-shadow(1px 2px 2px rgba(185, 185, 185, 1));}#t-applied-statistics--regression-family-which-model-for-this-outcome [data-look="neo"].node circle .state-start{fill:#000000;}#t-applied-statistics--regression-family-which-model-for-this-outcome [data-look="neo"].icon-shape .icon{fill:#9370DB;filter:drop-shadow(1px 2px 2px rgba(185, 185, 185, 1));}#t-applied-statistics--regression-family-which-model-for-this-outcome [data-look="neo"].icon-shape .icon-neo path{stroke:#9370DB;filter:drop-shadow(1px 2px 2px rgba(185, 185, 185, 1));}#t-applied-statistics--regression-family-which-model-for-this-outcome :root{--mermaid-font-family:"trebuchet ms",verdana,arial,sans-serif;}</style><g><marker id="t-applied-statistics--regression-family-which-model-for-this-outcome_flowchart-v2-pointEnd" class="marker flowchart-v2" viewBox="0 0 10 10" refX="5" refY="5" markerUnits="userSpaceOnUse" markerWidth="8" markerHeight="8" orient="auto"><path d="M 0 0 L 10 5 L 0 10 z" class="arrowMarkerPath" style="stroke-width: 1; stroke-dasharray: 1, 0;"/></marker><marker id="t-applied-statistics--regression-family-which-model-for-this-outcome_flowchart-v2-pointStart" class="marker flowchart-v2" viewBox="0 0 10 10" refX="4.5" refY="5" markerUnits="userSpaceOnUse" markerWidth="8" markerHeight="8" orient="auto"><path d="M 0 5 L 10 10 L 10 0 z" class="arrowMarkerPath" style="stroke-width: 1; stroke-dasharray: 1, 0;"/></marker><marker id="t-applied-statistics--regression-family-which-model-for-this-outcome_flowchart-v2-pointEnd-margin" class="marker flowchart-v2" viewBox="0 0 11.5 14" refX="11.5" refY="7" markerUnits="userSpaceOnUse" markerWidth="10.5" markerHeight="14" orient="auto"><path d="M 0 0 L 11.5 7 L 0 14 z" class="arrowMarkerPath" style="stroke-width: 0; stroke-dasharray: 1, 0;"/></marker><marker id="t-applied-statistics--regression-family-which-model-for-this-outcome_flowchart-v2-pointStart-margin" class="marker flowchart-v2" viewBox="0 0 11.5 14" refX="1" refY="7" markerUnits="userSpaceOnUse" markerWidth="11.5" markerHeight="14" orient="auto"><polygon points="0,7 11.5,14 11.5,0" class="arrowMarkerPath" style="stroke-width: 0; stroke-dasharray: 1, 0;"/></marker><marker id="t-applied-statistics--regression-family-which-model-for-this-outcome_flowchart-v2-circleEnd" class="marker flowchart-v2" viewBox="0 0 10 10" refX="11" refY="5" markerUnits="userSpaceOnUse" markerWidth="11" markerHeight="11" orient="auto"><circle cx="5" cy="5" r="5" class="arrowMarkerPath" style="stroke-width: 1; stroke-dasharray: 1, 0;"/></marker><marker id="t-applied-statistics--regression-family-which-model-for-this-outcome_flowchart-v2-circleStart" class="marker flowchart-v2" viewBox="0 0 10 10" refX="-1" refY="5" markerUnits="userSpaceOnUse" markerWidth="11" markerHeight="11" orient="auto"><circle cx="5" cy="5" r="5" class="arrowMarkerPath" style="stroke-width: 1; stroke-dasharray: 1, 0;"/></marker><marker id="t-applied-statistics--regression-family-which-model-for-this-outcome_flowchart-v2-circleEnd-margin" class="marker flowchart-v2" viewBox="0 0 10 10" refY="5" refX="12.25" markerUnits="userSpaceOnUse" markerWidth="14" markerHeight="14" orient="auto"><circle cx="5" cy="5" r="5" class="arrowMarkerPath" style="stroke-width: 0; stroke-dasharray: 1, 0;"/></marker><marker id="t-applied-statistics--regression-family-which-model-for-this-outcome_flowchart-v2-circleStart-margin" class="marker flowchart-v2" viewBox="0 0 10 10" refX="-2" refY="5" markerUnits="userSpaceOnUse" markerWidth="14" markerHeight="14" orient="auto"><circle cx="5" cy="5" r="5" class="arrowMarkerPath" style="stroke-width: 0; stroke-dasharray: 1, 0;"/></marker><marker id="t-applied-statistics--regression-family-which-model-for-this-outcome_flowchart-v2-crossEnd" class="marker cross flowchart-v2" viewBox="0 0 11 11" refX="12" refY="5.2" markerUnits="userSpaceOnUse" markerWidth="11" markerHeight="11" orient="auto"><path d="M 1,1 l 9,9 M 10,1 l -9,9" class="arrowMarkerPath" style="stroke-width: 2; stroke-dasharray: 1, 0;"/></marker><marker id="t-applied-statistics--regression-family-which-model-for-this-outcome_flowchart-v2-crossStart" class="marker cross flowchart-v2" viewBox="0 0 11 11" refX="-1" refY="5.2" markerUnits="userSpaceOnUse" markerWidth="11" markerHeight="11" orient="auto"><path d="M 1,1 l 9,9 M 10,1 l -9,9" class="arrowMarkerPath" style="stroke-width: 2; stroke-dasharray: 1, 0;"/></marker><marker id="t-applied-statistics--regression-family-which-model-for-this-outcome_flowchart-v2-crossEnd-margin" class="marker cross flowchart-v2" viewBox="0 0 15 15" refX="17.7" refY="7.5" markerUnits="userSpaceOnUse" markerWidth="12" markerHeight="12" orient="auto"><path d="M 1,1 L 14,14 M 1,14 L 14,1" class="arrowMarkerPath" style="stroke-width: 2.5;"/></marker><marker id="t-applied-statistics--regression-family-which-model-for-this-outcome_flowchart-v2-crossStart-margin" class="marker cross flowchart-v2" viewBox="0 0 15 15" refX="-3.5" refY="7.5" markerUnits="userSpaceOnUse" markerWidth="12" markerHeight="12" orient="auto"><path d="M 1,1 L 14,14 M 1,14 L 14,1" class="arrowMarkerPath" style="stroke-width: 2.5; stroke-dasharray: 1, 0;"/></marker><g class="root"><g class="clusters"/><g class="edgePaths"><path d="M800.789,47.5L800.706,51.583C800.622,55.667,800.456,63.833,800.372,71.417C800.289,79,800.289,86,800.289,89.5L800.289,93" id="t-applied-statistics--regression-family-which-model-for-this-outcome-L_START_CLUST_0" class="edge-thickness-normal edge-pattern-solid edge-thickness-normal edge-pattern-solid flowchart-link" style=";" data-edge="true" data-et="edge" data-id="L_START_CLUST_0" data-points="W3sieCI6ODAwLjc4OTA2MjUsInkiOjQ3LjV9LHsieCI6ODAwLjI4OTA2MjUsInkiOjcyfSx7IngiOjgwMC4yODkwNjI1LCJ5Ijo5N31d" data-look="classic" marker-end="url(#t-applied-statistics--regression-family-which-model-for-this-outcome_flowchart-v2-pointEnd)"/><path d="M738.837,313.548L725.834,329.957C712.832,346.365,686.826,379.183,673.823,411.099C660.82,443.016,660.82,474.031,660.82,489.539L660.82,505.047" id="t-applied-statistics--regression-family-which-model-for-this-outcome-L_CLUST_MIX_0" class="edge-thickness-normal edge-pattern-solid edge-thickness-normal edge-pattern-solid flowchart-link" style=";" data-edge="true" data-et="edge" data-id="L_CLUST_MIX_0" data-points="W3sieCI6NzM4LjgzNzE1NTYxNTQwMzYsInkiOjMxMy41NDgwOTMxMTU0MDM3fSx7IngiOjY2MC44MjAzMTI1LCJ5Ijo0MTJ9LHsieCI6NjYwLjgyMDMxMjUsInkiOjUwOS4wNDY4NzV9XQ==" data-look="classic" marker-end="url(#t-applied-statistics--regression-family-which-model-for-this-outcome_flowchart-v2-pointEnd)"/><path d="M861.741,313.548L874.744,329.957C887.747,346.365,913.752,379.183,926.755,401.091C939.758,423,939.758,434,939.758,439.5L939.758,445" id="t-applied-statistics--regression-family-which-model-for-this-outcome-L_CLUST_TYPE_0" class="edge-thickness-normal edge-pattern-solid edge-thickness-normal edge-pattern-solid flowchart-link" style=";" data-edge="true" data-et="edge" data-id="L_CLUST_TYPE_0" data-points="W3sieCI6ODYxLjc0MDk2OTM4NDU5NjQsInkiOjMxMy41NDgwOTMxMTU0MDM3fSx7IngiOjkzOS43NTc4MTI1LCJ5Ijo0MTJ9LHsieCI6OTM5Ljc1NzgxMjUsInkiOjQ0OX1d" data-look="classic" marker-end="url(#t-applied-statistics--regression-family-which-model-for-this-outcome_flowchart-v2-pointEnd)"/><path d="M855.832,563.168L732.868,585.322C609.903,607.476,363.975,651.785,241.011,700.106C118.047,748.427,118.047,800.76,118.047,826.927L118.047,853.094" id="t-applied-statistics--regression-family-which-model-for-this-outcome-L_TYPE_OLS_0" class="edge-thickness-normal edge-pattern-solid edge-thickness-normal edge-pattern-solid flowchart-link" style=";" data-edge="true" data-et="edge" data-id="L_TYPE_OLS_0" data-points="W3sieCI6ODU1LjgzMTgwNTk2MTQzOTMsInkiOjU2My4xNjc3NDM0NjE0MzkzfSx7IngiOjExOC4wNDY4NzUsInkiOjY5Ni4wOTM3NX0seyJ4IjoxMTguMDQ2ODc1LCJ5Ijo4NTcuMDkzNzV9XQ==" data-look="classic" marker-end="url(#t-applied-statistics--regression-family-which-model-for-this-outcome_flowchart-v2-pointEnd)"/><path d="M862.284,569.62L786.586,590.699C710.887,611.778,559.491,653.936,483.792,699.181C408.094,744.427,408.094,792.76,408.094,816.927L408.094,841.094" id="t-applied-statistics--regression-family-which-model-for-this-outcome-L_TYPE_SKEW_0" class="edge-thickness-normal edge-pattern-solid edge-thickness-normal edge-pattern-solid flowchart-link" style=";" data-edge="true" data-et="edge" data-id="L_TYPE_SKEW_0" data-points="W3sieCI6ODYyLjI4NDE5NjgyNzI2NDYsInkiOjU2OS42MjAxMzQzMjcyNjQ2fSx7IngiOjQwOC4wOTM3NSwieSI6Njk2LjA5Mzc1fSx7IngiOjQwOC4wOTM3NSwieSI6ODQ1LjA5Mzc1fV0=" data-look="classic" marker-end="url(#t-applied-statistics--regression-family-which-model-for-this-outcome_flowchart-v2-pointEnd)"/><path d="M877.096,584.432L845.046,603.042C812.996,621.653,748.897,658.873,716.847,703.65C684.797,748.427,684.797,800.76,684.797,826.927L684.797,853.094" id="t-applied-statistics--regression-family-which-model-for-this-outcome-L_TYPE_LOGIT_0" class="edge-thickness-normal edge-pattern-solid edge-thickness-normal edge-pattern-solid flowchart-link" style=";" data-edge="true" data-et="edge" data-id="L_TYPE_LOGIT_0" data-points="W3sieCI6ODc3LjA5NjI4NzUyOTA3ODMsInkiOjU4NC40MzIyMjUwMjkwNzgzfSx7IngiOjY4NC43OTY4NzUsInkiOjY5Ni4wOTM3NX0seyJ4Ijo2ODQuNzk2ODc1LCJ5Ijo4NTcuMDkzNzV9XQ==" data-look="classic" marker-end="url(#t-applied-statistics--regression-family-which-model-for-this-outcome_flowchart-v2-pointEnd)"/><path d="M939.758,647.094L939.758,655.26C939.758,663.427,939.758,679.76,939.758,714.094C939.758,748.427,939.758,800.76,939.758,826.927L939.758,853.094" id="t-applied-statistics--regression-family-which-model-for-this-outcome-L_TYPE_PROP_0" class="edge-thickness-normal edge-pattern-solid edge-thickness-normal edge-pattern-solid flowchart-link" style=";" data-edge="true" data-et="edge" data-id="L_TYPE_PROP_0" data-points="W3sieCI6OTM5Ljc1NzgxMjUsInkiOjY0Ny4wOTM3NX0seyJ4Ijo5MzkuNzU3ODEyNSwieSI6Njk2LjA5Mzc1fSx7IngiOjkzOS43NTc4MTI1LCJ5Ijo4NTcuMDkzNzV9XQ==" data-look="classic" marker-end="url(#t-applied-statistics--regression-family-which-model-for-this-outcome_flowchart-v2-pointEnd)"/><path d="M1005.196,581.655L1042.333,600.729C1079.469,619.802,1153.742,657.948,1190.879,701.187C1228.016,744.427,1228.016,792.76,1228.016,816.927L1228.016,841.094" id="t-applied-statistics--regression-family-which-model-for-this-outcome-L_TYPE_ORDL_0" class="edge-thickness-normal edge-pattern-solid edge-thickness-normal edge-pattern-solid flowchart-link" style=";" data-edge="true" data-et="edge" data-id="L_TYPE_ORDL_0" data-points="W3sieCI6MTAwNS4xOTYxMDkwNDAxMDA2LCJ5Ijo1ODEuNjU1NDUzNDU5ODk5NH0seyJ4IjoxMjI4LjAxNTYyNSwieSI6Njk2LjA5Mzc1fSx7IngiOjEyMjguMDE1NjI1LCJ5Ijo4NDUuMDkzNzV9XQ==" data-look="classic" marker-end="url(#t-applied-statistics--regression-family-which-model-for-this-outcome_flowchart-v2-pointEnd)"/><path d="M1019.391,567.461L1107.328,588.9C1195.266,610.339,1371.141,653.216,1459.078,682.155C1547.016,711.094,1547.016,726.094,1547.016,733.594L1547.016,741.094" id="t-applied-statistics--regression-family-which-model-for-this-outcome-L_TYPE_CNT_0" class="edge-thickness-normal edge-pattern-solid edge-thickness-normal edge-pattern-solid flowchart-link" style=";" data-edge="true" data-et="edge" data-id="L_TYPE_CNT_0" data-points="W3sieCI6MTAxOS4zOTA1NjE1NjUyMDU1LCJ5Ijo1NjcuNDYxMDAwOTM0Nzk0NX0seyJ4IjoxNTQ3LjAxNTYyNSwieSI6Njk2LjA5Mzc1fSx7IngiOjE1NDcuMDE1NjI1LCJ5Ijo3NDUuMDkzNzV9XQ==" data-look="classic" marker-end="url(#t-applied-statistics--regression-family-which-model-for-this-outcome_flowchart-v2-pointEnd)"/><path d="M1024.92,561.931L1162.072,584.292C1299.223,606.652,1573.526,651.373,1710.677,699.9C1847.828,748.427,1847.828,800.76,1847.828,826.927L1847.828,853.094" id="t-applied-statistics--regression-family-which-model-for-this-outcome-L_TYPE_SURV_0" class="edge-thickness-normal edge-pattern-solid edge-thickness-normal edge-pattern-solid flowchart-link" style=";" data-edge="true" data-et="edge" data-id="L_TYPE_SURV_0" data-points="W3sieCI6MTAyNC45MjAyNjIwODIyMzMsInkiOjU2MS45MzEzMDA0MTc3Njd9LHsieCI6MTg0Ny44MjgxMjUsInkiOjY5Ni4wOTM3NX0seyJ4IjoxODQ3LjgyODEyNSwieSI6ODU3LjA5Mzc1fV0=" data-look="classic" marker-end="url(#t-applied-statistics--regression-family-which-model-for-this-outcome_flowchart-v2-pointEnd)"/><path d="M1466.596,942.674L1439.729,962.244C1412.863,981.814,1359.131,1020.954,1332.265,1046.024C1305.398,1071.094,1305.398,1082.094,1305.398,1087.594L1305.398,1093.094" id="t-applied-statistics--regression-family-which-model-for-this-outcome-L_CNT_POIS_0" class="edge-thickness-normal edge-pattern-solid edge-thickness-normal edge-pattern-solid flowchart-link" style=";" data-edge="true" data-et="edge" data-id="L_CNT_POIS_0" data-points="W3sieCI6MTQ2Ni41OTU1ODk0NTYwODQ2LCJ5Ijo5NDIuNjczNzE0NDU2MDg0Nn0seyJ4IjoxMzA1LjM5ODQzNzUsInkiOjEwNjAuMDkzNzV9LHsieCI6MTMwNS4zOTg0Mzc1LCJ5IjoxMDk3LjA5Mzc1fV0=" data-look="classic" marker-end="url(#t-applied-statistics--regression-family-which-model-for-this-outcome_flowchart-v2-pointEnd)"/><path d="M1547.016,1023.094L1547.016,1029.26C1547.016,1035.427,1547.016,1047.76,1547.016,1059.427C1547.016,1071.094,1547.016,1082.094,1547.016,1087.594L1547.016,1093.094" id="t-applied-statistics--regression-family-which-model-for-this-outcome-L_CNT_NB_0" class="edge-thickness-normal edge-pattern-solid edge-thickness-normal edge-pattern-solid flowchart-link" style=";" data-edge="true" data-et="edge" data-id="L_CNT_NB_0" data-points="W3sieCI6MTU0Ny4wMTU2MjUsInkiOjEwMjMuMDkzNzV9LHsieCI6MTU0Ny4wMTU2MjUsInkiOjEwNjAuMDkzNzV9LHsieCI6MTU0Ny4wMTU2MjUsInkiOjEwOTcuMDkzNzV9XQ==" data-look="classic" marker-end="url(#t-applied-statistics--regression-family-which-model-for-this-outcome_flowchart-v2-pointEnd)"/><path d="M1633.677,936.432L1667.804,957.042C1701.931,977.653,1770.184,1018.873,1804.311,1044.983C1838.438,1071.094,1838.438,1082.094,1838.438,1087.594L1838.438,1093.094" id="t-applied-statistics--regression-family-which-model-for-this-outcome-L_CNT_ZI_0" class="edge-thickness-normal edge-pattern-solid edge-thickness-normal edge-pattern-solid flowchart-link" style=";" data-edge="true" data-et="edge" data-id="L_CNT_ZI_0" data-points="W3sieCI6MTYzMy42Nzc0NjY4ODUzNDE4LCJ5Ijo5MzYuNDMxOTA4MTE0NjU4Mn0seyJ4IjoxODM4LjQzNzUsInkiOjEwNjAuMDkzNzV9LHsieCI6MTgzOC40Mzc1LCJ5IjoxMDk3LjA5Mzc1fV0=" data-look="classic" marker-end="url(#t-applied-statistics--regression-family-which-model-for-this-outcome_flowchart-v2-pointEnd)"/></g><g class="edgeLabels"><g class="edgeLabel"><g class="label" data-id="L_START_CLUST_0" transform="translate(0, 0)"><foreignObject width="0" height="0"><div xmlns="http://www.w3.org/1999/xhtml" class="labelBkg" style="display: table-cell; white-space: nowrap; line-height: 1.5; max-width: 200px; text-align: center;"><span class="edgeLabel"></span></div></foreignObject></g></g><g class="edgeLabel" transform="translate(660.8203125, 412)"><g class="label" data-id="L_CLUST_MIX_0" transform="translate(-13.0546875, -12)"><foreignObject width="26.109375" height="24"><div xmlns="http://www.w3.org/1999/xhtml" class="labelBkg" style="display: table-cell; white-space: nowrap; line-height: 1.5; max-width: 200px; text-align: center;"><span class="edgeLabel"><p>Yes</p></span></div></foreignObject></g></g><g class="edgeLabel" transform="translate(939.7578125, 412)"><g class="label" data-id="L_CLUST_TYPE_0" transform="translate(-10.2265625, -12)"><foreignObject width="20.453125" height="24"><div xmlns="http://www.w3.org/1999/xhtml" class="labelBkg" style="display: table-cell; white-space: nowrap; line-height: 1.5; max-width: 200px; text-align: center;"><span class="edgeLabel"><p>No</p></span></div></foreignObject></g></g><g class="edgeLabel" transform="translate(118.046875, 696.09375)"><g class="label" data-id="L_TYPE_OLS_0" transform="translate(-86.03125, -12)"><foreignObject width="172.0625" height="24"><div xmlns="http://www.w3.org/1999/xhtml" class="labelBkg" style="display: table-cell; white-space: nowrap; line-height: 1.5; max-width: 200px; text-align: center;"><span class="edgeLabel"><p>Continuous, ~symmetric</p></span></div></foreignObject></g></g><g class="edgeLabel" transform="translate(408.09375, 696.09375)"><g class="label" data-id="L_TYPE_SKEW_0" transform="translate(-100, -24)"><foreignObject width="200" height="48"><div xmlns="http://www.w3.org/1999/xhtml" class="labelBkg" style="display: table; white-space: break-spaces; line-height: 1.5; max-width: 200px; text-align: center; width: 200px;"><span class="edgeLabel"><p>Continuous, skewed/positive</p></span></div></foreignObject></g></g><g class="edgeLabel" transform="translate(684.796875, 696.09375)"><g class="label" data-id="L_TYPE_LOGIT_0" transform="translate(-36.0234375, -12)"><foreignObject width="72.046875" height="24"><div xmlns="http://www.w3.org/1999/xhtml" class="labelBkg" style="display: table-cell; white-space: nowrap; line-height: 1.5; max-width: 200px; text-align: center;"><span class="edgeLabel"><p>Binary 0/1</p></span></div></foreignObject></g></g><g class="edgeLabel" transform="translate(939.7578125, 696.09375)"><g class="label" data-id="L_TYPE_PROP_0" transform="translate(-57.3671875, -12)"><foreignObject width="114.734375" height="24"><div xmlns="http://www.w3.org/1999/xhtml" class="labelBkg" style="display: table-cell; white-space: nowrap; line-height: 1.5; max-width: 200px; text-align: center;"><span class="edgeLabel"><p>Proportion / rate</p></span></div></foreignObject></g></g><g class="edgeLabel" transform="translate(1228.015625, 696.09375)"><g class="label" data-id="L_TYPE_ORDL_0" transform="translate(-64.921875, -12)"><foreignObject width="129.84375" height="24"><div xmlns="http://www.w3.org/1999/xhtml" class="labelBkg" style="display: table-cell; white-space: nowrap; line-height: 1.5; max-width: 200px; text-align: center;"><span class="edgeLabel"><p>Ordinal categories</p></span></div></foreignObject></g></g><g class="edgeLabel" transform="translate(1547.015625, 696.09375)"><g class="label" data-id="L_TYPE_CNT_0" transform="translate(-21.3515625, -12)"><foreignObject width="42.703125" height="24"><div xmlns="http://www.w3.org/1999/xhtml" class="labelBkg" style="display: table-cell; white-space: nowrap; line-height: 1.5; max-width: 200px; text-align: center;"><span class="edgeLabel"><p>Count</p></span></div></foreignObject></g></g><g class="edgeLabel" transform="translate(1847.828125, 696.09375)"><g class="label" data-id="L_TYPE_SURV_0" transform="translate(-92.859375, -12)"><foreignObject width="185.71875" height="24"><div xmlns="http://www.w3.org/1999/xhtml" class="labelBkg" style="display: table-cell; white-space: nowrap; line-height: 1.5; max-width: 200px; text-align: center;"><span class="edgeLabel"><p>Time-to-event + censoring</p></span></div></foreignObject></g></g><g class="edgeLabel" transform="translate(1305.3984375, 1060.09375)"><g class="label" data-id="L_CNT_POIS_0" transform="translate(-10.2265625, -12)"><foreignObject width="20.453125" height="24"><div xmlns="http://www.w3.org/1999/xhtml" class="labelBkg" style="display: table-cell; white-space: nowrap; line-height: 1.5; max-width: 200px; text-align: center;"><span class="edgeLabel"><p>No</p></span></div></foreignObject></g></g><g class="edgeLabel" transform="translate(1547.015625, 1060.09375)"><g class="label" data-id="L_CNT_NB_0" transform="translate(-13.0546875, -12)"><foreignObject width="26.109375" height="24"><div xmlns="http://www.w3.org/1999/xhtml" class="labelBkg" style="display: table-cell; white-space: nowrap; line-height: 1.5; max-width: 200px; text-align: center;"><span class="edgeLabel"><p>Yes</p></span></div></foreignObject></g></g><g class="edgeLabel" transform="translate(1838.4375, 1060.09375)"><g class="label" data-id="L_CNT_ZI_0" transform="translate(-47.5703125, -12)"><foreignObject width="95.140625" height="24"><div xmlns="http://www.w3.org/1999/xhtml" class="labelBkg" style="display: table-cell; white-space: nowrap; line-height: 1.5; max-width: 200px; text-align: center;"><span class="edgeLabel"><p>Excess zeros</p></span></div></foreignObject></g></g></g><g class="nodes"><g class="node default" id="t-applied-statistics--regression-family-which-model-for-this-outcome-flowchart-START-0" data-look="classic" transform="translate(800.2890625, 27.5)"><g class="basic label-container outer-path"><path d="M-77.5078125 -19.5 C-23.739293593872652 -19.5, 30.029225312254695 -19.5, 77.5078125 -19.5 C77.5078125 -19.5, 77.5078125 -19.5, 77.5078125 -19.5 C77.7618456100154 -19.491853652607258, 78.0158787200308 -19.483707305214516, 78.7571817896239 -19.45993515863156 C79.16697196144052 -19.420403193601196, 79.57676213325715 -19.380871228570832, 80.00141715284786 -19.3399052695533 C80.40048537492483 -19.27538701422818, 80.79955359700179 -19.21086875890306, 81.23540575967675 -19.140403561325776 C81.5730896825794 -19.06332940951678, 81.91077360548205 -18.986255257707782, 82.45407688623538 -18.862249829261074 C82.80368810415602 -18.758487054928963, 83.15329932207665 -18.654724280596852, 83.6524227514606 -18.50658706670804 C84.06612254877956 -18.35434171709566, 84.4798223460985 -18.202096367483282, 84.8255190951478 -18.074876768247425 C85.17844853118179 -17.918645376194927, 85.53137796721576 -17.762413984142427, 85.96854541279238 -17.568892924097174 C86.36510229630724 -17.362009451974274, 86.76165917982212 -17.155125979851377, 87.07680476407678 -16.990714730406097 C87.30772419034324 -16.850730017170193, 87.5386436166097 -16.710745303934285, 88.1457430736057 -16.342718045390892 C88.47493044244759 -16.113091187178313, 88.80411781128949 -15.883464328965731, 89.17096784457871 -15.627565626425154 C89.46870315123147 -15.390129642438838, 89.76643845788422 -15.15269365845252, 90.14826620850187 -14.848196188198123 C90.50833428166996 -14.521191891026023, 90.86840235483805 -14.194187593853922, 91.07362223676799 -14.007812326905688 C91.41223012914028 -13.658171877806316, 91.75083802151258 -13.308531428706942, 91.94323344296865 -13.10986736009568 C92.26485680110783 -12.732070262737885, 92.586480159247 -12.35427316538009, 92.75352640812658 -12.158051136245305 C92.9580378777716 -11.88402439829914, 93.16254934741663 -11.609997660352972, 93.50117146464063 -11.156274872382312 C93.76595128730521 -10.749501961431726, 94.03073110996979 -10.34272905048114, 94.18309637860425 -10.108655082055241 C94.38796505973826 -9.744889993498305, 94.59283374087228 -9.381124904941368, 94.7964989742735 -9.019496659696287 C94.9320143020995 -8.73809618190209, 95.06752962992549 -8.456695704107895, 95.33885864880834 -7.893275190886684 C95.51822498568089 -7.450236870999265, 95.69759132255345 -7.007198551111847, 95.80794672997033 -6.734618561215508 C95.93524578894356 -6.351214077938766, 96.06254484791681 -5.967809594662024, 96.20183563421489 -5.548287939305138 C96.30039830055912 -5.172425775204737, 96.39896096690336 -4.796563611104337, 96.51890678754556 -4.339158212148133 C96.5693109370331 -4.080343557450441, 96.61971508652061 -3.82152890275275, 96.75785727658177 -3.1121979531509023 C96.79615849472141 -2.8151412686908697, 96.83445971286105 -2.518084584230837, 96.91770520250937 -1.872449005199798 C96.94871100830201 -1.3895085525432864, 96.97971681409467 -0.9065680998867748, 96.99779371591342 -0.6250057626472757 C96.99779371591342 -0.2186688449718237, 96.99779371591342 0.18766807270362829, 96.99779371591342 0.625005762647271 C96.96590558724716 1.121689106258385, 96.9340174585809 1.618372449869499, 96.91770520250937 1.8724490051997846 C96.86145058583787 2.308748703373345, 96.80519596916638 2.7450484015469048, 96.75785727658177 3.1121979531508885 C96.70856438703814 3.3653065229015473, 96.65927149749452 3.6184150926522065, 96.51890678754556 4.339158212148129 C96.45150347085603 4.596196271467551, 96.3841001541665 4.853234330786972, 96.20183563421489 5.548287939305125 C96.06926972981535 5.947555321848008, 95.93670382541582 6.34682270439089, 95.80794672997033 6.734618561215495 C95.64073036227339 7.147646222335473, 95.47351399457645 7.56067388345545, 95.33885864880834 7.893275190886679 C95.19280468031012 8.196559381527544, 95.0467507118119 8.499843572168409, 94.7964989742735 9.019496659696284 C94.58245019499395 9.399561942096362, 94.3684014157144 9.779627224496439, 94.18309637860425 10.108655082055236 C94.03581640871613 10.334916666012862, 93.888536438828 10.561178249970489, 93.50117146464065 11.156274872382301 C93.23447364658313 11.513625651908324, 92.9677758285256 11.870976431434347, 92.75352640812659 12.158051136245302 C92.55018607636525 12.396906260324826, 92.3468457446039 12.635761384404352, 91.94323344296866 13.10986736009567 C91.59969920101693 13.464594669596629, 91.2561649590652 13.819321979097587, 91.07362223676799 14.007812326905684 C90.78448684837367 14.270397436542241, 90.49535145997936 14.532982546178797, 90.1482662085019 14.848196188198111 C89.85987562281689 15.078180005886116, 89.57148503713186 15.308163823574121, 89.17096784457871 15.627565626425152 C88.92819264724417 15.796915094516814, 88.68541744990965 15.966264562608476, 88.1457430736057 16.34271804539089 C87.90789432193083 16.486903356410608, 87.67004557025597 16.631088667430326, 87.07680476407678 16.990714730406093 C86.71370910620035 17.180141502546356, 86.35061344832394 17.369568274686614, 85.96854541279238 17.56889292409717 C85.61712586826361 17.72445593196965, 85.26570632373483 17.880018939842135, 84.8255190951478 18.07487676824742 C84.37466810811111 18.24079409909776, 83.92381712107444 18.406711429948096, 83.65242275146062 18.506587066708033 C83.31296254309402 18.607337074688246, 82.97350233472741 18.70808708266846, 82.45407688623541 18.86224982926107 C82.1300680148097 18.936202739808508, 81.80605914338398 19.010155650355944, 81.23540575967677 19.140403561325773 C80.85925737674773 19.201216314803464, 80.48310899381869 19.262029068281155, 80.00141715284788 19.3399052695533 C79.55020542277448 19.38343312249198, 79.09899369270109 19.42696097543066, 78.7571817896239 19.45993515863156 C78.39400658835794 19.471581480458514, 78.030831387092 19.483227802285466, 77.5078125 19.5 C77.5078125 19.5, 77.5078125 19.5, 77.5078125 19.5 C23.395795227227254 19.5, -30.716222045545493 19.5, -77.5078125 19.5 C-77.88908273176537 19.48777340576477, -78.27035296353074 19.47554681152954, -78.7571817896239 19.45993515863156 C-79.12765063325877 19.424196474840073, -79.49811947689365 19.388457791048587, -80.00141715284786 19.3399052695533 C-80.46768629652958 19.264522490374052, -80.93395544021129 19.189139711194805, -81.23540575967675 19.140403561325773 C-81.6214250278421 19.052297182378176, -82.00744429600742 18.964190803430576, -82.45407688623538 18.862249829261074 C-82.76317639398695 18.770510717856837, -83.07227590173852 18.678771606452596, -83.65242275146059 18.506587066708043 C-84.11007686975174 18.33816612066861, -84.56773098804287 18.169745174629178, -84.8255190951478 18.074876768247425 C-85.20059883114203 17.908840095467827, -85.57567856713626 17.74280342268823, -85.96854541279238 17.568892924097174 C-86.40817955215925 17.339536075188587, -86.84781369152611 17.11017922628, -87.07680476407678 16.990714730406097 C-87.46607466063404 16.754737031509258, -87.85534455719129 16.51875933261242, -88.14574307360569 16.3427180453909 C-88.52523746308448 16.077999187337845, -88.90473185256326 15.813280329284792, -89.17096784457871 15.627565626425156 C-89.41233146127365 15.43508456506653, -89.65369507796859 15.242603503707903, -90.14826620850187 14.848196188198125 C-90.33924257653858 14.67475650370498, -90.53021894457531 14.501316819211837, -91.07362223676797 14.007812326905697 C-91.30438715186875 13.769528605912265, -91.53515206696953 13.531244884918834, -91.94323344296865 13.109867360095677 C-92.20019696242575 12.808023388502889, -92.45716048188287 12.506179416910102, -92.75352640812658 12.158051136245307 C-93.0143397619919 11.8085850026511, -93.27515311585725 11.45911886905689, -93.50117146464063 11.156274872382316 C-93.72264355656849 10.81603426559736, -93.94411564849635 10.475793658812405, -94.18309637860425 10.108655082055249 C-94.39919515453826 9.72494982301051, -94.61529393047226 9.34124456396577, -94.7964989742735 9.019496659696289 C-94.97486452189167 8.649116783655828, -95.15323006950983 8.278736907615365, -95.33885864880834 7.893275190886686 C-95.51004359884142 7.470445054669125, -95.6812285488745 7.047614918451564, -95.80794672997033 6.73461856121551 C-95.9384372696586 6.341601846518445, -96.0689278093469 5.94858513182138, -96.20183563421489 5.5482879393051325 C-96.29986242127485 5.174469315167216, -96.39788920833482 4.8006506910293, -96.51890678754556 4.339158212148136 C-96.60938525628212 3.8745703978170485, -96.69986372501867 3.409982583485961, -96.75785727658177 3.112197953150904 C-96.79265208784352 2.842336268017406, -96.82744689910528 2.572474582883908, -96.91770520250937 1.872449005199809 C-96.94810020048041 1.399022377400029, -96.97849519845145 0.9255957496002492, -96.99779371591342 0.6250057626472781 C-96.99779371591342 0.27283693018672606, -96.99779371591342 -0.07933190227382603, -96.99779371591342 -0.6250057626472687 C-96.96852069635456 -1.080956671032472, -96.93924767679572 -1.5369075794176754, -96.91770520250937 -1.8724490051997822 C-96.8776795332437 -2.1828801920619125, -96.83765386397803 -2.493311378924043, -96.75785727658177 -3.112197953150895 C-96.67726728067407 -3.5260105494352825, -96.59667728476637 -3.9398231457196697, -96.51890678754556 -4.339158212148126 C-96.41072266759795 -4.751711148802524, -96.30253854765036 -5.1642640854569235, -96.20183563421489 -5.548287939305123 C-96.09625615852764 -5.866276498270113, -95.99067668284039 -6.184265057235104, -95.80794672997033 -6.734618561215485 C-95.68153787717915 -7.046850871558579, -95.555129024388 -7.359083181901673, -95.33885864880834 -7.893275190886676 C-95.14318046212603 -8.299605132374973, -94.94750227544372 -8.705935073863271, -94.7964989742735 -9.019496659696282 C-94.59987975248383 -9.368613997839018, -94.40326053069414 -9.717731335981757, -94.18309637860425 -10.108655082055243 C-94.01391566736206 -10.368562085905202, -93.84473495611988 -10.62846908975516, -93.50117146464063 -11.156274872382308 C-93.31068004625834 -11.411516018889373, -93.12018862787603 -11.666757165396437, -92.75352640812659 -12.158051136245302 C-92.54859354681648 -12.39877693615031, -92.34366068550636 -12.639502736055318, -91.94323344296866 -13.10986736009567 C-91.75088512698537 -13.308482788438848, -91.55853681100209 -13.507098216782028, -91.07362223676799 -14.007812326905677 C-90.82029178969927 -14.237880336177165, -90.56696134263055 -14.46794834544865, -90.1482662085019 -14.848196188198107 C-89.8100752461248 -15.117894481054376, -89.47188428374768 -15.387592773910646, -89.17096784457871 -15.627565626425149 C-88.83457859964221 -15.862216201637143, -88.4981893547057 -16.096866776849136, -88.14574307360571 -16.342718045390885 C-87.82134693056584 -16.539368893664992, -87.49695078752598 -16.736019741939103, -87.07680476407678 -16.99071473040609 C-86.71759341805898 -17.17811505953773, -86.3583820720412 -17.36551538866937, -85.9685454127924 -17.56889292409717 C-85.62936199885687 -17.719039359927944, -85.29017858492134 -17.869185795758714, -84.82551909514781 -18.07487676824742 C-84.46658699005337 -18.206967100854182, -84.10765488495893 -18.33905743346094, -83.65242275146062 -18.506587066708033 C-83.3169153392601 -18.6061639055348, -82.98140792705959 -18.705740744361567, -82.45407688623541 -18.862249829261067 C-82.14536925162743 -18.93271033235476, -81.83666161701944 -19.00317083544845, -81.23540575967677 -19.140403561325773 C-80.93231611486425 -19.18940474460376, -80.62922647005173 -19.23840592788175, -80.00141715284788 -19.3399052695533 C-79.66922164433393 -19.37195177073609, -79.33702613581997 -19.403998271918876, -78.7571817896239 -19.45993515863156 C-78.32045174803521 -19.47394024102185, -77.88372170644654 -19.48794532341214, -77.5078125 -19.5 C-77.5078125 -19.5, -77.5078125 -19.5, -77.5078125 -19.5" stroke="none" stroke-width="0" fill="#ECECFF" style=""/><path d="M-77.5078125 -19.5 C-43.532746995756824 -19.5, -9.557681491513648 -19.5, 77.5078125 -19.5 M-77.5078125 -19.5 C-38.858794178616144 -19.5, -0.20977585723228742 -19.5, 77.5078125 -19.5 M77.5078125 -19.5 C77.5078125 -19.5, 77.5078125 -19.5, 77.5078125 -19.5 M77.5078125 -19.5 C77.5078125 -19.5, 77.5078125 -19.5, 77.5078125 -19.5 M77.5078125 -19.5 C77.92840589075078 -19.486512388593994, 78.34899928150156 -19.473024777187987, 78.7571817896239 -19.45993515863156 M77.5078125 -19.5 C78.00586292346958 -19.48402849231567, 78.50391334693916 -19.468056984631342, 78.7571817896239 -19.45993515863156 M78.7571817896239 -19.45993515863156 C79.02062233302141 -19.434521366243608, 79.28406287641893 -19.409107573855657, 80.00141715284786 -19.3399052695533 M78.7571817896239 -19.45993515863156 C79.02667930401206 -19.433937057536713, 79.29617681840024 -19.407938956441868, 80.00141715284786 -19.3399052695533 M80.00141715284786 -19.3399052695533 C80.36025112533122 -19.28189177568121, 80.71908509781457 -19.22387828180912, 81.23540575967675 -19.140403561325776 M80.00141715284786 -19.3399052695533 C80.30143181411201 -19.29140122576856, 80.60144647537616 -19.242897181983817, 81.23540575967675 -19.140403561325776 M81.23540575967675 -19.140403561325776 C81.63589505494994 -19.04899449311656, 82.03638435022313 -18.957585424907343, 82.45407688623538 -18.862249829261074 M81.23540575967675 -19.140403561325776 C81.719726783275 -19.02986044817952, 82.20404780687325 -18.91931733503326, 82.45407688623538 -18.862249829261074 M82.45407688623538 -18.862249829261074 C82.76874652280401 -18.76885753286214, 83.08341615937262 -18.6754652364632, 83.6524227514606 -18.50658706670804 M82.45407688623538 -18.862249829261074 C82.75320973982531 -18.773468768495977, 83.05234259341522 -18.68468770773088, 83.6524227514606 -18.50658706670804 M83.6524227514606 -18.50658706670804 C84.06374297335121 -18.355217422849847, 84.4750631952418 -18.203847778991655, 84.8255190951478 -18.074876768247425 M83.6524227514606 -18.50658706670804 C83.95811789579857 -18.394088427776733, 84.26381304013653 -18.281589788845427, 84.8255190951478 -18.074876768247425 M84.8255190951478 -18.074876768247425 C85.16549674031033 -17.92437874981249, 85.50547438547287 -17.773880731377556, 85.96854541279238 -17.568892924097174 M84.8255190951478 -18.074876768247425 C85.1884850404299 -17.914202511273256, 85.55145098571198 -17.753528254299088, 85.96854541279238 -17.568892924097174 M85.96854541279238 -17.568892924097174 C86.39479549740216 -17.346518527982468, 86.82104558201192 -17.12414413186776, 87.07680476407678 -16.990714730406097 M85.96854541279238 -17.568892924097174 C86.32201203564802 -17.384489613359566, 86.67547865850365 -17.200086302621962, 87.07680476407678 -16.990714730406097 M87.07680476407678 -16.990714730406097 C87.31986676054875 -16.843369119753948, 87.56292875702073 -16.6960235091018, 88.1457430736057 -16.342718045390892 M87.07680476407678 -16.990714730406097 C87.43828138467808 -16.771585478725175, 87.79975800527939 -16.552456227044253, 88.1457430736057 -16.342718045390892 M88.1457430736057 -16.342718045390892 C88.5267380885403 -16.076952415980898, 88.90773310347488 -15.811186786570902, 89.17096784457871 -15.627565626425154 M88.1457430736057 -16.342718045390892 C88.41856691172376 -16.15240794627334, 88.69139074984182 -15.962097847155784, 89.17096784457871 -15.627565626425154 M89.17096784457871 -15.627565626425154 C89.52713350483995 -15.343532990333077, 89.8832991651012 -15.059500354241003, 90.14826620850187 -14.848196188198123 M89.17096784457871 -15.627565626425154 C89.52661484924542 -15.34394660436772, 89.88226185391213 -15.060327582310284, 90.14826620850187 -14.848196188198123 M90.14826620850187 -14.848196188198123 C90.38009090321931 -14.63765913420104, 90.61191559793677 -14.42712208020396, 91.07362223676799 -14.007812326905688 M90.14826620850187 -14.848196188198123 C90.49879625255154 -14.529854076708952, 90.8493262966012 -14.211511965219781, 91.07362223676799 -14.007812326905688 M91.07362223676799 -14.007812326905688 C91.31751909165192 -13.755968799933848, 91.56141594653583 -13.50412527296201, 91.94323344296865 -13.10986736009568 M91.07362223676799 -14.007812326905688 C91.31694123612021 -13.756565483213144, 91.56026023547244 -13.505318639520599, 91.94323344296865 -13.10986736009568 M91.94323344296865 -13.10986736009568 C92.10898624273298 -12.915164689891002, 92.27473904249732 -12.720462019686323, 92.75352640812658 -12.158051136245305 M91.94323344296865 -13.10986736009568 C92.18627116832992 -12.824381418647993, 92.42930889369119 -12.538895477200304, 92.75352640812658 -12.158051136245305 M92.75352640812658 -12.158051136245305 C93.04025122363106 -11.773866004637354, 93.32697603913554 -11.3896808730294, 93.50117146464063 -11.156274872382312 M92.75352640812658 -12.158051136245305 C92.9360459528665 -11.913491574166414, 93.1185654976064 -11.668932012087526, 93.50117146464063 -11.156274872382312 M93.50117146464063 -11.156274872382312 C93.71503403273903 -10.827724537642679, 93.9288966008374 -10.499174202903045, 94.18309637860425 -10.108655082055241 M93.50117146464063 -11.156274872382312 C93.70057533129402 -10.849936985767163, 93.89997919794742 -10.543599099152015, 94.18309637860425 -10.108655082055241 M94.18309637860425 -10.108655082055241 C94.35023753971005 -9.811879025634049, 94.51737870081587 -9.515102969212858, 94.7964989742735 -9.019496659696287 M94.18309637860425 -10.108655082055241 C94.31287244851846 -9.878224528670488, 94.44264851843268 -9.647793975285735, 94.7964989742735 -9.019496659696287 M94.7964989742735 -9.019496659696287 C94.97347760710524 -8.651996741885073, 95.15045623993697 -8.284496824073859, 95.33885864880834 -7.893275190886684 M94.7964989742735 -9.019496659696287 C94.96061152718605 -8.67871343212728, 95.12472408009859 -8.337930204558274, 95.33885864880834 -7.893275190886684 M95.33885864880834 -7.893275190886684 C95.51604017114825 -7.4556334051354325, 95.69322169348814 -7.01799161938418, 95.80794672997033 -6.734618561215508 M95.33885864880834 -7.893275190886684 C95.51104118429981 -7.467980999299887, 95.68322371979129 -7.042686807713089, 95.80794672997033 -6.734618561215508 M95.80794672997033 -6.734618561215508 C95.94006524142534 -6.336698654939129, 96.07218375288036 -5.93877874866275, 96.20183563421489 -5.548287939305138 M95.80794672997033 -6.734618561215508 C95.92851087043078 -6.3714985794357135, 96.04907501089124 -6.008378597655918, 96.20183563421489 -5.548287939305138 M96.20183563421489 -5.548287939305138 C96.30369163732033 -5.159866854793113, 96.40554764042577 -4.771445770281088, 96.51890678754556 -4.339158212148133 M96.20183563421489 -5.548287939305138 C96.28600512628032 -5.227313186771052, 96.37017461834574 -4.906338434236965, 96.51890678754556 -4.339158212148133 M96.51890678754556 -4.339158212148133 C96.57112902212725 -4.071008074744335, 96.62335125670894 -3.8028579373405362, 96.75785727658177 -3.1121979531509023 M96.51890678754556 -4.339158212148133 C96.60111171821762 -3.9170532671652993, 96.6833166488897 -3.494948322182465, 96.75785727658177 -3.1121979531509023 M96.75785727658177 -3.1121979531509023 C96.81258337413803 -2.687753147394863, 96.8673094716943 -2.263308341638823, 96.91770520250937 -1.872449005199798 M96.75785727658177 -3.1121979531509023 C96.81262288161355 -2.687446735216364, 96.86738848664534 -2.262695517281825, 96.91770520250937 -1.872449005199798 M96.91770520250937 -1.872449005199798 C96.9406751279418 -1.5146738755995346, 96.96364505337424 -1.1568987459992712, 96.99779371591342 -0.6250057626472757 M96.91770520250937 -1.872449005199798 C96.94199689609574 -1.4940862696898125, 96.96628858968212 -1.115723534179827, 96.99779371591342 -0.6250057626472757 M96.99779371591342 -0.6250057626472757 C96.99779371591342 -0.3575330196494765, 96.99779371591342 -0.09006027665167726, 96.99779371591342 0.625005762647271 M96.99779371591342 -0.6250057626472757 C96.99779371591342 -0.2642176684966053, 96.99779371591342 0.09657042565406515, 96.99779371591342 0.625005762647271 M96.99779371591342 0.625005762647271 C96.98076058225777 0.8903105682319058, 96.96372744860213 1.1556153738165404, 96.91770520250937 1.8724490051997846 M96.99779371591342 0.625005762647271 C96.97420380219735 0.9924377102106694, 96.95061388848129 1.3598696577740679, 96.91770520250937 1.8724490051997846 M96.91770520250937 1.8724490051997846 C96.87010288338737 2.241643192168834, 96.82250056426538 2.610837379137884, 96.75785727658177 3.1121979531508885 M96.91770520250937 1.8724490051997846 C96.87777362357463 2.1821504460354832, 96.83784204463988 2.491851886871182, 96.75785727658177 3.1121979531508885 M96.75785727658177 3.1121979531508885 C96.672547008428 3.5502481497889673, 96.58723674027422 3.9882983464270465, 96.51890678754556 4.339158212148129 M96.75785727658177 3.1121979531508885 C96.70019535962125 3.4082797098927573, 96.6425334426607 3.7043614666346265, 96.51890678754556 4.339158212148129 M96.51890678754556 4.339158212148129 C96.4439433661407 4.625026227317199, 96.36897994473586 4.910894242486269, 96.20183563421489 5.548287939305125 M96.51890678754556 4.339158212148129 C96.41481867857387 4.736091283728987, 96.31073056960217 5.1330243553098445, 96.20183563421489 5.548287939305125 M96.20183563421489 5.548287939305125 C96.06446186514275 5.962035844212689, 95.9270880960706 6.375783749120252, 95.80794672997033 6.734618561215495 M96.20183563421489 5.548287939305125 C96.07600649774001 5.927265250217123, 95.95017736126515 6.30624256112912, 95.80794672997033 6.734618561215495 M95.80794672997033 6.734618561215495 C95.69811965135304 7.005893568762293, 95.58829257273577 7.277168576309091, 95.33885864880834 7.893275190886679 M95.80794672997033 6.734618561215495 C95.65579277630162 7.110441768473758, 95.50363882263292 7.4862649757320225, 95.33885864880834 7.893275190886679 M95.33885864880834 7.893275190886679 C95.17784726495731 8.227618774545059, 95.01683588110629 8.561962358203438, 94.7964989742735 9.019496659696284 M95.33885864880834 7.893275190886679 C95.20394674141808 8.17342265323495, 95.06903483402782 8.453570115583219, 94.7964989742735 9.019496659696284 M94.7964989742735 9.019496659696284 C94.59434179175243 9.37844720789695, 94.39218460923134 9.737397756097616, 94.18309637860425 10.108655082055236 M94.7964989742735 9.019496659696284 C94.56370384689856 9.432847981413321, 94.3309087195236 9.846199303130359, 94.18309637860425 10.108655082055236 M94.18309637860425 10.108655082055236 C94.01062199465954 10.373622051651232, 93.83814761071483 10.638589021247228, 93.50117146464065 11.156274872382301 M94.18309637860425 10.108655082055236 C93.98108243474016 10.419002748169895, 93.77906849087607 10.729350414284552, 93.50117146464065 11.156274872382301 M93.50117146464065 11.156274872382301 C93.243457637037 11.501587923158507, 92.98574380943334 11.846900973934712, 92.75352640812659 12.158051136245302 M93.50117146464065 11.156274872382301 C93.30710288073429 11.416309094805113, 93.11303429682793 11.676343317227925, 92.75352640812659 12.158051136245302 M92.75352640812659 12.158051136245302 C92.58108252345117 12.36061353552006, 92.40863863877574 12.563175934794819, 91.94323344296866 13.10986736009567 M92.75352640812659 12.158051136245302 C92.4317840124262 12.535988061895925, 92.11004161672581 12.913924987546547, 91.94323344296866 13.10986736009567 M91.94323344296866 13.10986736009567 C91.64867505313534 13.414023081292143, 91.35411666330201 13.718178802488616, 91.07362223676799 14.007812326905684 M91.94323344296866 13.10986736009567 C91.66062844537232 13.401680222415699, 91.37802344777597 13.693493084735728, 91.07362223676799 14.007812326905684 M91.07362223676799 14.007812326905684 C90.77015851879577 14.283410046358064, 90.46669480082356 14.559007765810442, 90.1482662085019 14.848196188198111 M91.07362223676799 14.007812326905684 C90.78096265072988 14.273598019597173, 90.48830306469176 14.539383712288664, 90.1482662085019 14.848196188198111 M90.1482662085019 14.848196188198111 C89.86116442628864 15.077152219413895, 89.57406264407537 15.30610825062968, 89.17096784457871 15.627565626425152 M90.1482662085019 14.848196188198111 C89.93647253419856 15.017096007388645, 89.72467885989522 15.185995826579179, 89.17096784457871 15.627565626425152 M89.17096784457871 15.627565626425152 C88.80443147724134 15.883245529176092, 88.43789510990398 16.13892543192703, 88.1457430736057 16.34271804539089 M89.17096784457871 15.627565626425152 C88.93638524946533 15.791200289859368, 88.70180265435197 15.954834953293584, 88.1457430736057 16.34271804539089 M88.1457430736057 16.34271804539089 C87.85539207694094 16.518730525860914, 87.56504108027619 16.69474300633094, 87.07680476407678 16.990714730406093 M88.1457430736057 16.34271804539089 C87.79274451797416 16.556707844264505, 87.43974596234261 16.77069764313812, 87.07680476407678 16.990714730406093 M87.07680476407678 16.990714730406093 C86.74497076666503 17.163832314305985, 86.41313676925328 17.336949898205877, 85.96854541279238 17.56889292409717 M87.07680476407678 16.990714730406093 C86.82516197007234 17.12199661485331, 86.57351917606789 17.253278499300524, 85.96854541279238 17.56889292409717 M85.96854541279238 17.56889292409717 C85.52395163649884 17.765701400456535, 85.07935786020528 17.9625098768159, 84.8255190951478 18.07487676824742 M85.96854541279238 17.56889292409717 C85.6686164127683 17.701662595330156, 85.36868741274424 17.83443226656314, 84.8255190951478 18.07487676824742 M84.8255190951478 18.07487676824742 C84.57931324499249 18.165482797006508, 84.33310739483717 18.25608882576559, 83.65242275146062 18.506587066708033 M84.8255190951478 18.07487676824742 C84.43844594277313 18.2173232663863, 84.05137279039846 18.359769764525172, 83.65242275146062 18.506587066708033 M83.65242275146062 18.506587066708033 C83.19843112065246 18.641329399681197, 82.7444394898443 18.776071732654362, 82.45407688623541 18.86224982926107 M83.65242275146062 18.506587066708033 C83.39684360493514 18.58244161583448, 83.14126445840965 18.658296164960927, 82.45407688623541 18.86224982926107 M82.45407688623541 18.86224982926107 C82.03179486202436 18.958632945639508, 81.6095128378133 19.055016062017945, 81.23540575967677 19.140403561325773 M82.45407688623541 18.86224982926107 C82.18291284008609 18.92414125328388, 81.91174879393677 18.986032677306696, 81.23540575967677 19.140403561325773 M81.23540575967677 19.140403561325773 C80.78026114270216 19.213987813299006, 80.32511652572755 19.287572065272244, 80.00141715284788 19.3399052695533 M81.23540575967677 19.140403561325773 C80.88629393211392 19.196845254203478, 80.53718210455106 19.253286947081182, 80.00141715284788 19.3399052695533 M80.00141715284788 19.3399052695533 C79.7281449009459 19.366267515036316, 79.45487264904392 19.39262976051933, 78.7571817896239 19.45993515863156 M80.00141715284788 19.3399052695533 C79.69632716334358 19.369336933916383, 79.39123717383929 19.398768598279467, 78.7571817896239 19.45993515863156 M78.7571817896239 19.45993515863156 C78.40436758305788 19.47124922352494, 78.05155337649184 19.48256328841832, 77.5078125 19.5 M78.7571817896239 19.45993515863156 C78.39754352672371 19.471468057729357, 78.03790526382352 19.48300095682715, 77.5078125 19.5 M77.5078125 19.5 C77.5078125 19.5, 77.5078125 19.5, 77.5078125 19.5 M77.5078125 19.5 C77.5078125 19.5, 77.5078125 19.5, 77.5078125 19.5 M77.5078125 19.5 C23.03066302166102 19.5, -31.44648645667796 19.5, -77.5078125 19.5 M77.5078125 19.5 C37.2280545469867 19.5, -3.051703406026604 19.5, -77.5078125 19.5 M-77.5078125 19.5 C-77.95321010989474 19.48571696556453, -78.39860771978948 19.471433931129063, -78.7571817896239 19.45993515863156 M-77.5078125 19.5 C-77.95226675566235 19.485747217098638, -78.3967210113247 19.47149443419727, -78.7571817896239 19.45993515863156 M-78.7571817896239 19.45993515863156 C-79.08295590385978 19.428508121631918, -79.40873001809567 19.397081084632276, -80.00141715284786 19.3399052695533 M-78.7571817896239 19.45993515863156 C-79.25226006826526 19.41217555250977, -79.74733834690662 19.36441594638798, -80.00141715284786 19.3399052695533 M-80.00141715284786 19.3399052695533 C-80.49376744087695 19.260305893218263, -80.98611772890605 19.18070651688323, -81.23540575967675 19.140403561325773 M-80.00141715284786 19.3399052695533 C-80.47398588692194 19.263504021453468, -80.94655462099603 19.187102773353637, -81.23540575967675 19.140403561325773 M-81.23540575967675 19.140403561325773 C-81.71665179068708 19.030562295171507, -82.19789782169741 18.920721029017237, -82.45407688623538 18.862249829261074 M-81.23540575967675 19.140403561325773 C-81.56777751671028 19.06454187671128, -81.90014927374382 18.98868019209679, -82.45407688623538 18.862249829261074 M-82.45407688623538 18.862249829261074 C-82.92123032613881 18.723601140436184, -83.38838376604225 18.58495245161129, -83.65242275146059 18.506587066708043 M-82.45407688623538 18.862249829261074 C-82.74375237912973 18.77627566350772, -83.03342787202409 18.69030149775437, -83.65242275146059 18.506587066708043 M-83.65242275146059 18.506587066708043 C-84.03289386138805 18.366570181218353, -84.41336497131552 18.22655329572866, -84.8255190951478 18.074876768247425 M-83.65242275146059 18.506587066708043 C-83.94283948732256 18.399711023327963, -84.23325622318453 18.29283497994788, -84.8255190951478 18.074876768247425 M-84.8255190951478 18.074876768247425 C-85.15833499401319 17.927549042452583, -85.49115089287857 17.78022131665774, -85.96854541279238 17.568892924097174 M-84.8255190951478 18.074876768247425 C-85.21602441947886 17.90201164509493, -85.60652974380993 17.72914652194244, -85.96854541279238 17.568892924097174 M-85.96854541279238 17.568892924097174 C-86.24711885144153 17.423561339588723, -86.52569229009066 17.278229755080268, -87.07680476407678 16.990714730406097 M-85.96854541279238 17.568892924097174 C-86.30960962570498 17.390959942682727, -86.65067383861758 17.21302696126828, -87.07680476407678 16.990714730406097 M-87.07680476407678 16.990714730406097 C-87.34473922100759 16.828291288057, -87.6126736779384 16.6658678457079, -88.14574307360569 16.3427180453909 M-87.07680476407678 16.990714730406097 C-87.3863492795305 16.80306702605256, -87.69589379498424 16.615419321699022, -88.14574307360569 16.3427180453909 M-88.14574307360569 16.3427180453909 C-88.45081836592664 16.129910727964358, -88.75589365824759 15.917103410537816, -89.17096784457871 15.627565626425156 M-88.14574307360569 16.3427180453909 C-88.4842200979749 16.10661112562517, -88.8226971223441 15.870504205859442, -89.17096784457871 15.627565626425156 M-89.17096784457871 15.627565626425156 C-89.41238165990991 15.435044532989954, -89.65379547524111 15.242523439554754, -90.14826620850187 14.848196188198125 M-89.17096784457871 15.627565626425156 C-89.45208568284913 15.403381631264354, -89.73320352111953 15.179197636103552, -90.14826620850187 14.848196188198125 M-90.14826620850187 14.848196188198125 C-90.38102198903486 14.636813546698537, -90.61377776956787 14.42543090519895, -91.07362223676797 14.007812326905697 M-90.14826620850187 14.848196188198125 C-90.38442214519085 14.633725614840877, -90.62057808187983 14.41925504148363, -91.07362223676797 14.007812326905697 M-91.07362223676797 14.007812326905697 C-91.36268293529902 13.709333423347681, -91.65174363383007 13.410854519789664, -91.94323344296865 13.109867360095677 M-91.07362223676797 14.007812326905697 C-91.41052884253298 13.659928595906571, -91.747435448298 13.312044864907445, -91.94323344296865 13.109867360095677 M-91.94323344296865 13.109867360095677 C-92.1126132978247 12.910904144594987, -92.28199315268076 12.711940929094299, -92.75352640812658 12.158051136245307 M-91.94323344296865 13.109867360095677 C-92.13081579727225 12.889522452992338, -92.31839815157585 12.669177545889, -92.75352640812658 12.158051136245307 M-92.75352640812658 12.158051136245307 C-92.9160869975905 11.940234755938013, -93.07864758705442 11.722418375630719, -93.50117146464063 11.156274872382316 M-92.75352640812658 12.158051136245307 C-92.90402004994655 11.956403366459352, -93.05451369176653 11.754755596673398, -93.50117146464063 11.156274872382316 M-93.50117146464063 11.156274872382316 C-93.70368589294768 10.845158327764391, -93.90620032125473 10.534041783146467, -94.18309637860425 10.108655082055249 M-93.50117146464063 11.156274872382316 C-93.65062194905144 10.926678795253093, -93.80007243346225 10.697082718123868, -94.18309637860425 10.108655082055249 M-94.18309637860425 10.108655082055249 C-94.33821771943708 9.833221433667502, -94.49333906026992 9.557787785279753, -94.7964989742735 9.019496659696289 M-94.18309637860425 10.108655082055249 C-94.36649305760045 9.783015707569978, -94.54988973659665 9.457376333084708, -94.7964989742735 9.019496659696289 M-94.7964989742735 9.019496659696289 C-94.94357644089374 8.714087153305723, -95.09065390751397 8.408677646915157, -95.33885864880834 7.893275190886686 M-94.7964989742735 9.019496659696289 C-94.94501418607751 8.711101644668798, -95.09352939788151 8.402706629641306, -95.33885864880834 7.893275190886686 M-95.33885864880834 7.893275190886686 C-95.51959848237293 7.446844307615196, -95.70033831593751 7.000413424343706, -95.80794672997033 6.73461856121551 M-95.33885864880834 7.893275190886686 C-95.48019680330148 7.5441672167013, -95.62153495779462 7.195059242515915, -95.80794672997033 6.73461856121551 M-95.80794672997033 6.73461856121551 C-95.94153450968344 6.332273453041848, -96.07512228939655 5.929928344868187, -96.20183563421489 5.5482879393051325 M-95.80794672997033 6.73461856121551 C-95.96204798624741 6.270490130009814, -96.11614924252449 5.806361698804118, -96.20183563421489 5.5482879393051325 M-96.20183563421489 5.5482879393051325 C-96.31498722654779 5.11679187752946, -96.42813881888068 4.685295815753787, -96.51890678754556 4.339158212148136 M-96.20183563421489 5.5482879393051325 C-96.32272336639028 5.087290623445795, -96.44361109856568 4.626293307586456, -96.51890678754556 4.339158212148136 M-96.51890678754556 4.339158212148136 C-96.58299087780385 4.010099952849057, -96.64707496806216 3.681041693549978, -96.75785727658177 3.112197953150904 M-96.51890678754556 4.339158212148136 C-96.58729999464339 3.9879735486102006, -96.65569320174123 3.6367888850722654, -96.75785727658177 3.112197953150904 M-96.75785727658177 3.112197953150904 C-96.81990844239874 2.6309413644631627, -96.88195960821571 2.149684775775422, -96.91770520250937 1.872449005199809 M-96.75785727658177 3.112197953150904 C-96.81022374970352 2.706053928548374, -96.86259022282528 2.299909903945844, -96.91770520250937 1.872449005199809 M-96.91770520250937 1.872449005199809 C-96.93450568351398 1.6107679524488374, -96.95130616451858 1.3490868996978658, -96.99779371591342 0.6250057626472781 M-96.91770520250937 1.872449005199809 C-96.93682290136292 1.5746754140271304, -96.95594060021645 1.276901822854452, -96.99779371591342 0.6250057626472781 M-96.99779371591342 0.6250057626472781 C-96.99779371591342 0.22900334391958482, -96.99779371591342 -0.1669990748081085, -96.99779371591342 -0.6250057626472687 M-96.99779371591342 0.6250057626472781 C-96.99779371591342 0.17332576703042796, -96.99779371591342 -0.2783542285864222, -96.99779371591342 -0.6250057626472687 M-96.99779371591342 -0.6250057626472687 C-96.96761218451643 -1.095107476248953, -96.93743065311945 -1.5652091898506373, -96.91770520250937 -1.8724490051997822 M-96.99779371591342 -0.6250057626472687 C-96.96756472479404 -1.0958466997339515, -96.93733573367467 -1.5666876368206344, -96.91770520250937 -1.8724490051997822 M-96.91770520250937 -1.8724490051997822 C-96.8595372028348 -2.3235885241049563, -96.80136920316023 -2.7747280430101307, -96.75785727658177 -3.112197953150895 M-96.91770520250937 -1.8724490051997822 C-96.88018052312931 -2.1634830083854553, -96.84265584374924 -2.454517011571128, -96.75785727658177 -3.112197953150895 M-96.75785727658177 -3.112197953150895 C-96.67403619833699 -3.542601474346676, -96.59021512009222 -3.9730049955424565, -96.51890678754556 -4.339158212148126 M-96.75785727658177 -3.112197953150895 C-96.69989232419636 -3.409835732753014, -96.64192737181094 -3.707473512355133, -96.51890678754556 -4.339158212148126 M-96.51890678754556 -4.339158212148126 C-96.44405970867453 -4.6245825628125665, -96.36921262980349 -4.910006913477007, -96.20183563421489 -5.548287939305123 M-96.51890678754556 -4.339158212148126 C-96.40541289053186 -4.771959630027462, -96.29191899351818 -5.204761047906797, -96.20183563421489 -5.548287939305123 M-96.20183563421489 -5.548287939305123 C-96.12285042987438 -5.786178790195444, -96.04386522553386 -6.024069641085765, -95.80794672997033 -6.734618561215485 M-96.20183563421489 -5.548287939305123 C-96.10528413605668 -5.83908566836549, -96.00873263789849 -6.129883397425857, -95.80794672997033 -6.734618561215485 M-95.80794672997033 -6.734618561215485 C-95.70432022414279 -6.990578034091701, -95.60069371831526 -7.246537506967918, -95.33885864880834 -7.893275190886676 M-95.80794672997033 -6.734618561215485 C-95.65497956414252 -7.112450418229137, -95.5020123983147 -7.490282275242789, -95.33885864880834 -7.893275190886676 M-95.33885864880834 -7.893275190886676 C-95.17751948849082 -8.228299409391035, -95.01618032817329 -8.563323627895391, -94.7964989742735 -9.019496659696282 M-95.33885864880834 -7.893275190886676 C-95.14461515272065 -8.296625966657798, -94.95037165663294 -8.69997674242892, -94.7964989742735 -9.019496659696282 M-94.7964989742735 -9.019496659696282 C-94.63554897398788 -9.305279683158215, -94.47459897370227 -9.591062706620146, -94.18309637860425 -10.108655082055243 M-94.7964989742735 -9.019496659696282 C-94.6027799973258 -9.363464319440467, -94.40906102037808 -9.707431979184653, -94.18309637860425 -10.108655082055243 M-94.18309637860425 -10.108655082055243 C-93.9119060547747 -10.525276244255794, -93.64071573094517 -10.941897406456345, -93.50117146464063 -11.156274872382308 M-94.18309637860425 -10.108655082055243 C-93.96466038318637 -10.444231429294804, -93.74622438776849 -10.779807776534364, -93.50117146464063 -11.156274872382308 M-93.50117146464063 -11.156274872382308 C-93.28632352506169 -11.444151538368153, -93.07147558548273 -11.732028204354, -92.75352640812659 -12.158051136245302 M-93.50117146464063 -11.156274872382308 C-93.34006691582908 -11.372140290863461, -93.17896236701753 -11.588005709344612, -92.75352640812659 -12.158051136245302 M-92.75352640812659 -12.158051136245302 C-92.53747747013105 -12.411834512347694, -92.32142853213551 -12.665617888450084, -91.94323344296866 -13.10986736009567 M-92.75352640812659 -12.158051136245302 C-92.57154232456314 -12.371819995986629, -92.3895582409997 -12.585588855727954, -91.94323344296866 -13.10986736009567 M-91.94323344296866 -13.10986736009567 C-91.68063351983159 -13.381023340589346, -91.41803359669451 -13.652179321083022, -91.07362223676799 -14.007812326905677 M-91.94323344296866 -13.10986736009567 C-91.67587456916293 -13.385937347871847, -91.4085156953572 -13.662007335648026, -91.07362223676799 -14.007812326905677 M-91.07362223676799 -14.007812326905677 C-90.73017249860685 -14.319724291921515, -90.38672276044572 -14.631636256937352, -90.1482662085019 -14.848196188198107 M-91.07362223676799 -14.007812326905677 C-90.710003189345 -14.338041524942456, -90.346384141922 -14.668270722979234, -90.1482662085019 -14.848196188198107 M-90.1482662085019 -14.848196188198107 C-89.82819961300473 -15.103440780777284, -89.50813301750756 -15.35868537335646, -89.17096784457871 -15.627565626425149 M-90.1482662085019 -14.848196188198107 C-89.88996792784569 -15.054182193415507, -89.63166964718948 -15.260168198632906, -89.17096784457871 -15.627565626425149 M-89.17096784457871 -15.627565626425149 C-88.95281590734658 -15.779738974193133, -88.73466397011444 -15.931912321961118, -88.14574307360571 -16.342718045390885 M-89.17096784457871 -15.627565626425149 C-88.76835803929184 -15.908408797895701, -88.36574823400498 -16.189251969366254, -88.14574307360571 -16.342718045390885 M-88.14574307360571 -16.342718045390885 C-87.9085949819799 -16.48647861217133, -87.67144689035409 -16.63023917895177, -87.07680476407678 -16.99071473040609 M-88.14574307360571 -16.342718045390885 C-87.81177762580921 -16.545169862443935, -87.47781217801273 -16.747621679496984, -87.07680476407678 -16.99071473040609 M-87.07680476407678 -16.99071473040609 C-86.6518157087786 -17.21243124833667, -86.22682665348043 -17.43414776626725, -85.9685454127924 -17.56889292409717 M-87.07680476407678 -16.99071473040609 C-86.67903296951411 -17.198232020844447, -86.28126117495144 -17.4057493112828, -85.9685454127924 -17.56889292409717 M-85.9685454127924 -17.56889292409717 C-85.70295752764399 -17.686460802467675, -85.4373696424956 -17.80402868083818, -84.82551909514781 -18.07487676824742 M-85.9685454127924 -17.56889292409717 C-85.70260587659432 -17.686616467956007, -85.43666634039624 -17.804340011814848, -84.82551909514781 -18.07487676824742 M-84.82551909514781 -18.07487676824742 C-84.53120807356181 -18.183185944772326, -84.23689705197582 -18.29149512129723, -83.65242275146062 -18.506587066708033 M-84.82551909514781 -18.07487676824742 C-84.45040476202894 -18.21292231035405, -84.07529042891007 -18.350967852460677, -83.65242275146062 -18.506587066708033 M-83.65242275146062 -18.506587066708033 C-83.22833014928152 -18.632455524927295, -82.80423754710242 -18.758323983146557, -82.45407688623541 -18.862249829261067 M-83.65242275146062 -18.506587066708033 C-83.18660312793004 -18.644839885834806, -82.72078350439946 -18.783092704961582, -82.45407688623541 -18.862249829261067 M-82.45407688623541 -18.862249829261067 C-82.01603212102948 -18.962230688410084, -81.57798735582357 -19.062211547559105, -81.23540575967677 -19.140403561325773 M-82.45407688623541 -18.862249829261067 C-82.0762472452285 -18.94848697925207, -81.69841760422158 -19.03472412924307, -81.23540575967677 -19.140403561325773 M-81.23540575967677 -19.140403561325773 C-80.78176888695293 -19.213744052901273, -80.32813201422908 -19.287084544476777, -80.00141715284788 -19.3399052695533 M-81.23540575967677 -19.140403561325773 C-80.929722448679 -19.189824068438412, -80.62403913768122 -19.239244575551048, -80.00141715284788 -19.3399052695533 M-80.00141715284788 -19.3399052695533 C-79.70593819825184 -19.36840976893774, -79.41045924365582 -19.39691426832219, -78.7571817896239 -19.45993515863156 M-80.00141715284788 -19.3399052695533 C-79.50672233271682 -19.387627883893774, -79.01202751258576 -19.43535049823425, -78.7571817896239 -19.45993515863156 M-78.7571817896239 -19.45993515863156 C-78.46512091304474 -19.469300982481442, -78.17306003646559 -19.478666806331326, -77.5078125 -19.5 M-78.7571817896239 -19.45993515863156 C-78.28464099638542 -19.47508862212586, -77.81210020314694 -19.49024208562016, -77.5078125 -19.5 M-77.5078125 -19.5 C-77.5078125 -19.5, -77.5078125 -19.5, -77.5078125 -19.5 M-77.5078125 -19.5 C-77.5078125 -19.5, -77.5078125 -19.5, -77.5078125 -19.5" stroke="#9370DB" stroke-width="1.3" fill="none" stroke-dasharray="0 0" style=""/></g><g class="label" style="" transform="translate(-84.6328125, -12)"><rect/><foreignObject width="169.265625" height="24"><div xmlns="http://www.w3.org/1999/xhtml" style="display: table-cell; white-space: nowrap; line-height: 1.5; max-width: 200px; text-align: center;"><span class="nodeLabel"><p>Model Y from predictors</p></span></div></foreignObject></g></g><g class="node default" id="t-applied-statistics--regression-family-which-model-for-this-outcome-flowchart-CLUST-1" data-look="classic" transform="translate(800.2890625, 236)"><polygon points="139,0 278,-139 139,-278 0,-139" class="label-container" transform="translate(-138.5, 139)"/><g class="label" style="" transform="translate(-100, -24)"><rect/><foreignObject width="200" height="48"><div xmlns="http://www.w3.org/1999/xhtml" style="display: table; white-space: break-spaces; line-height: 1.5; max-width: 200px; text-align: center; width: 200px;"><span class="nodeLabel"><p>Repeated / clustered / nested observations?</p></span></div></foreignObject></g></g><g class="node default" id="t-applied-statistics--regression-family-which-model-for-this-outcome-flowchart-MIX-3" data-look="classic" transform="translate(660.8203125, 548.046875)"><rect class="basic label-container" style="" x="-129.890625" y="-39" width="259.78125" height="78"/><g class="label" style="" transform="translate(-99.890625, -24)"><rect/><foreignObject width="199.78125" height="48"><div xmlns="http://www.w3.org/1999/xhtml" style="display: table-cell; white-space: nowrap; line-height: 1.5; max-width: 200px; text-align: center;"><span class="nodeLabel"><p>Mixed-effects model or GEE<br />model the dependence</p></span></div></foreignObject></g></g><g class="node default" id="t-applied-statistics--regression-family-which-model-for-this-outcome-flowchart-TYPE-5" data-look="classic" transform="translate(939.7578125, 548.046875)"><polygon points="99.046875,0 198.09375,-99.046875 99.046875,-198.09375 0,-99.046875" class="label-container" transform="translate(-98.546875, 99.046875)"/><g class="label" style="" transform="translate(-72.046875, -12)"><rect/><foreignObject width="144.09375" height="24"><div xmlns="http://www.w3.org/1999/xhtml" style="display: table-cell; white-space: nowrap; line-height: 1.5; max-width: 200px; text-align: center;"><span class="nodeLabel"><p>Outcome data type?</p></span></div></foreignObject></g></g><g class="node default" id="t-applied-statistics--regression-family-which-model-for-this-outcome-flowchart-OLS-7" data-look="classic" transform="translate(118.046875, 884.09375)"><rect class="basic label-container" style="" x="-110.046875" y="-27" width="220.09375" height="54"/><g class="label" style="" transform="translate(-80.046875, -12)"><rect/><foreignObject width="160.09375" height="24"><div xmlns="http://www.w3.org/1999/xhtml" style="display: table-cell; white-space: nowrap; line-height: 1.5; max-width: 200px; text-align: center;"><span class="nodeLabel"><p>Linear regression OLS</p></span></div></foreignObject></g></g><g class="node default" id="t-applied-statistics--regression-family-which-model-for-this-outcome-flowchart-SKEW-9" data-look="classic" transform="translate(408.09375, 884.09375)"><rect class="basic label-container" style="" x="-130" y="-39" width="260" height="78"/><g class="label" style="" transform="translate(-100, -24)"><rect/><foreignObject width="200" height="48"><div xmlns="http://www.w3.org/1999/xhtml" style="display: table; white-space: break-spaces; line-height: 1.5; max-width: 200px; text-align: center; width: 200px;"><span class="nodeLabel"><p>OLS on log y, or Gamma GLM</p></span></div></foreignObject></g></g><g class="node default" id="t-applied-statistics--regression-family-which-model-for-this-outcome-flowchart-LOGIT-11" data-look="classic" transform="translate(684.796875, 884.09375)"><rect class="basic label-container" style="" x="-96.703125" y="-27" width="193.40625" height="54"/><g class="label" style="" transform="translate(-66.703125, -12)"><rect/><foreignObject width="133.40625" height="24"><div xmlns="http://www.w3.org/1999/xhtml" style="display: table-cell; white-space: nowrap; line-height: 1.5; max-width: 200px; text-align: center;"><span class="nodeLabel"><p>Logistic regression</p></span></div></foreignObject></g></g><g class="node default" id="t-applied-statistics--regression-family-which-model-for-this-outcome-flowchart-PROP-13" data-look="classic" transform="translate(939.7578125, 884.09375)"><rect class="basic label-container" style="" x="-108.2578125" y="-27" width="216.515625" height="54"/><g class="label" style="" transform="translate(-78.2578125, -12)"><rect/><foreignObject width="156.515625" height="24"><div xmlns="http://www.w3.org/1999/xhtml" style="display: table-cell; white-space: nowrap; line-height: 1.5; max-width: 200px; text-align: center;"><span class="nodeLabel"><p>Binomial or Beta GLM</p></span></div></foreignObject></g></g><g class="node default" id="t-applied-statistics--regression-family-which-model-for-this-outcome-flowchart-ORDL-15" data-look="classic" transform="translate(1228.015625, 884.09375)"><rect class="basic label-container" style="" x="-130" y="-39" width="260" height="78"/><g class="label" style="" transform="translate(-100, -24)"><rect/><foreignObject width="200" height="48"><div xmlns="http://www.w3.org/1999/xhtml" style="display: table; white-space: break-spaces; line-height: 1.5; max-width: 200px; text-align: center; width: 200px;"><span class="nodeLabel"><p>Ordinal / proportional-odds logistic</p></span></div></foreignObject></g></g><g class="node default" id="t-applied-statistics--regression-family-which-model-for-this-outcome-flowchart-CNT-17" data-look="classic" transform="translate(1547.015625, 884.09375)"><polygon points="139,0 278,-139 139,-278 0,-139" class="label-container" transform="translate(-138.5, 139)"/><g class="label" style="" transform="translate(-100, -24)"><rect/><foreignObject width="200" height="48"><div xmlns="http://www.w3.org/1999/xhtml" style="display: table; white-space: break-spaces; line-height: 1.5; max-width: 200px; text-align: center; width: 200px;"><span class="nodeLabel"><p>Variance &gt; mean? overdispersed?</p></span></div></foreignObject></g></g><g class="node default" id="t-applied-statistics--regression-family-which-model-for-this-outcome-flowchart-SURV-19" data-look="classic" transform="translate(1847.828125, 884.09375)"><rect class="basic label-container" style="" x="-111.8125" y="-27" width="223.625" height="54"/><g class="label" style="" transform="translate(-81.8125, -12)"><rect/><foreignObject width="163.625" height="24"><div xmlns="http://www.w3.org/1999/xhtml" style="display: table-cell; white-space: nowrap; line-height: 1.5; max-width: 200px; text-align: center;"><span class="nodeLabel"><p>Cox PH / Kaplan-Meier</p></span></div></foreignObject></g></g><g class="node default" id="t-applied-statistics--regression-family-which-model-for-this-outcome-flowchart-POIS-21" data-look="classic" transform="translate(1305.3984375, 1124.09375)"><rect class="basic label-container" style="" x="-78.0234375" y="-27" width="156.046875" height="54"/><g class="label" style="" transform="translate(-48.0234375, -12)"><rect/><foreignObject width="96.046875" height="24"><div xmlns="http://www.w3.org/1999/xhtml" style="display: table-cell; white-space: nowrap; line-height: 1.5; max-width: 200px; text-align: center;"><span class="nodeLabel"><p>Poisson GLM</p></span></div></foreignObject></g></g><g class="node default" id="t-applied-statistics--regression-family-which-model-for-this-outcome-flowchart-NB-23" data-look="classic" transform="translate(1547.015625, 1124.09375)"><rect class="basic label-container" style="" x="-113.59375" y="-27" width="227.1875" height="54"/><g class="label" style="" transform="translate(-83.59375, -12)"><rect/><foreignObject width="167.1875" height="24"><div xmlns="http://www.w3.org/1999/xhtml" style="display: table-cell; white-space: nowrap; line-height: 1.5; max-width: 200px; text-align: center;"><span class="nodeLabel"><p>Negative-binomial GLM</p></span></div></foreignObject></g></g><g class="node default" id="t-applied-statistics--regression-family-which-model-for-this-outcome-flowchart-ZI-25" data-look="classic" transform="translate(1838.4375, 1124.09375)"><rect class="basic label-container" style="" x="-127.828125" y="-27" width="255.65625" height="54"/><g class="label" style="" transform="translate(-97.828125, -12)"><rect/><foreignObject width="195.65625" height="24"><div xmlns="http://www.w3.org/1999/xhtml" style="display: table-cell; white-space: nowrap; line-height: 1.5; max-width: 200px; text-align: center;"><span class="nodeLabel"><p>Zero-inflated / hurdle model</p></span></div></foreignObject></g></g></g></g></g><defs><filter id="t-applied-statistics--regression-family-which-model-for-this-outcome-drop-shadow" height="130%" width="130%"><feDropShadow dx="4" dy="4" stdDeviation="0" flood-opacity="0.06" flood-color="#000000"/></filter></defs><defs><filter id="t-applied-statistics--regression-family-which-model-for-this-outcome-drop-shadow-small" height="150%" width="150%"><feDropShadow dx="2" dy="2" stdDeviation="0" flood-opacity="0.06" flood-color="#000000"/></filter></defs></svg>