<svg id="t-applied-statistics--regression-family-which-model-for-this-outcome" width="100%" xmlns="http://www.w3.org/2000/svg" xmlns:xlink="http://www.w3.org/1999/xlink" class="rc-tree-diagram flowchart" style="max-width: 1974.27px; background-color: transparent;" viewBox="0 0 1974.265625 1159.09375" role="graphics-document document" aria-roledescription="flowchart-v2"><style>#t-applied-statistics--regression-family-which-model-for-this-outcome .nodeLabel,#t-applied-statistics--regression-family-which-model-for-this-outcome .edgeLabel,#t-applied-statistics--regression-family-which-model-for-this-outcome text,#t-applied-statistics--regression-family-which-model-for-this-outcome span,#t-applied-statistics--regression-family-which-model-for-this-outcome p,#t-applied-statistics--regression-family-which-model-for-this-outcome div{fill:var(--text,#1f2937)!important;color:var(--text,#1f2937)!important;background:transparent!important}#t-applied-statistics--regression-family-which-model-for-this-outcome .node rect,#t-applied-statistics--regression-family-which-model-for-this-outcome .node polygon,#t-applied-statistics--regression-family-which-model-for-this-outcome .node circle,#t-applied-statistics--regression-family-which-model-for-this-outcome .node path,#t-applied-statistics--regression-family-which-model-for-this-outcome .label-container{fill:var(--surface-2,#eef2f7)!important;stroke:var(--border,#94a3b8)!important;stroke-width:1.5px!important}#t-applied-statistics--regression-family-which-model-for-this-outcome .cluster rect{fill:var(--surface,#f1f5f9)!important;stroke:var(--border,#94a3b8)!important}#t-applied-statistics--regression-family-which-model-for-this-outcome .edgePath .path,#t-applied-statistics--regression-family-which-model-for-this-outcome .edgePath path,#t-applied-statistics--regression-family-which-model-for-this-outcome path.flowchart-link,#t-applied-statistics--regression-family-which-model-for-this-outcome .flowchart-link{stroke:var(--muted,#64748b)!important;stroke-width:1.5px!important;fill:none!important}#t-applied-statistics--regression-family-which-model-for-this-outcome marker path,#t-applied-statistics--regression-family-which-model-for-this-outcome .arrowMarkerPath,#t-applied-statistics--regression-family-which-model-for-this-outcome #arrowhead path{fill:var(--muted,#64748b)!important;stroke:none!important}#t-applied-statistics--regression-family-which-model-for-this-outcome .edgeLabel rect,#t-applied-statistics--regression-family-which-model-for-this-outcome .edgeLabel .labelBkg,#t-applied-statistics--regression-family-which-model-for-this-outcome .label-container.edgeLabel{fill:var(--bg,#ffffff)!important;opacity:1!important}#t-applied-statistics--regression-family-which-model-for-this-outcome .edgeLabel text,#t-applied-statistics--regression-family-which-model-for-this-outcome .edgeLabel span{fill:var(--muted,#64748b)!important;color:var(--muted,#64748b)!important}#t-applied-statistics--regression-family-which-model-for-this-outcome .node:hover rect,#t-applied-statistics--regression-family-which-model-for-this-outcome .node:hover polygon,#t-applied-statistics--regression-family-which-model-for-this-outcome .node:hover circle,#t-applied-statistics--regression-family-which-model-for-this-outcome .node:hover path{stroke:var(--accent,#0d9488)!important;stroke-width:2.5px!important;cursor:default}</style><style>#t-applied-statistics--regression-family-which-model-for-this-outcome{font-family:"trebuchet ms",verdana,arial,sans-serif;font-size:16px;fill:#333;}@keyframes edge-animation-frame{from{stroke-dashoffset:0;}}@keyframes dash{to{stroke-dashoffset:0;}}#t-applied-statistics--regression-family-which-model-for-this-outcome .edge-animation-slow{stroke-dasharray:9,5!important;stroke-dashoffset:900;animation:dash 50s linear infinite;stroke-linecap:round;}#t-applied-statistics--regression-family-which-model-for-this-outcome .edge-animation-fast{stroke-dasharray:9,5!important;stroke-dashoffset:900;animation:dash 20s linear infinite;stroke-linecap:round;}#t-applied-statistics--regression-family-which-model-for-this-outcome .error-icon{fill:#552222;}#t-applied-statistics--regression-family-which-model-for-this-outcome .error-text{fill:#552222;stroke:#552222;}#t-applied-statistics--regression-family-which-model-for-this-outcome .edge-thickness-normal{stroke-width:1px;}#t-applied-statistics--regression-family-which-model-for-this-outcome .edge-thickness-thick{stroke-width:3.5px;}#t-applied-statistics--regression-family-which-model-for-this-outcome .edge-pattern-solid{stroke-dasharray:0;}#t-applied-statistics--regression-family-which-model-for-this-outcome .edge-thickness-invisible{stroke-width:0;fill:none;}#t-applied-statistics--regression-family-which-model-for-this-outcome .edge-pattern-dashed{stroke-dasharray:3;}#t-applied-statistics--regression-family-which-model-for-this-outcome .edge-pattern-dotted{stroke-dasharray:2;}#t-applied-statistics--regression-family-which-model-for-this-outcome .marker{fill:#333333;stroke:#333333;}#t-applied-statistics--regression-family-which-model-for-this-outcome .marker.cross{stroke:#333333;}#t-applied-statistics--regression-family-which-model-for-this-outcome svg{font-family:"trebuchet ms",verdana,arial,sans-serif;font-size:16px;}#t-applied-statistics--regression-family-which-model-for-this-outcome p{margin:0;}#t-applied-statistics--regression-family-which-model-for-this-outcome .label{font-family:"trebuchet ms",verdana,arial,sans-serif;color:#333;}#t-applied-statistics--regression-family-which-model-for-this-outcome .cluster-label text{fill:#333;}#t-applied-statistics--regression-family-which-model-for-this-outcome .cluster-label span{color:#333;}#t-applied-statistics--regression-family-which-model-for-this-outcome .cluster-label span p{background-color:transparent;}#t-applied-statistics--regression-family-which-model-for-this-outcome .label text,#t-applied-statistics--regression-family-which-model-for-this-outcome span{fill:#333;color:#333;}#t-applied-statistics--regression-family-which-model-for-this-outcome .node rect,#t-applied-statistics--regression-family-which-model-for-this-outcome .node circle,#t-applied-statistics--regression-family-which-model-for-this-outcome .node ellipse,#t-applied-statistics--regression-family-which-model-for-this-outcome .node polygon,#t-applied-statistics--regression-family-which-model-for-this-outcome .node path{fill:#ECECFF;stroke:#9370DB;stroke-width:1px;}#t-applied-statistics--regression-family-which-model-for-this-outcome .rough-node .label text,#t-applied-statistics--regression-family-which-model-for-this-outcome .node .label text,#t-applied-statistics--regression-family-which-model-for-this-outcome .image-shape .label,#t-applied-statistics--regression-family-which-model-for-this-outcome .icon-shape .label{text-anchor:middle;}#t-applied-statistics--regression-family-which-model-for-this-outcome .node .katex path{fill:#000;stroke:#000;stroke-width:1px;}#t-applied-statistics--regression-family-which-model-for-this-outcome .rough-node .label,#t-applied-statistics--regression-family-which-model-for-this-outcome .node .label,#t-applied-statistics--regression-family-which-model-for-this-outcome .image-shape .label,#t-applied-statistics--regression-family-which-model-for-this-outcome .icon-shape .label{text-align:center;}#t-applied-statistics--regression-family-which-model-for-this-outcome .node.clickable{cursor:pointer;}#t-applied-statistics--regression-family-which-model-for-this-outcome .root .anchor path{fill:#333333!important;stroke-width:0;stroke:#333333;}#t-applied-statistics--regression-family-which-model-for-this-outcome .arrowheadPath{fill:#333333;}#t-applied-statistics--regression-family-which-model-for-this-outcome .edgePath .path{stroke:#333333;stroke-width:1px;}#t-applied-statistics--regression-family-which-model-for-this-outcome .flowchart-link{stroke:#333333;fill:none;}#t-applied-statistics--regression-family-which-model-for-this-outcome .edgeLabel{background-color:rgba(232,232,232, 0.8);text-align:center;}#t-applied-statistics--regression-family-which-model-for-this-outcome .edgeLabel p{background-color:rgba(232,232,232, 0.8);}#t-applied-statistics--regression-family-which-model-for-this-outcome .edgeLabel rect{opacity:0.5;background-color:rgba(232,232,232, 0.8);fill:rgba(232,232,232, 0.8);}#t-applied-statistics--regression-family-which-model-for-this-outcome .labelBkg{background-color:rgba(232, 232, 232, 0.5);}#t-applied-statistics--regression-family-which-model-for-this-outcome .cluster rect{fill:#ffffde;stroke:#aaaa33;stroke-width:1px;}#t-applied-statistics--regression-family-which-model-for-this-outcome .cluster text{fill:#333;}#t-applied-statistics--regression-family-which-model-for-this-outcome .cluster span{color:#333;}#t-applied-statistics--regression-family-which-model-for-this-outcome div.mermaidTooltip{position:absolute;text-align:center;max-width:200px;padding:2px;font-family:"trebuchet ms",verdana,arial,sans-serif;font-size:12px;background:hsl(80, 100%, 96.2745098039%);border:1px solid #aaaa33;border-radius:2px;pointer-events:none;z-index:100;}#t-applied-statistics--regression-family-which-model-for-this-outcome .flowchartTitleText{text-anchor:middle;font-size:18px;fill:#333;}#t-applied-statistics--regression-family-which-model-for-this-outcome rect.text{fill:none;stroke-width:0;}#t-applied-statistics--regression-family-which-model-for-this-outcome .icon-shape,#t-applied-statistics--regression-family-which-model-for-this-outcome .image-shape{background-color:rgba(232,232,232, 0.8);text-align:center;}#t-applied-statistics--regression-family-which-model-for-this-outcome .icon-shape p,#t-applied-statistics--regression-family-which-model-for-this-outcome .image-shape p{background-color:rgba(232,232,232, 0.8);padding:2px;}#t-applied-statistics--regression-family-which-model-for-this-outcome .icon-shape .label rect,#t-applied-statistics--regression-family-which-model-for-this-outcome .image-shape .label rect{opacity:0.5;background-color:rgba(232,232,232, 0.8);fill:rgba(232,232,232, 0.8);}#t-applied-statistics--regression-family-which-model-for-this-outcome .label-icon{display:inline-block;height:1em;overflow:visible;vertical-align:-0.125em;}#t-applied-statistics--regression-family-which-model-for-this-outcome .node .label-icon path{fill:currentColor;stroke:revert;stroke-width:revert;}#t-applied-statistics--regression-family-which-model-for-this-outcome .node .neo-node{stroke:#9370DB;}#t-applied-statistics--regression-family-which-model-for-this-outcome [data-look="neo"].node rect,#t-applied-statistics--regression-family-which-model-for-this-outcome [data-look="neo"].cluster rect,#t-applied-statistics--regression-family-which-model-for-this-outcome [data-look="neo"].node polygon{stroke:#9370DB;filter:drop-shadow(1px 2px 2px rgba(185, 185, 185, 1));}#t-applied-statistics--regression-family-which-model-for-this-outcome [data-look="neo"].node path{stroke:#9370DB;stroke-width:1px;}#t-applied-statistics--regression-family-which-model-for-this-outcome [data-look="neo"].node .outer-path{filter:drop-shadow(1px 2px 2px rgba(185, 185, 185, 1));}#t-applied-statistics--regression-family-which-model-for-this-outcome [data-look="neo"].node .neo-line path{stroke:#9370DB;filter:none;}#t-applied-statistics--regression-family-which-model-for-this-outcome [data-look="neo"].node circle{stroke:#9370DB;filter:drop-shadow(1px 2px 2px rgba(185, 185, 185, 1));}#t-applied-statistics--regression-family-which-model-for-this-outcome [data-look="neo"].node circle .state-start{fill:#000000;}#t-applied-statistics--regression-family-which-model-for-this-outcome [data-look="neo"].icon-shape .icon{fill:#9370DB;filter:drop-shadow(1px 2px 2px rgba(185, 185, 185, 1));}#t-applied-statistics--regression-family-which-model-for-this-outcome [data-look="neo"].icon-shape .icon-neo path{stroke:#9370DB;filter:drop-shadow(1px 2px 2px rgba(185, 185, 185, 1));}#t-applied-statistics--regression-family-which-model-for-this-outcome :root{--mermaid-font-family:"trebuchet ms",verdana,arial,sans-serif;}</style><g><marker id="t-applied-statistics--regression-family-which-model-for-this-outcome_flowchart-v2-pointEnd" class="marker flowchart-v2" viewBox="0 0 10 10" refX="5" refY="5" markerUnits="userSpaceOnUse" markerWidth="8" markerHeight="8" orient="auto"><path d="M 0 0 L 10 5 L 0 10 z" class="arrowMarkerPath" style="stroke-width: 1; stroke-dasharray: 1, 0;"/></marker><marker id="t-applied-statistics--regression-family-which-model-for-this-outcome_flowchart-v2-pointStart" class="marker flowchart-v2" viewBox="0 0 10 10" refX="4.5" refY="5" markerUnits="userSpaceOnUse" markerWidth="8" markerHeight="8" orient="auto"><path d="M 0 5 L 10 10 L 10 0 z" class="arrowMarkerPath" style="stroke-width: 1; stroke-dasharray: 1, 0;"/></marker><marker id="t-applied-statistics--regression-family-which-model-for-this-outcome_flowchart-v2-pointEnd-margin" class="marker flowchart-v2" viewBox="0 0 11.5 14" refX="11.5" refY="7" markerUnits="userSpaceOnUse" markerWidth="10.5" markerHeight="14" orient="auto"><path d="M 0 0 L 11.5 7 L 0 14 z" class="arrowMarkerPath" style="stroke-width: 0; stroke-dasharray: 1, 0;"/></marker><marker id="t-applied-statistics--regression-family-which-model-for-this-outcome_flowchart-v2-pointStart-margin" class="marker flowchart-v2" viewBox="0 0 11.5 14" refX="1" refY="7" markerUnits="userSpaceOnUse" markerWidth="11.5" markerHeight="14" orient="auto"><polygon points="0,7 11.5,14 11.5,0" class="arrowMarkerPath" style="stroke-width: 0; stroke-dasharray: 1, 0;"/></marker><marker id="t-applied-statistics--regression-family-which-model-for-this-outcome_flowchart-v2-circleEnd" class="marker flowchart-v2" viewBox="0 0 10 10" refX="11" refY="5" markerUnits="userSpaceOnUse" markerWidth="11" markerHeight="11" orient="auto"><circle cx="5" cy="5" r="5" class="arrowMarkerPath" style="stroke-width: 1; stroke-dasharray: 1, 0;"/></marker><marker id="t-applied-statistics--regression-family-which-model-for-this-outcome_flowchart-v2-circleStart" class="marker flowchart-v2" viewBox="0 0 10 10" refX="-1" refY="5" markerUnits="userSpaceOnUse" markerWidth="11" markerHeight="11" orient="auto"><circle cx="5" cy="5" r="5" class="arrowMarkerPath" style="stroke-width: 1; stroke-dasharray: 1, 0;"/></marker><marker id="t-applied-statistics--regression-family-which-model-for-this-outcome_flowchart-v2-circleEnd-margin" class="marker flowchart-v2" viewBox="0 0 10 10" refY="5" refX="12.25" markerUnits="userSpaceOnUse" markerWidth="14" markerHeight="14" orient="auto"><circle cx="5" cy="5" r="5" class="arrowMarkerPath" style="stroke-width: 0; stroke-dasharray: 1, 0;"/></marker><marker id="t-applied-statistics--regression-family-which-model-for-this-outcome_flowchart-v2-circleStart-margin" class="marker flowchart-v2" viewBox="0 0 10 10" refX="-2" refY="5" markerUnits="userSpaceOnUse" markerWidth="14" markerHeight="14" orient="auto"><circle cx="5" cy="5" r="5" class="arrowMarkerPath" style="stroke-width: 0; stroke-dasharray: 1, 0;"/></marker><marker id="t-applied-statistics--regression-family-which-model-for-this-outcome_flowchart-v2-crossEnd" class="marker cross flowchart-v2" viewBox="0 0 11 11" refX="12" refY="5.2" markerUnits="userSpaceOnUse" markerWidth="11" markerHeight="11" orient="auto"><path d="M 1,1 l 9,9 M 10,1 l -9,9" class="arrowMarkerPath" style="stroke-width: 2; stroke-dasharray: 1, 0;"/></marker><marker id="t-applied-statistics--regression-family-which-model-for-this-outcome_flowchart-v2-crossStart" class="marker cross flowchart-v2" viewBox="0 0 11 11" refX="-1" refY="5.2" markerUnits="userSpaceOnUse" markerWidth="11" markerHeight="11" orient="auto"><path d="M 1,1 l 9,9 M 10,1 l -9,9" class="arrowMarkerPath" style="stroke-width: 2; stroke-dasharray: 1, 0;"/></marker><marker id="t-applied-statistics--regression-family-which-model-for-this-outcome_flowchart-v2-crossEnd-margin" class="marker cross flowchart-v2" viewBox="0 0 15 15" refX="17.7" refY="7.5" markerUnits="userSpaceOnUse" markerWidth="12" markerHeight="12" orient="auto"><path d="M 1,1 L 14,14 M 1,14 L 14,1" class="arrowMarkerPath" style="stroke-width: 2.5;"/></marker><marker id="t-applied-statistics--regression-family-which-model-for-this-outcome_flowchart-v2-crossStart-margin" class="marker cross flowchart-v2" viewBox="0 0 15 15" refX="-3.5" refY="7.5" markerUnits="userSpaceOnUse" markerWidth="12" markerHeight="12" orient="auto"><path d="M 1,1 L 14,14 M 1,14 L 14,1" class="arrowMarkerPath" style="stroke-width: 2.5; stroke-dasharray: 1, 0;"/></marker><g class="root"><g class="clusters"/><g class="edgePaths"><path d="M800.789,47.5L800.706,51.583C800.622,55.667,800.456,63.833,800.372,71.417C800.289,79,800.289,86,800.289,89.5L800.289,93" id="t-applied-statistics--regression-family-which-model-for-this-outcome-L_START_CLUST_0" class="edge-thickness-normal edge-pattern-solid edge-thickness-normal edge-pattern-solid flowchart-link" style=";" data-edge="true" data-et="edge" data-id="L_START_CLUST_0" data-points="W3sieCI6ODAwLjc4OTA2MjUsInkiOjQ3LjV9LHsieCI6ODAwLjI4OTA2MjUsInkiOjcyfSx7IngiOjgwMC4yODkwNjI1LCJ5Ijo5N31d" data-look="classic" marker-end="url(#t-applied-statistics--regression-family-which-model-for-this-outcome_flowchart-v2-pointEnd)"/><path d="M738.837,313.548L725.834,329.957C712.832,346.365,686.826,379.183,673.823,411.099C660.82,443.016,660.82,474.031,660.82,489.539L660.82,505.047" id="t-applied-statistics--regression-family-which-model-for-this-outcome-L_CLUST_MIX_0" class="edge-thickness-normal edge-pattern-solid edge-thickness-normal edge-pattern-solid flowchart-link" style=";" data-edge="true" data-et="edge" data-id="L_CLUST_MIX_0" data-points="W3sieCI6NzM4LjgzNzE1NTYxNTQwMzYsInkiOjMxMy41NDgwOTMxMTU0MDM3fSx7IngiOjY2MC44MjAzMTI1LCJ5Ijo0MTJ9LHsieCI6NjYwLjgyMDMxMjUsInkiOjUwOS4wNDY4NzV9XQ==" data-look="classic" marker-end="url(#t-applied-statistics--regression-family-which-model-for-this-outcome_flowchart-v2-pointEnd)"/><path d="M861.741,313.548L874.744,329.957C887.747,346.365,913.752,379.183,926.755,401.091C939.758,423,939.758,434,939.758,439.5L939.758,445" id="t-applied-statistics--regression-family-which-model-for-this-outcome-L_CLUST_TYPE_0" class="edge-thickness-normal edge-pattern-solid edge-thickness-normal edge-pattern-solid flowchart-link" style=";" data-edge="true" data-et="edge" data-id="L_CLUST_TYPE_0" data-points="W3sieCI6ODYxLjc0MDk2OTM4NDU5NjQsInkiOjMxMy41NDgwOTMxMTU0MDM3fSx7IngiOjkzOS43NTc4MTI1LCJ5Ijo0MTJ9LHsieCI6OTM5Ljc1NzgxMjUsInkiOjQ0OX1d" data-look="classic" marker-end="url(#t-applied-statistics--regression-family-which-model-for-this-outcome_flowchart-v2-pointEnd)"/><path d="M855.832,563.168L732.868,585.322C609.903,607.476,363.975,651.785,241.011,700.106C118.047,748.427,118.047,800.76,118.047,826.927L118.047,853.094" id="t-applied-statistics--regression-family-which-model-for-this-outcome-L_TYPE_OLS_0" class="edge-thickness-normal edge-pattern-solid edge-thickness-normal edge-pattern-solid flowchart-link" style=";" data-edge="true" data-et="edge" data-id="L_TYPE_OLS_0" data-points="W3sieCI6ODU1LjgzMTgwNTk2MTQzOTMsInkiOjU2My4xNjc3NDM0NjE0MzkzfSx7IngiOjExOC4wNDY4NzUsInkiOjY5Ni4wOTM3NX0seyJ4IjoxMTguMDQ2ODc1LCJ5Ijo4NTcuMDkzNzV9XQ==" data-look="classic" marker-end="url(#t-applied-statistics--regression-family-which-model-for-this-outcome_flowchart-v2-pointEnd)"/><path d="M862.284,569.62L786.586,590.699C710.887,611.778,559.491,653.936,483.792,699.181C408.094,744.427,408.094,792.76,408.094,816.927L408.094,841.094" id="t-applied-statistics--regression-family-which-model-for-this-outcome-L_TYPE_SKEW_0" class="edge-thickness-normal edge-pattern-solid edge-thickness-normal edge-pattern-solid flowchart-link" style=";" data-edge="true" data-et="edge" data-id="L_TYPE_SKEW_0" data-points="W3sieCI6ODYyLjI4NDE5NjgyNzI2NDYsInkiOjU2OS42MjAxMzQzMjcyNjQ2fSx7IngiOjQwOC4wOTM3NSwieSI6Njk2LjA5Mzc1fSx7IngiOjQwOC4wOTM3NSwieSI6ODQ1LjA5Mzc1fV0=" data-look="classic" marker-end="url(#t-applied-statistics--regression-family-which-model-for-this-outcome_flowchart-v2-pointEnd)"/><path d="M877.096,584.432L845.046,603.042C812.996,621.653,748.897,658.873,716.847,703.65C684.797,748.427,684.797,800.76,684.797,826.927L684.797,853.094" id="t-applied-statistics--regression-family-which-model-for-this-outcome-L_TYPE_LOGIT_0" class="edge-thickness-normal edge-pattern-solid edge-thickness-normal edge-pattern-solid flowchart-link" style=";" data-edge="true" data-et="edge" data-id="L_TYPE_LOGIT_0" data-points="W3sieCI6ODc3LjA5NjI4NzUyOTA3ODMsInkiOjU4NC40MzIyMjUwMjkwNzgzfSx7IngiOjY4NC43OTY4NzUsInkiOjY5Ni4wOTM3NX0seyJ4Ijo2ODQuNzk2ODc1LCJ5Ijo4NTcuMDkzNzV9XQ==" data-look="classic" marker-end="url(#t-applied-statistics--regression-family-which-model-for-this-outcome_flowchart-v2-pointEnd)"/><path d="M939.758,647.094L939.758,655.26C939.758,663.427,939.758,679.76,939.758,714.094C939.758,748.427,939.758,800.76,939.758,826.927L939.758,853.094" id="t-applied-statistics--regression-family-which-model-for-this-outcome-L_TYPE_PROP_0" class="edge-thickness-normal edge-pattern-solid edge-thickness-normal edge-pattern-solid flowchart-link" style=";" data-edge="true" data-et="edge" data-id="L_TYPE_PROP_0" data-points="W3sieCI6OTM5Ljc1NzgxMjUsInkiOjY0Ny4wOTM3NX0seyJ4Ijo5MzkuNzU3ODEyNSwieSI6Njk2LjA5Mzc1fSx7IngiOjkzOS43NTc4MTI1LCJ5Ijo4NTcuMDkzNzV9XQ==" data-look="classic" marker-end="url(#t-applied-statistics--regression-family-which-model-for-this-outcome_flowchart-v2-pointEnd)"/><path d="M1005.196,581.655L1042.333,600.729C1079.469,619.802,1153.742,657.948,1190.879,701.187C1228.016,744.427,1228.016,792.76,1228.016,816.927L1228.016,841.094" id="t-applied-statistics--regression-family-which-model-for-this-outcome-L_TYPE_ORDL_0" class="edge-thickness-normal edge-pattern-solid edge-thickness-normal edge-pattern-solid flowchart-link" style=";" data-edge="true" data-et="edge" data-id="L_TYPE_ORDL_0" data-points="W3sieCI6MTAwNS4xOTYxMDkwNDAxMDA2LCJ5Ijo1ODEuNjU1NDUzNDU5ODk5NH0seyJ4IjoxMjI4LjAxNTYyNSwieSI6Njk2LjA5Mzc1fSx7IngiOjEyMjguMDE1NjI1LCJ5Ijo4NDUuMDkzNzV9XQ==" data-look="classic" marker-end="url(#t-applied-statistics--regression-family-which-model-for-this-outcome_flowchart-v2-pointEnd)"/><path d="M1019.391,567.461L1107.328,588.9C1195.266,610.339,1371.141,653.216,1459.078,682.155C1547.016,711.094,1547.016,726.094,1547.016,733.594L1547.016,741.094" id="t-applied-statistics--regression-family-which-model-for-this-outcome-L_TYPE_CNT_0" class="edge-thickness-normal edge-pattern-solid edge-thickness-normal edge-pattern-solid flowchart-link" style=";" data-edge="true" data-et="edge" data-id="L_TYPE_CNT_0" data-points="W3sieCI6MTAxOS4zOTA1NjE1NjUyMDU1LCJ5Ijo1NjcuNDYxMDAwOTM0Nzk0NX0seyJ4IjoxNTQ3LjAxNTYyNSwieSI6Njk2LjA5Mzc1fSx7IngiOjE1NDcuMDE1NjI1LCJ5Ijo3NDUuMDkzNzV9XQ==" data-look="classic" marker-end="url(#t-applied-statistics--regression-family-which-model-for-this-outcome_flowchart-v2-pointEnd)"/><path d="M1024.92,561.931L1162.072,584.292C1299.223,606.652,1573.526,651.373,1710.677,699.9C1847.828,748.427,1847.828,800.76,1847.828,826.927L1847.828,853.094" id="t-applied-statistics--regression-family-which-model-for-this-outcome-L_TYPE_SURV_0" class="edge-thickness-normal edge-pattern-solid edge-thickness-normal edge-pattern-solid flowchart-link" style=";" data-edge="true" data-et="edge" data-id="L_TYPE_SURV_0" data-points="W3sieCI6MTAyNC45MjAyNjIwODIyMzMsInkiOjU2MS45MzEzMDA0MTc3Njd9LHsieCI6MTg0Ny44MjgxMjUsInkiOjY5Ni4wOTM3NX0seyJ4IjoxODQ3LjgyODEyNSwieSI6ODU3LjA5Mzc1fV0=" data-look="classic" marker-end="url(#t-applied-statistics--regression-family-which-model-for-this-outcome_flowchart-v2-pointEnd)"/><path d="M1466.596,942.674L1439.729,962.244C1412.863,981.814,1359.131,1020.954,1332.265,1046.024C1305.398,1071.094,1305.398,1082.094,1305.398,1087.594L1305.398,1093.094" id="t-applied-statistics--regression-family-which-model-for-this-outcome-L_CNT_POIS_0" class="edge-thickness-normal edge-pattern-solid edge-thickness-normal edge-pattern-solid flowchart-link" style=";" data-edge="true" data-et="edge" data-id="L_CNT_POIS_0" data-points="W3sieCI6MTQ2Ni41OTU1ODk0NTYwODQ2LCJ5Ijo5NDIuNjczNzE0NDU2MDg0Nn0seyJ4IjoxMzA1LjM5ODQzNzUsInkiOjEwNjAuMDkzNzV9LHsieCI6MTMwNS4zOTg0Mzc1LCJ5IjoxMDk3LjA5Mzc1fV0=" data-look="classic" marker-end="url(#t-applied-statistics--regression-family-which-model-for-this-outcome_flowchart-v2-pointEnd)"/><path d="M1547.016,1023.094L1547.016,1029.26C1547.016,1035.427,1547.016,1047.76,1547.016,1059.427C1547.016,1071.094,1547.016,1082.094,1547.016,1087.594L1547.016,1093.094" id="t-applied-statistics--regression-family-which-model-for-this-outcome-L_CNT_NB_0" class="edge-thickness-normal edge-pattern-solid edge-thickness-normal edge-pattern-solid flowchart-link" style=";" data-edge="true" data-et="edge" data-id="L_CNT_NB_0" data-points="W3sieCI6MTU0Ny4wMTU2MjUsInkiOjEwMjMuMDkzNzV9LHsieCI6MTU0Ny4wMTU2MjUsInkiOjEwNjAuMDkzNzV9LHsieCI6MTU0Ny4wMTU2MjUsInkiOjEwOTcuMDkzNzV9XQ==" data-look="classic" marker-end="url(#t-applied-statistics--regression-family-which-model-for-this-outcome_flowchart-v2-pointEnd)"/><path d="M1633.677,936.432L1667.804,957.042C1701.931,977.653,1770.184,1018.873,1804.311,1044.983C1838.438,1071.094,1838.438,1082.094,1838.438,1087.594L1838.438,1093.094" id="t-applied-statistics--regression-family-which-model-for-this-outcome-L_CNT_ZI_0" class="edge-thickness-normal edge-pattern-solid edge-thickness-normal edge-pattern-solid flowchart-link" style=";" data-edge="true" data-et="edge" data-id="L_CNT_ZI_0" data-points="W3sieCI6MTYzMy42Nzc0NjY4ODUzNDE4LCJ5Ijo5MzYuNDMxOTA4MTE0NjU4Mn0seyJ4IjoxODM4LjQzNzUsInkiOjEwNjAuMDkzNzV9LHsieCI6MTgzOC40Mzc1LCJ5IjoxMDk3LjA5Mzc1fV0=" data-look="classic" marker-end="url(#t-applied-statistics--regression-family-which-model-for-this-outcome_flowchart-v2-pointEnd)"/></g><g class="edgeLabels"><g class="edgeLabel"><g class="label" data-id="L_START_CLUST_0" transform="translate(0, 0)"><foreignObject width="0" height="0"><div xmlns="http://www.w3.org/1999/xhtml" class="labelBkg" style="display: table-cell; white-space: nowrap; line-height: 1.5; max-width: 200px; text-align: center;"><span class="edgeLabel"></span></div></foreignObject></g></g><g class="edgeLabel" transform="translate(660.8203125, 412)"><g class="label" data-id="L_CLUST_MIX_0" transform="translate(-13.0546875, -12)"><foreignObject width="26.109375" height="24"><div xmlns="http://www.w3.org/1999/xhtml" class="labelBkg" style="display: table-cell; white-space: nowrap; line-height: 1.5; max-width: 200px; text-align: center;"><span class="edgeLabel"><p>Yes</p></span></div></foreignObject></g></g><g class="edgeLabel" transform="translate(939.7578125, 412)"><g class="label" data-id="L_CLUST_TYPE_0" transform="translate(-10.2265625, -12)"><foreignObject width="20.453125" height="24"><div xmlns="http://www.w3.org/1999/xhtml" class="labelBkg" style="display: table-cell; white-space: nowrap; line-height: 1.5; max-width: 200px; text-align: center;"><span class="edgeLabel"><p>No</p></span></div></foreignObject></g></g><g class="edgeLabel" transform="translate(118.046875, 696.09375)"><g class="label" data-id="L_TYPE_OLS_0" transform="translate(-86.03125, -12)"><foreignObject width="172.0625" height="24"><div xmlns="http://www.w3.org/1999/xhtml" class="labelBkg" style="display: table-cell; white-space: nowrap; line-height: 1.5; max-width: 200px; text-align: center;"><span class="edgeLabel"><p>Continuous, ~symmetric</p></span></div></foreignObject></g></g><g class="edgeLabel" transform="translate(408.09375, 696.09375)"><g class="label" data-id="L_TYPE_SKEW_0" transform="translate(-100, -24)"><foreignObject width="200" height="48"><div xmlns="http://www.w3.org/1999/xhtml" class="labelBkg" style="display: table; white-space: break-spaces; line-height: 1.5; max-width: 200px; text-align: center; width: 200px;"><span class="edgeLabel"><p>Continuous, skewed/positive</p></span></div></foreignObject></g></g><g class="edgeLabel" transform="translate(684.796875, 696.09375)"><g class="label" data-id="L_TYPE_LOGIT_0" transform="translate(-36.0234375, -12)"><foreignObject width="72.046875" height="24"><div xmlns="http://www.w3.org/1999/xhtml" class="labelBkg" style="display: table-cell; white-space: nowrap; line-height: 1.5; max-width: 200px; text-align: center;"><span class="edgeLabel"><p>Binary 0/1</p></span></div></foreignObject></g></g><g class="edgeLabel" transform="translate(939.7578125, 696.09375)"><g class="label" data-id="L_TYPE_PROP_0" transform="translate(-57.3671875, -12)"><foreignObject width="114.734375" height="24"><div xmlns="http://www.w3.org/1999/xhtml" class="labelBkg" style="display: table-cell; white-space: nowrap; line-height: 1.5; max-width: 200px; text-align: center;"><span class="edgeLabel"><p>Proportion / rate</p></span></div></foreignObject></g></g><g class="edgeLabel" transform="translate(1228.015625, 696.09375)"><g class="label" data-id="L_TYPE_ORDL_0" transform="translate(-64.921875, -12)"><foreignObject width="129.84375" height="24"><div xmlns="http://www.w3.org/1999/xhtml" class="labelBkg" style="display: table-cell; white-space: nowrap; line-height: 1.5; max-width: 200px; text-align: center;"><span class="edgeLabel"><p>Ordinal categories</p></span></div></foreignObject></g></g><g class="edgeLabel" transform="translate(1547.015625, 696.09375)"><g class="label" data-id="L_TYPE_CNT_0" transform="translate(-21.3515625, -12)"><foreignObject width="42.703125" height="24"><div xmlns="http://www.w3.org/1999/xhtml" class="labelBkg" style="display: table-cell; white-space: nowrap; line-height: 1.5; max-width: 200px; text-align: center;"><span class="edgeLabel"><p>Count</p></span></div></foreignObject></g></g><g class="edgeLabel" transform="translate(1847.828125, 696.09375)"><g class="label" data-id="L_TYPE_SURV_0" transform="translate(-92.859375, -12)"><foreignObject width="185.71875" height="24"><div xmlns="http://www.w3.org/1999/xhtml" class="labelBkg" style="display: table-cell; white-space: nowrap; line-height: 1.5; max-width: 200px; text-align: center;"><span class="edgeLabel"><p>Time-to-event + censoring</p></span></div></foreignObject></g></g><g class="edgeLabel" transform="translate(1305.3984375, 1060.09375)"><g class="label" data-id="L_CNT_POIS_0" transform="translate(-10.2265625, -12)"><foreignObject width="20.453125" height="24"><div xmlns="http://www.w3.org/1999/xhtml" class="labelBkg" style="display: table-cell; white-space: nowrap; line-height: 1.5; max-width: 200px; text-align: center;"><span class="edgeLabel"><p>No</p></span></div></foreignObject></g></g><g class="edgeLabel" transform="translate(1547.015625, 1060.09375)"><g class="label" data-id="L_CNT_NB_0" transform="translate(-13.0546875, -12)"><foreignObject width="26.109375" height="24"><div xmlns="http://www.w3.org/1999/xhtml" class="labelBkg" style="display: table-cell; white-space: nowrap; line-height: 1.5; max-width: 200px; text-align: center;"><span class="edgeLabel"><p>Yes</p></span></div></foreignObject></g></g><g class="edgeLabel" transform="translate(1838.4375, 1060.09375)"><g class="label" data-id="L_CNT_ZI_0" transform="translate(-47.5703125, -12)"><foreignObject width="95.140625" height="24"><div xmlns="http://www.w3.org/1999/xhtml" class="labelBkg" style="display: table-cell; white-space: nowrap; line-height: 1.5; max-width: 200px; text-align: center;"><span class="edgeLabel"><p>Excess zeros</p></span></div></foreignObject></g></g></g><g class="nodes"><g class="node default" id="t-applied-statistics--regression-family-which-model-for-this-outcome-flowchart-START-0" data-look="classic" transform="translate(800.2890625, 27.5)"><g class="basic label-container outer-path"><path d="M-77.5078125 -19.5 C-35.330342118582664 -19.5, 6.847128262834673 -19.5, 77.5078125 -19.5 C77.5078125 -19.5, 77.5078125 -19.5, 77.5078125 -19.5 C77.96231366855211 -19.48542503215739, 78.41681483710423 -19.47085006431478, 78.7571817896239 -19.45993515863156 C79.06379801617558 -19.430356260016083, 79.37041424272725 -19.400777361400607, 80.00141715284786 -19.3399052695533 C80.34653848106092 -19.284108729663686, 80.69165980927397 -19.228312189774073, 81.23540575967675 -19.140403561325776 C81.69025501640097 -19.036587186647264, 82.14510427312517 -18.932770811968755, 82.45407688623538 -18.862249829261074 C82.93182383535509 -18.720457042507256, 83.4095707844748 -18.57866425575344, 83.6524227514606 -18.50658706670804 C84.02087957426217 -18.370991549939532, 84.38933639706372 -18.235396033171025, 84.8255190951478 -18.074876768247425 C85.12392494302014 -17.942781351289305, 85.4223307908925 -17.810685934331183, 85.96854541279238 -17.568892924097174 C86.22613155156341 -17.43451040049212, 86.48371769033446 -17.300127876887068, 87.07680476407678 -16.990714730406097 C87.4431094498577 -16.768658677240428, 87.80941413563863 -16.546602624074758, 88.1457430736057 -16.342718045390892 C88.45542179991355 -16.126699571694534, 88.7651005262214 -15.910681097998173, 89.17096784457871 -15.627565626425154 C89.44928118678149 -15.405618142247512, 89.72759452898428 -15.18367065806987, 90.14826620850187 -14.848196188198123 C90.50706660703305 -14.522343159590434, 90.86586700556423 -14.196490130982744, 91.07362223676799 -14.007812326905688 C91.2544854816691 -13.821056177396738, 91.43534872657018 -13.63430002788779, 91.94323344296865 -13.10986736009568 C92.24045145426723 -12.760738171840414, 92.53766946556583 -12.411608983585147, 92.75352640812658 -12.158051136245305 C93.02643181563785 -11.792382752374284, 93.29933722314912 -11.426714368503262, 93.50117146464063 -11.156274872382312 C93.67244377729676 -10.893154607086922, 93.84371608995288 -10.630034341791532, 94.18309637860425 -10.108655082055241 C94.37306843032958 -9.77134046746072, 94.5630404820549 -9.434025852866199, 94.7964989742735 -9.019496659696287 C95.00865858620236 -8.578942686037522, 95.22081819813123 -8.138388712378754, 95.33885864880834 -7.893275190886684 C95.43930218715866 -7.645177709217674, 95.539745725509 -7.397080227548665, 95.80794672997033 -6.734618561215508 C95.91143891361864 -6.422916593306983, 96.01493109726695 -6.111214625398459, 96.20183563421489 -5.548287939305138 C96.27606309970741 -5.265226442995098, 96.35029056519993 -4.9821649466850575, 96.51890678754556 -4.339158212148133 C96.57543968223531 -4.04887374614776, 96.63197257692507 -3.7585892801473864, 96.75785727658177 -3.1121979531509023 C96.80092892598327 -2.778142745852051, 96.84400057538478 -2.4440875385532004, 96.91770520250937 -1.872449005199798 C96.94188149788474 -1.4958836899741448, 96.96605779326009 -1.1193183747484916, 96.99779371591342 -0.6250057626472757 C96.99779371591342 -0.2326492796639245, 96.99779371591342 0.15970720331942667, 96.99779371591342 0.625005762647271 C96.97717011623212 0.9462349747534988, 96.95654651655083 1.2674641868597267, 96.91770520250937 1.8724490051997846 C96.85454875465105 2.3622779431376246, 96.79139230679273 2.8521068810754646, 96.75785727658177 3.1121979531508885 C96.70526571496218 3.3822445068370017, 96.6526741533426 3.6522910605231145, 96.51890678754556 4.339158212148129 C96.41343106063385 4.741382872331661, 96.30795533372216 5.143607532515193, 96.20183563421489 5.548287939305125 C96.11794309984316 5.800958886372635, 96.03405056547142 6.053629833440145, 95.80794672997033 6.734618561215495 C95.64985449220408 7.125109445003592, 95.49176225443784 7.515600328791689, 95.33885864880834 7.893275190886679 C95.17796785760812 8.227368361325375, 95.01707706640792 8.561461531764072, 94.7964989742735 9.019496659696284 C94.60534090616052 9.358917166484263, 94.41418283804754 9.69833767327224, 94.18309637860425 10.108655082055236 C94.00914208372299 10.375895592261498, 93.83518778884174 10.643136102467762, 93.50117146464065 11.156274872382301 C93.24789029215823 11.495648569119247, 92.99460911967581 11.835022265856193, 92.75352640812659 12.158051136245302 C92.43418909596991 12.533162913912347, 92.11485178381324 12.908274691579392, 91.94323344296866 13.10986736009567 C91.69117641131903 13.370136939541073, 91.43911937966939 13.630406518986476, 91.07362223676799 14.007812326905684 C90.78624580806574 14.268799995889424, 90.4988693793635 14.529787664873162, 90.1482662085019 14.848196188198111 C89.87927577625746 15.06270889977702, 89.61028534401302 15.277221611355928, 89.17096784457871 15.627565626425152 C88.83151642339494 15.864352243227762, 88.49206500221118 16.10113886003037, 88.1457430736057 16.34271804539089 C87.9086368747136 16.48645321654997, 87.67153067582149 16.630188387709055, 87.07680476407678 16.990714730406093 C86.74558546580187 17.163511626160034, 86.41436616752694 17.336308521913974, 85.96854541279238 17.56889292409717 C85.73844571612644 17.6707512341462, 85.50834601946049 17.772609544195227, 84.8255190951478 18.07487676824742 C84.49350063800199 18.197062629622053, 84.16148218085618 18.31924849099668, 83.65242275146062 18.506587066708033 C83.312755641205 18.607398482082857, 82.97308853094938 18.708209897457678, 82.45407688623541 18.86224982926107 C82.03064071279456 18.958896372669678, 81.60720453935373 19.055542916078284, 81.23540575967677 19.140403561325773 C80.79278476975493 19.211963090399294, 80.3501637798331 19.283522619472812, 80.00141715284788 19.3399052695533 C79.5324997415853 19.385141168262102, 79.06358233032272 19.43037706697091, 78.7571817896239 19.45993515863156 C78.33576487550876 19.473449178828968, 77.9143479613936 19.48696319902638, 77.5078125 19.5 C77.5078125 19.5, 77.5078125 19.5, 77.5078125 19.5 C20.237919529989902 19.5, -37.031973440020195 19.5, -77.5078125 19.5 C-77.95095235986875 19.48578936721342, -78.39409221973752 19.471578734426842, -78.7571817896239 19.45993515863156 C-79.01104880058796 19.435444913403607, -79.26491581155202 19.410954668175652, -80.00141715284786 19.3399052695533 C-80.4621948443332 19.265410305778317, -80.92297253581853 19.190915342003333, -81.23540575967675 19.140403561325773 C-81.60214586903093 19.056697524568552, -81.96888597838512 18.972991487811328, -82.45407688623538 18.862249829261074 C-82.82009335876802 18.75361806147306, -83.18610983130064 18.644986293685047, -83.65242275146059 18.506587066708043 C-84.06712548919455 18.35397262575186, -84.4818282269285 18.201358184795684, -84.8255190951478 18.074876768247425 C-85.12562443125387 17.94202903826176, -85.42572976735994 17.8091813082761, -85.96854541279238 17.568892924097174 C-86.35748241247127 17.36598474049073, -86.74641941215017 17.163076556884292, -87.07680476407678 16.990714730406097 C-87.5001221077582 16.734097268977578, -87.92343945143962 16.47747980754906, -88.14574307360569 16.3427180453909 C-88.52639338856437 16.077192863762278, -88.90704370352306 15.811667682133654, -89.17096784457871 15.627565626425156 C-89.46421772228214 15.393706652663647, -89.75746759998557 15.159847678902137, -90.14826620850187 14.848196188198125 C-90.42163485764821 14.599930013981517, -90.69500350679456 14.351663839764909, -91.07362223676797 14.007812326905697 C-91.28681759092719 13.787670620072207, -91.50001294508641 13.567528913238716, -91.94323344296865 13.109867360095677 C-92.25994080368145 12.73784487304308, -92.57664816439424 12.365822385990485, -92.75352640812658 12.158051136245307 C-93.0179347242964 11.803768080670892, -93.28234304046622 11.449485025096475, -93.50117146464063 11.156274872382316 C-93.64031466263127 10.94251355508843, -93.77945786062189 10.728752237794543, -94.18309637860425 10.108655082055249 C-94.42575282625934 9.677793987613862, -94.66840927391442 9.246932893172474, -94.7964989742735 9.019496659696289 C-94.9629076057229 8.673945575917296, -95.12931623717229 8.328394492138301, -95.33885864880834 7.893275190886686 C-95.47508761144806 7.556787019358771, -95.61131657408778 7.220298847830856, -95.80794672997033 6.73461856121551 C-95.88963811734237 6.488577118205919, -95.97132950471442 6.242535675196329, -96.20183563421489 5.5482879393051325 C-96.30053663881668 5.171898231472496, -96.39923764341847 4.7955085236398585, -96.51890678754556 4.339158212148136 C-96.61420831240954 3.8498050239559483, -96.70950983727354 3.3604518357637607, -96.75785727658177 3.112197953150904 C-96.79692736773568 2.809178041423357, -96.8359974588896 2.5061581296958098, -96.91770520250937 1.872449005199809 C-96.94331455476323 1.4735626723488333, -96.96892390701709 1.0746763394978573, -96.99779371591342 0.6250057626472781 C-96.99779371591342 0.22524683937241113, -96.99779371591342 -0.17451208390245587, -96.99779371591342 -0.6250057626472687 C-96.97106999042654 -1.0412493581083488, -96.94434626493965 -1.4574929535694288, -96.91770520250937 -1.8724490051997822 C-96.87823091623389 -2.178603774472884, -96.83875662995841 -2.4847585437459863, -96.75785727658177 -3.112197953150895 C-96.70216644304999 -3.3981586130747408, -96.64647560951822 -3.6841192729985863, -96.51890678754556 -4.339158212148126 C-96.42987648611552 -4.678669337477619, -96.34084618468546 -5.018180462807114, -96.20183563421489 -5.548287939305123 C-96.10033946975763 -5.853978215432653, -95.99884330530038 -6.159668491560184, -95.80794672997033 -6.734618561215485 C-95.67836896954648 -7.054678134677937, -95.54879120912265 -7.3747377081403895, -95.33885864880834 -7.893275190886676 C-95.1592127892178 -8.266313662132058, -94.97956692962727 -8.63935213337744, -94.7964989742735 -9.019496659696282 C-94.60749139927823 -9.355098748192727, -94.41848382428296 -9.690700836689174, -94.18309637860425 -10.108655082055243 C-93.91636925444863 -10.518419571019725, -93.64964213029302 -10.928184059984206, -93.50117146464063 -11.156274872382308 C-93.24393883039764 -11.500943167892856, -92.98670619615464 -11.845611463403406, -92.75352640812659 -12.158051136245302 C-92.46854953787177 -12.492801183689902, -92.18357266761694 -12.827551231134501, -91.94323344296866 -13.10986736009567 C-91.7121134313852 -13.348517747361434, -91.48099341980173 -13.5871681346272, -91.07362223676799 -14.007812326905677 C-90.72396879272976 -14.325358333458032, -90.37431534869152 -14.642904340010386, -90.1482662085019 -14.848196188198107 C-89.85966090668248 -15.078351236289462, -89.57105560486306 -15.308506284380815, -89.17096784457871 -15.627565626425149 C-88.84535428485832 -15.854699550102282, -88.51974072513792 -16.081833473779415, -88.14574307360571 -16.342718045390885 C-87.81076221004965 -16.545785413444634, -87.47578134649358 -16.748852781498385, -87.07680476407678 -16.99071473040609 C-86.71093900835393 -17.181586660818503, -86.34507325263108 -17.372458591230913, -85.9685454127924 -17.56889292409717 C-85.71208938583952 -17.68241839973146, -85.45563335888666 -17.79594387536575, -84.82551909514781 -18.07487676824742 C-84.47748574147751 -18.202956259583146, -84.1294523878072 -18.33103575091887, -83.65242275146062 -18.506587066708033 C-83.24932231022275 -18.62622516175004, -82.84622186898488 -18.745863256792042, -82.45407688623541 -18.862249829261067 C-82.0589898546325 -18.95242586604061, -81.66390282302957 -19.04260190282015, -81.23540575967677 -19.140403561325773 C-80.74672714116693 -19.219409330607157, -80.25804852265708 -19.298415099888544, -80.00141715284788 -19.3399052695533 C-79.72737198946703 -19.36634207687712, -79.45332682608618 -19.39277888420094, -78.7571817896239 -19.45993515863156 C-78.33005828811781 -19.473632177979397, -77.90293478661172 -19.487329197327238, -77.5078125 -19.5 C-77.5078125 -19.5, -77.5078125 -19.5, -77.5078125 -19.5" stroke="none" stroke-width="0" fill="#ECECFF" style=""/><path d="M-77.5078125 -19.5 C-43.84515552481589 -19.5, -10.182498549631774 -19.5, 77.5078125 -19.5 M-77.5078125 -19.5 C-29.40495863664775 -19.5, 18.697895226704503 -19.5, 77.5078125 -19.5 M77.5078125 -19.5 C77.5078125 -19.5, 77.5078125 -19.5, 77.5078125 -19.5 M77.5078125 -19.5 C77.5078125 -19.5, 77.5078125 -19.5, 77.5078125 -19.5 M77.5078125 -19.5 C77.8756950675859 -19.488202722097498, 78.24357763517177 -19.476405444195, 78.7571817896239 -19.45993515863156 M77.5078125 -19.5 C77.87937324265775 -19.488084770182077, 78.2509339853155 -19.476169540364154, 78.7571817896239 -19.45993515863156 M78.7571817896239 -19.45993515863156 C79.07448146330037 -19.429325640720677, 79.39178113697685 -19.398716122809798, 80.00141715284786 -19.3399052695533 M78.7571817896239 -19.45993515863156 C79.15510143494713 -19.421548329015618, 79.55302108027036 -19.383161499399677, 80.00141715284786 -19.3399052695533 M80.00141715284786 -19.3399052695533 C80.41160552791862 -19.273589194130217, 80.82179390298937 -19.207273118707135, 81.23540575967675 -19.140403561325776 M80.00141715284786 -19.3399052695533 C80.46338493685992 -19.2652179008479, 80.92535272087198 -19.190530532142503, 81.23540575967675 -19.140403561325776 M81.23540575967675 -19.140403561325776 C81.66680391620807 -19.041939747233563, 82.09820207273938 -18.94347593314135, 82.45407688623538 -18.862249829261074 M81.23540575967675 -19.140403561325776 C81.63894796650365 -19.048297685976536, 82.04249017333056 -18.956191810627292, 82.45407688623538 -18.862249829261074 M82.45407688623538 -18.862249829261074 C82.83792926873895 -18.74832445701629, 83.22178165124251 -18.634399084771506, 83.6524227514606 -18.50658706670804 M82.45407688623538 -18.862249829261074 C82.75758697008054 -18.772169629532772, 83.06109705392569 -18.682089429804474, 83.6524227514606 -18.50658706670804 M83.6524227514606 -18.50658706670804 C83.96342005751701 -18.392137183251698, 84.27441736357342 -18.277687299795357, 84.8255190951478 -18.074876768247425 M83.6524227514606 -18.50658706670804 C83.90024111835196 -18.41538761688415, 84.14805948524331 -18.32418816706026, 84.8255190951478 -18.074876768247425 M84.8255190951478 -18.074876768247425 C85.27069004664155 -17.877812793548227, 85.71586099813528 -17.68074881884903, 85.96854541279238 -17.568892924097174 M84.8255190951478 -18.074876768247425 C85.23673151466042 -17.89284522831221, 85.64794393417303 -17.710813688376998, 85.96854541279238 -17.568892924097174 M85.96854541279238 -17.568892924097174 C86.30495130890684 -17.39339018357252, 86.6413572050213 -17.217887443047868, 87.07680476407678 -16.990714730406097 M85.96854541279238 -17.568892924097174 C86.22841268378791 -17.433320335271734, 86.48827995478345 -17.297747746446298, 87.07680476407678 -16.990714730406097 M87.07680476407678 -16.990714730406097 C87.35176091503149 -16.824034695875657, 87.6267170659862 -16.657354661345217, 88.1457430736057 -16.342718045390892 M87.07680476407678 -16.990714730406097 C87.31074728267217 -16.848897400834737, 87.54468980126755 -16.707080071263373, 88.1457430736057 -16.342718045390892 M88.1457430736057 -16.342718045390892 C88.5385257505309 -16.06872985325592, 88.93130842745607 -15.794741661120948, 89.17096784457871 -15.627565626425154 M88.1457430736057 -16.342718045390892 C88.49263244935923 -16.10074303346428, 88.83952182511277 -15.858768021537669, 89.17096784457871 -15.627565626425154 M89.17096784457871 -15.627565626425154 C89.4778545937583 -15.382831610553804, 89.78474134293789 -15.138097594682453, 90.14826620850187 -14.848196188198123 M89.17096784457871 -15.627565626425154 C89.45470048380005 -15.401296397088762, 89.7384331230214 -15.17502716775237, 90.14826620850187 -14.848196188198123 M90.14826620850187 -14.848196188198123 C90.43894875430368 -14.584205991139628, 90.72963130010548 -14.320215794081133, 91.07362223676799 -14.007812326905688 M90.14826620850187 -14.848196188198123 C90.42444821990843 -14.597374992814283, 90.70063023131497 -14.346553797430442, 91.07362223676799 -14.007812326905688 M91.07362223676799 -14.007812326905688 C91.33352499190319 -13.739441393815557, 91.59342774703839 -13.471070460725425, 91.94323344296865 -13.10986736009568 M91.07362223676799 -14.007812326905688 C91.36908537957072 -13.702722373986699, 91.66454852237347 -13.397632421067708, 91.94323344296865 -13.10986736009568 M91.94323344296865 -13.10986736009568 C92.11510969777851 -12.90797173116007, 92.28698595258835 -12.706076102224458, 92.75352640812658 -12.158051136245305 M91.94323344296865 -13.10986736009568 C92.13527971310053 -12.884278883456439, 92.3273259832324 -12.658690406817197, 92.75352640812658 -12.158051136245305 M92.75352640812658 -12.158051136245305 C92.98113759586776 -11.853072880477898, 93.20874878360894 -11.54809462471049, 93.50117146464063 -11.156274872382312 M92.75352640812658 -12.158051136245305 C93.01923866083058 -11.802020924506136, 93.2849509135346 -11.445990712766969, 93.50117146464063 -11.156274872382312 M93.50117146464063 -11.156274872382312 C93.74521597340863 -10.781356971788284, 93.98926048217663 -10.406439071194256, 94.18309637860425 -10.108655082055241 M93.50117146464063 -11.156274872382312 C93.70955074154931 -10.836148345379938, 93.91793001845797 -10.516021818377563, 94.18309637860425 -10.108655082055241 M94.18309637860425 -10.108655082055241 C94.37279116458825 -9.771832780860658, 94.56248595057224 -9.435010479666074, 94.7964989742735 -9.019496659696287 M94.18309637860425 -10.108655082055241 C94.32026700591115 -9.865094743239652, 94.45743763321803 -9.621534404424063, 94.7964989742735 -9.019496659696287 M94.7964989742735 -9.019496659696287 C94.96742219069407 -8.664570943628036, 95.13834540711461 -8.309645227559782, 95.33885864880834 -7.893275190886684 M94.7964989742735 -9.019496659696287 C94.9453385517363 -8.710428092438013, 95.0941781291991 -8.401359525179737, 95.33885864880834 -7.893275190886684 M95.33885864880834 -7.893275190886684 C95.46594313742806 -7.579374046984534, 95.59302762604779 -7.265472903082384, 95.80794672997033 -6.734618561215508 M95.33885864880834 -7.893275190886684 C95.45291351837331 -7.611557457960329, 95.56696838793827 -7.329839725033972, 95.80794672997033 -6.734618561215508 M95.80794672997033 -6.734618561215508 C95.91288126767638 -6.418572452692956, 96.01781580538244 -6.102526344170403, 96.20183563421489 -5.548287939305138 M95.80794672997033 -6.734618561215508 C95.95830051644597 -6.281776911973492, 96.10865430292162 -5.828935262731476, 96.20183563421489 -5.548287939305138 M96.20183563421489 -5.548287939305138 C96.29595268049727 -5.189378851244545, 96.39006972677964 -4.830469763183952, 96.51890678754556 -4.339158212148133 M96.20183563421489 -5.548287939305138 C96.29928979036569 -5.1766530050036685, 96.3967439465165 -4.805018070702198, 96.51890678754556 -4.339158212148133 M96.51890678754556 -4.339158212148133 C96.59993544210889 -3.92309319637766, 96.68096409667221 -3.507028180607187, 96.75785727658177 -3.1121979531509023 M96.51890678754556 -4.339158212148133 C96.58680351366105 -3.9905228735232123, 96.65470023977655 -3.6418875348982915, 96.75785727658177 -3.1121979531509023 M96.75785727658177 -3.1121979531509023 C96.80076682795158 -2.7793999461760217, 96.84367637932138 -2.4466019392011416, 96.91770520250937 -1.872449005199798 M96.75785727658177 -3.1121979531509023 C96.82084433819836 -2.623682741454854, 96.88383139981494 -2.1351675297588057, 96.91770520250937 -1.872449005199798 M96.91770520250937 -1.872449005199798 C96.94895906180638 -1.3856449189877937, 96.98021292110337 -0.8988408327757894, 96.99779371591342 -0.6250057626472757 M96.91770520250937 -1.872449005199798 C96.9398176534738 -1.5280297325796228, 96.96193010443822 -1.1836104599594477, 96.99779371591342 -0.6250057626472757 M96.99779371591342 -0.6250057626472757 C96.99779371591342 -0.32493390342052586, 96.99779371591342 -0.024862044193776023, 96.99779371591342 0.625005762647271 M96.99779371591342 -0.6250057626472757 C96.99779371591342 -0.2819049787760698, 96.99779371591342 0.06119580509513611, 96.99779371591342 0.625005762647271 M96.99779371591342 0.625005762647271 C96.97392532186709 0.9967752661398093, 96.95005692782075 1.3685447696323474, 96.91770520250937 1.8724490051997846 M96.99779371591342 0.625005762647271 C96.97237588115823 1.0209090558662377, 96.94695804640304 1.4168123490852045, 96.91770520250937 1.8724490051997846 M96.91770520250937 1.8724490051997846 C96.88112513781385 2.1561567634273877, 96.84454507311834 2.4398645216549912, 96.75785727658177 3.1121979531508885 M96.91770520250937 1.8724490051997846 C96.87282453759768 2.220534579565056, 96.827943872686 2.568620153930328, 96.75785727658177 3.1121979531508885 M96.75785727658177 3.1121979531508885 C96.7050656386141 3.38327185659828, 96.65227400064641 3.654345760045671, 96.51890678754556 4.339158212148129 M96.75785727658177 3.1121979531508885 C96.68678357920822 3.4771463677327765, 96.61570988183469 3.8420947823146645, 96.51890678754556 4.339158212148129 M96.51890678754556 4.339158212148129 C96.40641731485216 4.768129324773938, 96.29392784215875 5.1971004373997465, 96.20183563421489 5.548287939305125 M96.51890678754556 4.339158212148129 C96.41324584676282 4.74208917309414, 96.30758490598008 5.14502013404015, 96.20183563421489 5.548287939305125 M96.20183563421489 5.548287939305125 C96.06703164431254 5.954296078791996, 95.93222765441018 6.360304218278867, 95.80794672997033 6.734618561215495 M96.20183563421489 5.548287939305125 C96.06105063930154 5.9723099129413875, 95.92026564438818 6.3963318865776495, 95.80794672997033 6.734618561215495 M95.80794672997033 6.734618561215495 C95.705911146249 6.986648425730998, 95.60387556252766 7.238678290246501, 95.33885864880834 7.893275190886679 M95.80794672997033 6.734618561215495 C95.68279635489075 7.043742407279926, 95.55764597981118 7.352866253344358, 95.33885864880834 7.893275190886679 M95.33885864880834 7.893275190886679 C95.15185014902295 8.281602342031947, 94.96484164923756 8.669929493177216, 94.7964989742735 9.019496659696284 M95.33885864880834 7.893275190886679 C95.17942619415028 8.224340094292192, 95.01999373949222 8.555404997697703, 94.7964989742735 9.019496659696284 M94.7964989742735 9.019496659696284 C94.56550864137303 9.429643386068632, 94.33451830847255 9.839790112440982, 94.18309637860425 10.108655082055236 M94.7964989742735 9.019496659696284 C94.62568970974354 9.322785805182821, 94.45488044521356 9.626074950669361, 94.18309637860425 10.108655082055236 M94.18309637860425 10.108655082055236 C94.03404403592934 10.337639506562104, 93.88499169325442 10.566623931068973, 93.50117146464065 11.156274872382301 M94.18309637860425 10.108655082055236 C94.04276972580092 10.324234503743536, 93.9024430729976 10.539813925431835, 93.50117146464065 11.156274872382301 M93.50117146464065 11.156274872382301 C93.3079495298526 11.415174662117897, 93.11472759506456 11.674074451853492, 92.75352640812659 12.158051136245302 M93.50117146464065 11.156274872382301 C93.27769774780897 11.45570929406232, 93.05422403097731 11.755143715742337, 92.75352640812659 12.158051136245302 M92.75352640812659 12.158051136245302 C92.54869281656451 12.398660328255655, 92.34385922500243 12.63926952026601, 91.94323344296866 13.10986736009567 M92.75352640812659 12.158051136245302 C92.46252404123089 12.499879074904737, 92.17152167433521 12.841707013564173, 91.94323344296866 13.10986736009567 M91.94323344296866 13.10986736009567 C91.66655227416227 13.395563382834684, 91.38987110535588 13.6812594055737, 91.07362223676799 14.007812326905684 M91.94323344296866 13.10986736009567 C91.61593528956769 13.447829575160311, 91.28863713616671 13.785791790224952, 91.07362223676799 14.007812326905684 M91.07362223676799 14.007812326905684 C90.88417113739904 14.179866802751155, 90.6947200380301 14.351921278596627, 90.1482662085019 14.848196188198111 M91.07362223676799 14.007812326905684 C90.74127403694537 14.309642168533092, 90.40892583712274 14.6114720101605, 90.1482662085019 14.848196188198111 M90.1482662085019 14.848196188198111 C89.88624202440917 15.057153502255675, 89.62421784031646 15.266110816313239, 89.17096784457871 15.627565626425152 M90.1482662085019 14.848196188198111 C89.85648280345174 15.080885689043102, 89.56469939840159 15.313575189888093, 89.17096784457871 15.627565626425152 M89.17096784457871 15.627565626425152 C88.77451047589388 15.90411712445681, 88.37805310720904 16.18066862248847, 88.1457430736057 16.34271804539089 M89.17096784457871 15.627565626425152 C88.9471886918394 15.7836642761327, 88.7234095391001 15.93976292584025, 88.1457430736057 16.34271804539089 M88.1457430736057 16.34271804539089 C87.81045102485946 16.545974055735652, 87.4751589761132 16.749230066080415, 87.07680476407678 16.990714730406093 M88.1457430736057 16.34271804539089 C87.92118554616798 16.47884613817015, 87.69662801873024 16.614974230949414, 87.07680476407678 16.990714730406093 M87.07680476407678 16.990714730406093 C86.74949559715938 17.16147171313537, 86.422186430242 17.33222869586465, 85.96854541279238 17.56889292409717 M87.07680476407678 16.990714730406093 C86.84715983452796 17.11052034305712, 86.61751490497912 17.230325955708146, 85.96854541279238 17.56889292409717 M85.96854541279238 17.56889292409717 C85.5144688751601 17.76989913760507, 85.06039233752783 17.970905351112968, 84.8255190951478 18.07487676824742 M85.96854541279238 17.56889292409717 C85.72096270843144 17.678490443037774, 85.4733800040705 17.788087961978377, 84.8255190951478 18.07487676824742 M84.8255190951478 18.07487676824742 C84.4979046091978 18.195441927512128, 84.17029012324782 18.316007086776832, 83.65242275146062 18.506587066708033 M84.8255190951478 18.07487676824742 C84.38284929385087 18.237783347119475, 83.94017949255395 18.400689925991532, 83.65242275146062 18.506587066708033 M83.65242275146062 18.506587066708033 C83.25584715814908 18.62428862113513, 82.85927156483754 18.74199017556223, 82.45407688623541 18.86224982926107 M83.65242275146062 18.506587066708033 C83.28862137038959 18.614561406977497, 82.92481998931856 18.722535747246962, 82.45407688623541 18.86224982926107 M82.45407688623541 18.86224982926107 C82.04796189294646 18.954942926331274, 81.64184689965751 19.047636023401477, 81.23540575967677 19.140403561325773 M82.45407688623541 18.86224982926107 C81.98105427497785 18.970214153519596, 81.50803166372029 19.078178477778124, 81.23540575967677 19.140403561325773 M81.23540575967677 19.140403561325773 C80.77425969982177 19.214958080042024, 80.31311363996679 19.28951259875827, 80.00141715284788 19.3399052695533 M81.23540575967677 19.140403561325773 C80.9280923307191 19.190087613268414, 80.62077890176141 19.239771665211055, 80.00141715284788 19.3399052695533 M80.00141715284788 19.3399052695533 C79.53474247626986 19.384924814344366, 79.06806779969183 19.429944359135437, 78.7571817896239 19.45993515863156 M80.00141715284788 19.3399052695533 C79.7271263610701 19.36636577235316, 79.45283556929233 19.39282627515302, 78.7571817896239 19.45993515863156 M78.7571817896239 19.45993515863156 C78.34974388294796 19.473000899268882, 77.94230597627204 19.486066639906202, 77.5078125 19.5 M78.7571817896239 19.45993515863156 C78.33763791526883 19.473389114089514, 77.91809404091376 19.48684306954747, 77.5078125 19.5 M77.5078125 19.5 C77.5078125 19.5, 77.5078125 19.5, 77.5078125 19.5 M77.5078125 19.5 C77.5078125 19.5, 77.5078125 19.5, 77.5078125 19.5 M77.5078125 19.5 C31.245398730223826 19.5, -15.017015039552348 19.5, -77.5078125 19.5 M77.5078125 19.5 C19.125577716838976 19.5, -39.25665706632205 19.5, -77.5078125 19.5 M-77.5078125 19.5 C-77.8406952988187 19.489325096558947, -78.1735780976374 19.47865019311789, -78.7571817896239 19.45993515863156 M-77.5078125 19.5 C-77.991883866526 19.484476773463268, -78.47595523305199 19.468953546926535, -78.7571817896239 19.45993515863156 M-78.7571817896239 19.45993515863156 C-79.13719683739158 19.42327556400837, -79.51721188515926 19.386615969385186, -80.00141715284786 19.3399052695533 M-78.7571817896239 19.45993515863156 C-79.10002385432308 19.426861596977936, -79.44286591902228 19.393788035324313, -80.00141715284786 19.3399052695533 M-80.00141715284786 19.3399052695533 C-80.37726827851083 19.279140574325123, -80.75311940417379 19.218375879096946, -81.23540575967675 19.140403561325773 M-80.00141715284786 19.3399052695533 C-80.2900436206003 19.29324238057877, -80.57867008835274 19.246579491604244, -81.23540575967675 19.140403561325773 M-81.23540575967675 19.140403561325773 C-81.64622911326242 19.046635811742767, -82.05705246684809 18.952868062159762, -82.45407688623538 18.862249829261074 M-81.23540575967675 19.140403561325773 C-81.62117782831378 19.052353604057384, -82.0069498969508 18.964303646788995, -82.45407688623538 18.862249829261074 M-82.45407688623538 18.862249829261074 C-82.92175387314771 18.723445754432095, -83.38943086006005 18.584641679603116, -83.65242275146059 18.506587066708043 M-82.45407688623538 18.862249829261074 C-82.79585519323372 18.76081182177491, -83.13763350023207 18.65937381428875, -83.65242275146059 18.506587066708043 M-83.65242275146059 18.506587066708043 C-83.99030315129536 18.38224395623667, -84.32818355113012 18.2579008457653, -84.8255190951478 18.074876768247425 M-83.65242275146059 18.506587066708043 C-84.094900769306 18.343751065918976, -84.53737878715138 18.180915065129913, -84.8255190951478 18.074876768247425 M-84.8255190951478 18.074876768247425 C-85.0592743649121 17.971400244426473, -85.29302963467642 17.867923720605525, -85.96854541279238 17.568892924097174 M-84.8255190951478 18.074876768247425 C-85.08907261251765 17.958209444145105, -85.35262612988751 17.841542120042785, -85.96854541279238 17.568892924097174 M-85.96854541279238 17.568892924097174 C-86.36192209296097 17.36366856202301, -86.75529877312957 17.158444199948843, -87.07680476407678 16.990714730406097 M-85.96854541279238 17.568892924097174 C-86.35422567136152 17.36768378024165, -86.73990592993066 17.166474636386127, -87.07680476407678 16.990714730406097 M-87.07680476407678 16.990714730406097 C-87.35129992582414 16.82431415024223, -87.62579508757148 16.657913570078364, -88.14574307360569 16.3427180453909 M-87.07680476407678 16.990714730406097 C-87.37002444370503 16.81296323746535, -87.66324412333327 16.635211744524604, -88.14574307360569 16.3427180453909 M-88.14574307360569 16.3427180453909 C-88.49414999447521 16.099684459684838, -88.84255691534474 15.856650873978777, -89.17096784457871 15.627565626425156 M-88.14574307360569 16.3427180453909 C-88.42340011837277 16.149036510541126, -88.70105716313986 15.955354975691353, -89.17096784457871 15.627565626425156 M-89.17096784457871 15.627565626425156 C-89.4001492078875 15.44479958795861, -89.62933057119628 15.262033549492061, -90.14826620850187 14.848196188198125 M-89.17096784457871 15.627565626425156 C-89.45865123534247 15.398145777867597, -89.74633462610623 15.168725929310039, -90.14826620850187 14.848196188198125 M-90.14826620850187 14.848196188198125 C-90.43287431324492 14.589722637788281, -90.71748241798798 14.331249087378438, -91.07362223676797 14.007812326905697 M-90.14826620850187 14.848196188198125 C-90.50320459414384 14.52585053751315, -90.85814297978581 14.203504886828174, -91.07362223676797 14.007812326905697 M-91.07362223676797 14.007812326905697 C-91.26390250649067 13.811332326116334, -91.45418277621336 13.614852325326972, -91.94323344296865 13.109867360095677 M-91.07362223676797 14.007812326905697 C-91.2833530341366 13.791248059403895, -91.49308383150522 13.57468379190209, -91.94323344296865 13.109867360095677 M-91.94323344296865 13.109867360095677 C-92.12251622910145 12.899271598024567, -92.30179901523424 12.688675835953456, -92.75352640812658 12.158051136245307 M-91.94323344296865 13.109867360095677 C-92.15880510936053 12.856644614376464, -92.37437677575241 12.60342186865725, -92.75352640812658 12.158051136245307 M-92.75352640812658 12.158051136245307 C-93.01994945637554 11.80106852323071, -93.2863725046245 11.444085910216112, -93.50117146464063 11.156274872382316 M-92.75352640812658 12.158051136245307 C-93.01341135562262 11.809828982606382, -93.27329630311867 11.461606828967456, -93.50117146464063 11.156274872382316 M-93.50117146464063 11.156274872382316 C-93.77090185077034 10.741896566536877, -94.04063223690004 10.327518260691438, -94.18309637860425 10.108655082055249 M-93.50117146464063 11.156274872382316 C-93.66895234016779 10.898518392099163, -93.83673321569495 10.640761911816012, -94.18309637860425 10.108655082055249 M-94.18309637860425 10.108655082055249 C-94.33352390595277 9.84155577480905, -94.4839514333013 9.574456467562852, -94.7964989742735 9.019496659696289 M-94.18309637860425 10.108655082055249 C-94.31147761293022 9.880701200499828, -94.4398588472562 9.652747318944408, -94.7964989742735 9.019496659696289 M-94.7964989742735 9.019496659696289 C-95.01145916478848 8.573127224680672, -95.22641935530346 8.126757789665055, -95.33885864880834 7.893275190886686 M-94.7964989742735 9.019496659696289 C-94.92579692771913 8.751006692833437, -95.05509488116475 8.482516725970585, -95.33885864880834 7.893275190886686 M-95.33885864880834 7.893275190886686 C-95.46888596190345 7.572105213634691, -95.59891327499855 7.250935236382695, -95.80794672997033 6.73461856121551 M-95.33885864880834 7.893275190886686 C-95.48531530020787 7.531524430383112, -95.6317719516074 7.16977366987954, -95.80794672997033 6.73461856121551 M-95.80794672997033 6.73461856121551 C-95.90846597156349 6.431870621103109, -96.00898521315665 6.12912268099071, -96.20183563421489 5.5482879393051325 M-95.80794672997033 6.73461856121551 C-95.92960284371621 6.368209729882319, -96.05125895746211 6.00180089854913, -96.20183563421489 5.5482879393051325 M-96.20183563421489 5.5482879393051325 C-96.3144710359531 5.118760335985402, -96.42710643769132 4.689232732665672, -96.51890678754556 4.339158212148136 M-96.20183563421489 5.5482879393051325 C-96.31665161091674 5.110444858581885, -96.4314675876186 4.672601777858637, -96.51890678754556 4.339158212148136 M-96.51890678754556 4.339158212148136 C-96.61291181938812 3.856462241607082, -96.70691685123069 3.373766271066028, -96.75785727658177 3.112197953150904 M-96.51890678754556 4.339158212148136 C-96.60373151787635 3.9036011496126366, -96.68855624820714 3.468044087077137, -96.75785727658177 3.112197953150904 M-96.75785727658177 3.112197953150904 C-96.80343278261336 2.7587233282716204, -96.84900828864492 2.4052487033923367, -96.91770520250937 1.872449005199809 M-96.75785727658177 3.112197953150904 C-96.7990747054058 2.7925237144936585, -96.84029213422984 2.472849475836413, -96.91770520250937 1.872449005199809 M-96.91770520250937 1.872449005199809 C-96.93783255136269 1.5589493003058081, -96.957959900216 1.2454495954118072, -96.99779371591342 0.6250057626472781 M-96.91770520250937 1.872449005199809 C-96.94881135943814 1.3879455025961969, -96.97991751636691 0.9034419999925849, -96.99779371591342 0.6250057626472781 M-96.99779371591342 0.6250057626472781 C-96.99779371591342 0.21656333791289506, -96.99779371591342 -0.19187908682148802, -96.99779371591342 -0.6250057626472687 M-96.99779371591342 0.6250057626472781 C-96.99779371591342 0.210875875406077, -96.99779371591342 -0.20325401183512415, -96.99779371591342 -0.6250057626472687 M-96.99779371591342 -0.6250057626472687 C-96.96977732761805 -1.0613836247692272, -96.94176093932268 -1.497761486891186, -96.91770520250937 -1.8724490051997822 M-96.99779371591342 -0.6250057626472687 C-96.98023359098777 -0.8985188826421082, -96.9626734660621 -1.1720320026369477, -96.91770520250937 -1.8724490051997822 M-96.91770520250937 -1.8724490051997822 C-96.8746187817165 -2.206618776493026, -96.83153236092366 -2.54078854778627, -96.75785727658177 -3.112197953150895 M-96.91770520250937 -1.8724490051997822 C-96.8552825224692 -2.3565869848389545, -96.79285984242901 -2.8407249644781265, -96.75785727658177 -3.112197953150895 M-96.75785727658177 -3.112197953150895 C-96.66555841354885 -3.586133107453358, -96.57325955051593 -4.060068261755821, -96.51890678754556 -4.339158212148126 M-96.75785727658177 -3.112197953150895 C-96.69718793489116 -3.423722200262272, -96.63651859320055 -3.7352464473736484, -96.51890678754556 -4.339158212148126 M-96.51890678754556 -4.339158212148126 C-96.41716127753119 -4.7271579386158855, -96.31541576751682 -5.115157665083646, -96.20183563421489 -5.548287939305123 M-96.51890678754556 -4.339158212148126 C-96.40930057211511 -4.757134215218705, -96.29969435668465 -5.175110218289284, -96.20183563421489 -5.548287939305123 M-96.20183563421489 -5.548287939305123 C-96.0800573542957 -5.915064715687751, -95.9582790743765 -6.281841492070379, -95.80794672997033 -6.734618561215485 M-96.20183563421489 -5.548287939305123 C-96.08621586461179 -5.896516263841035, -95.9705960950087 -6.244744588376948, -95.80794672997033 -6.734618561215485 M-95.80794672997033 -6.734618561215485 C-95.63819122179838 -7.153917948399666, -95.46843571362643 -7.573217335583848, -95.33885864880834 -7.893275190886676 M-95.80794672997033 -6.734618561215485 C-95.6905626770688 -7.024559441348533, -95.57317862416727 -7.31450032148158, -95.33885864880834 -7.893275190886676 M-95.33885864880834 -7.893275190886676 C-95.12613543523472 -8.334999495419932, -94.91341222166109 -8.77672379995319, -94.7964989742735 -9.019496659696282 M-95.33885864880834 -7.893275190886676 C-95.14221895934833 -8.301601713465725, -94.94557926988833 -8.709928236044775, -94.7964989742735 -9.019496659696282 M-94.7964989742735 -9.019496659696282 C-94.63808137676845 -9.300783145587738, -94.47966377926339 -9.582069631479195, -94.18309637860425 -10.108655082055243 M-94.7964989742735 -9.019496659696282 C-94.59855123413567 -9.370972916693239, -94.40060349399783 -9.722449173690196, -94.18309637860425 -10.108655082055243 M-94.18309637860425 -10.108655082055243 C-93.96960048616755 -10.43664210451231, -93.75610459373087 -10.76462912696938, -93.50117146464063 -11.156274872382308 M-94.18309637860425 -10.108655082055243 C-93.97067678844127 -10.434988615192253, -93.7582571982783 -10.761322148329262, -93.50117146464063 -11.156274872382308 M-93.50117146464063 -11.156274872382308 C-93.22368977167751 -11.528075061850625, -92.94620807871439 -11.899875251318944, -92.75352640812659 -12.158051136245302 M-93.50117146464063 -11.156274872382308 C-93.27986911568357 -11.452799858926044, -93.0585667667265 -11.74932484546978, -92.75352640812659 -12.158051136245302 M-92.75352640812659 -12.158051136245302 C-92.51566375811692 -12.437458139714874, -92.27780110810724 -12.716865143184448, -91.94323344296866 -13.10986736009567 M-92.75352640812659 -12.158051136245302 C-92.46105107838106 -12.501609300882114, -92.16857574863553 -12.845167465518925, -91.94323344296866 -13.10986736009567 M-91.94323344296866 -13.10986736009567 C-91.71094449649965 -13.349724768602107, -91.47865555003064 -13.589582177108541, -91.07362223676799 -14.007812326905677 M-91.94323344296866 -13.10986736009567 C-91.6669244072805 -13.395179124837412, -91.39061537159235 -13.680490889579152, -91.07362223676799 -14.007812326905677 M-91.07362223676799 -14.007812326905677 C-90.71263166387246 -14.335654413922233, -90.35164109097694 -14.663496500938791, -90.1482662085019 -14.848196188198107 M-91.07362223676799 -14.007812326905677 C-90.71841484509727 -14.330402281748459, -90.36320745342654 -14.65299223659124, -90.1482662085019 -14.848196188198107 M-90.1482662085019 -14.848196188198107 C-89.82471432410483 -15.10622020592752, -89.50116243970777 -15.364244223656934, -89.17096784457871 -15.627565626425149 M-90.1482662085019 -14.848196188198107 C-89.91299782857821 -15.035816460432715, -89.67772944865453 -15.223436732667322, -89.17096784457871 -15.627565626425149 M-89.17096784457871 -15.627565626425149 C-88.80911002978452 -15.879981973453242, -88.44725221499034 -16.132398320481336, -88.14574307360571 -16.342718045390885 M-89.17096784457871 -15.627565626425149 C-88.9521066147185 -15.780233746025695, -88.73324538485828 -15.932901865626244, -88.14574307360571 -16.342718045390885 M-88.14574307360571 -16.342718045390885 C-87.81476314187253 -16.543360025061514, -87.48378321013935 -16.744002004732145, -87.07680476407678 -16.99071473040609 M-88.14574307360571 -16.342718045390885 C-87.75216438982056 -16.581307756426515, -87.35858570603541 -16.819897467462148, -87.07680476407678 -16.99071473040609 M-87.07680476407678 -16.99071473040609 C-86.73062248437913 -17.171317803984028, -86.38444020468147 -17.351920877561966, -85.9685454127924 -17.56889292409717 M-87.07680476407678 -16.99071473040609 C-86.7610511848538 -17.155443170436907, -86.4452976056308 -17.320171610467725, -85.9685454127924 -17.56889292409717 M-85.9685454127924 -17.56889292409717 C-85.59920121153509 -17.732390645787326, -85.22985701027778 -17.89588836747748, -84.82551909514781 -18.07487676824742 M-85.9685454127924 -17.56889292409717 C-85.60858428207422 -17.72823703879855, -85.24862315135604 -17.88758115349993, -84.82551909514781 -18.07487676824742 M-84.82551909514781 -18.07487676824742 C-84.36600878976488 -18.24398080829504, -83.90649848438194 -18.413084848342656, -83.65242275146062 -18.506587066708033 M-84.82551909514781 -18.07487676824742 C-84.44249230280877 -18.215834168489042, -84.05946551046972 -18.356791568730664, -83.65242275146062 -18.506587066708033 M-83.65242275146062 -18.506587066708033 C-83.36371970098965 -18.592272616654583, -83.07501665051866 -18.677958166601133, -82.45407688623541 -18.862249829261067 M-83.65242275146062 -18.506587066708033 C-83.40541681878474 -18.579897130965634, -83.15841088610888 -18.65320719522323, -82.45407688623541 -18.862249829261067 M-82.45407688623541 -18.862249829261067 C-82.05566488201683 -18.95318476934266, -81.65725287779824 -19.044119709424255, -81.23540575967677 -19.140403561325773 M-82.45407688623541 -18.862249829261067 C-81.99537004893841 -18.966946671532252, -81.5366632116414 -19.07164351380344, -81.23540575967677 -19.140403561325773 M-81.23540575967677 -19.140403561325773 C-80.7578325894191 -19.217613887857784, -80.28025941916141 -19.2948242143898, -80.00141715284788 -19.3399052695533 M-81.23540575967677 -19.140403561325773 C-80.85838294372883 -19.20135768635263, -80.48136012778087 -19.26231181137949, -80.00141715284788 -19.3399052695533 M-80.00141715284788 -19.3399052695533 C-79.68512810598575 -19.370417293510855, -79.36883905912364 -19.40092931746841, -78.7571817896239 -19.45993515863156 M-80.00141715284788 -19.3399052695533 C-79.55976503929344 -19.382510917783517, -79.11811292573898 -19.425116566013735, -78.7571817896239 -19.45993515863156 M-78.7571817896239 -19.45993515863156 C-78.42805411287137 -19.470489642616855, -78.09892643611884 -19.481044126602146, -77.5078125 -19.5 M-78.7571817896239 -19.45993515863156 C-78.4691670012919 -19.46917123230659, -78.18115221295989 -19.47840730598162, -77.5078125 -19.5 M-77.5078125 -19.5 C-77.5078125 -19.5, -77.5078125 -19.5, -77.5078125 -19.5 M-77.5078125 -19.5 C-77.5078125 -19.5, -77.5078125 -19.5, -77.5078125 -19.5" stroke="#9370DB" stroke-width="1.3" fill="none" stroke-dasharray="0 0" style=""/></g><g class="label" style="" transform="translate(-84.6328125, -12)"><rect/><foreignObject width="169.265625" height="24"><div xmlns="http://www.w3.org/1999/xhtml" style="display: table-cell; white-space: nowrap; line-height: 1.5; max-width: 200px; text-align: center;"><span class="nodeLabel"><p>Model Y from predictors</p></span></div></foreignObject></g></g><g class="node default" id="t-applied-statistics--regression-family-which-model-for-this-outcome-flowchart-CLUST-1" data-look="classic" transform="translate(800.2890625, 236)"><polygon points="139,0 278,-139 139,-278 0,-139" class="label-container" transform="translate(-138.5, 139)"/><g class="label" style="" transform="translate(-100, -24)"><rect/><foreignObject width="200" height="48"><div xmlns="http://www.w3.org/1999/xhtml" style="display: table; white-space: break-spaces; line-height: 1.5; max-width: 200px; text-align: center; width: 200px;"><span class="nodeLabel"><p>Repeated / clustered / nested observations?</p></span></div></foreignObject></g></g><g class="node default" id="t-applied-statistics--regression-family-which-model-for-this-outcome-flowchart-MIX-3" data-look="classic" transform="translate(660.8203125, 548.046875)"><rect class="basic label-container" style="" x="-129.890625" y="-39" width="259.78125" height="78"/><g class="label" style="" transform="translate(-99.890625, -24)"><rect/><foreignObject width="199.78125" height="48"><div xmlns="http://www.w3.org/1999/xhtml" style="display: table-cell; white-space: nowrap; line-height: 1.5; max-width: 200px; text-align: center;"><span class="nodeLabel"><p>Mixed-effects model or GEE<br />model the dependence</p></span></div></foreignObject></g></g><g class="node default" id="t-applied-statistics--regression-family-which-model-for-this-outcome-flowchart-TYPE-5" data-look="classic" transform="translate(939.7578125, 548.046875)"><polygon points="99.046875,0 198.09375,-99.046875 99.046875,-198.09375 0,-99.046875" class="label-container" transform="translate(-98.546875, 99.046875)"/><g class="label" style="" transform="translate(-72.046875, -12)"><rect/><foreignObject width="144.09375" height="24"><div xmlns="http://www.w3.org/1999/xhtml" style="display: table-cell; white-space: nowrap; line-height: 1.5; max-width: 200px; text-align: center;"><span class="nodeLabel"><p>Outcome data type?</p></span></div></foreignObject></g></g><g class="node default" id="t-applied-statistics--regression-family-which-model-for-this-outcome-flowchart-OLS-7" data-look="classic" transform="translate(118.046875, 884.09375)"><rect class="basic label-container" style="" x="-110.046875" y="-27" width="220.09375" height="54"/><g class="label" style="" transform="translate(-80.046875, -12)"><rect/><foreignObject width="160.09375" height="24"><div xmlns="http://www.w3.org/1999/xhtml" style="display: table-cell; white-space: nowrap; line-height: 1.5; max-width: 200px; text-align: center;"><span class="nodeLabel"><p>Linear regression OLS</p></span></div></foreignObject></g></g><g class="node default" id="t-applied-statistics--regression-family-which-model-for-this-outcome-flowchart-SKEW-9" data-look="classic" transform="translate(408.09375, 884.09375)"><rect class="basic label-container" style="" x="-130" y="-39" width="260" height="78"/><g class="label" style="" transform="translate(-100, -24)"><rect/><foreignObject width="200" height="48"><div xmlns="http://www.w3.org/1999/xhtml" style="display: table; white-space: break-spaces; line-height: 1.5; max-width: 200px; text-align: center; width: 200px;"><span class="nodeLabel"><p>OLS on log y, or Gamma GLM</p></span></div></foreignObject></g></g><g class="node default" id="t-applied-statistics--regression-family-which-model-for-this-outcome-flowchart-LOGIT-11" data-look="classic" transform="translate(684.796875, 884.09375)"><rect class="basic label-container" style="" x="-96.703125" y="-27" width="193.40625" height="54"/><g class="label" style="" transform="translate(-66.703125, -12)"><rect/><foreignObject width="133.40625" height="24"><div xmlns="http://www.w3.org/1999/xhtml" style="display: table-cell; white-space: nowrap; line-height: 1.5; max-width: 200px; text-align: center;"><span class="nodeLabel"><p>Logistic regression</p></span></div></foreignObject></g></g><g class="node default" id="t-applied-statistics--regression-family-which-model-for-this-outcome-flowchart-PROP-13" data-look="classic" transform="translate(939.7578125, 884.09375)"><rect class="basic label-container" style="" x="-108.2578125" y="-27" width="216.515625" height="54"/><g class="label" style="" transform="translate(-78.2578125, -12)"><rect/><foreignObject width="156.515625" height="24"><div xmlns="http://www.w3.org/1999/xhtml" style="display: table-cell; white-space: nowrap; line-height: 1.5; max-width: 200px; text-align: center;"><span class="nodeLabel"><p>Binomial or Beta GLM</p></span></div></foreignObject></g></g><g class="node default" id="t-applied-statistics--regression-family-which-model-for-this-outcome-flowchart-ORDL-15" data-look="classic" transform="translate(1228.015625, 884.09375)"><rect class="basic label-container" style="" x="-130" y="-39" width="260" height="78"/><g class="label" style="" transform="translate(-100, -24)"><rect/><foreignObject width="200" height="48"><div xmlns="http://www.w3.org/1999/xhtml" style="display: table; white-space: break-spaces; line-height: 1.5; max-width: 200px; text-align: center; width: 200px;"><span class="nodeLabel"><p>Ordinal / proportional-odds logistic</p></span></div></foreignObject></g></g><g class="node default" id="t-applied-statistics--regression-family-which-model-for-this-outcome-flowchart-CNT-17" data-look="classic" transform="translate(1547.015625, 884.09375)"><polygon points="139,0 278,-139 139,-278 0,-139" class="label-container" transform="translate(-138.5, 139)"/><g class="label" style="" transform="translate(-100, -24)"><rect/><foreignObject width="200" height="48"><div xmlns="http://www.w3.org/1999/xhtml" style="display: table; white-space: break-spaces; line-height: 1.5; max-width: 200px; text-align: center; width: 200px;"><span class="nodeLabel"><p>Variance &gt; mean? overdispersed?</p></span></div></foreignObject></g></g><g class="node default" id="t-applied-statistics--regression-family-which-model-for-this-outcome-flowchart-SURV-19" data-look="classic" transform="translate(1847.828125, 884.09375)"><rect class="basic label-container" style="" x="-111.8125" y="-27" width="223.625" height="54"/><g class="label" style="" transform="translate(-81.8125, -12)"><rect/><foreignObject width="163.625" height="24"><div xmlns="http://www.w3.org/1999/xhtml" style="display: table-cell; white-space: nowrap; line-height: 1.5; max-width: 200px; text-align: center;"><span class="nodeLabel"><p>Cox PH / Kaplan-Meier</p></span></div></foreignObject></g></g><g class="node default" id="t-applied-statistics--regression-family-which-model-for-this-outcome-flowchart-POIS-21" data-look="classic" transform="translate(1305.3984375, 1124.09375)"><rect class="basic label-container" style="" x="-78.0234375" y="-27" width="156.046875" height="54"/><g class="label" style="" transform="translate(-48.0234375, -12)"><rect/><foreignObject width="96.046875" height="24"><div xmlns="http://www.w3.org/1999/xhtml" style="display: table-cell; white-space: nowrap; line-height: 1.5; max-width: 200px; text-align: center;"><span class="nodeLabel"><p>Poisson GLM</p></span></div></foreignObject></g></g><g class="node default" id="t-applied-statistics--regression-family-which-model-for-this-outcome-flowchart-NB-23" data-look="classic" transform="translate(1547.015625, 1124.09375)"><rect class="basic label-container" style="" x="-113.59375" y="-27" width="227.1875" height="54"/><g class="label" style="" transform="translate(-83.59375, -12)"><rect/><foreignObject width="167.1875" height="24"><div xmlns="http://www.w3.org/1999/xhtml" style="display: table-cell; white-space: nowrap; line-height: 1.5; max-width: 200px; text-align: center;"><span class="nodeLabel"><p>Negative-binomial GLM</p></span></div></foreignObject></g></g><g class="node default" id="t-applied-statistics--regression-family-which-model-for-this-outcome-flowchart-ZI-25" data-look="classic" transform="translate(1838.4375, 1124.09375)"><rect class="basic label-container" style="" x="-127.828125" y="-27" width="255.65625" height="54"/><g class="label" style="" transform="translate(-97.828125, -12)"><rect/><foreignObject width="195.65625" height="24"><div xmlns="http://www.w3.org/1999/xhtml" style="display: table-cell; white-space: nowrap; line-height: 1.5; max-width: 200px; text-align: center;"><span class="nodeLabel"><p>Zero-inflated / hurdle model</p></span></div></foreignObject></g></g></g></g></g><defs><filter id="t-applied-statistics--regression-family-which-model-for-this-outcome-drop-shadow" height="130%" width="130%"><feDropShadow dx="4" dy="4" stdDeviation="0" flood-opacity="0.06" flood-color="#000000"/></filter></defs><defs><filter id="t-applied-statistics--regression-family-which-model-for-this-outcome-drop-shadow-small" height="150%" width="150%"><feDropShadow dx="2" dy="2" stdDeviation="0" flood-opacity="0.06" flood-color="#000000"/></filter></defs></svg>