<svg id="t-incident-response-dfir--alert-triage-escalate-tune-hunt" width="100%" xmlns="http://www.w3.org/2000/svg" xmlns:xlink="http://www.w3.org/1999/xlink" class="rc-tree-diagram flowchart" style="max-width: 848.137px; background-color: transparent;" viewBox="0 0 848.13671875 1666.859375" role="graphics-document document" aria-roledescription="flowchart-v2"><style>#t-incident-response-dfir--alert-triage-escalate-tune-hunt .nodeLabel,#t-incident-response-dfir--alert-triage-escalate-tune-hunt .edgeLabel,#t-incident-response-dfir--alert-triage-escalate-tune-hunt text,#t-incident-response-dfir--alert-triage-escalate-tune-hunt span,#t-incident-response-dfir--alert-triage-escalate-tune-hunt p,#t-incident-response-dfir--alert-triage-escalate-tune-hunt div{fill:var(--text,#1f2937)!important;color:var(--text,#1f2937)!important;background:transparent!important}#t-incident-response-dfir--alert-triage-escalate-tune-hunt .node rect,#t-incident-response-dfir--alert-triage-escalate-tune-hunt .node polygon,#t-incident-response-dfir--alert-triage-escalate-tune-hunt .node circle,#t-incident-response-dfir--alert-triage-escalate-tune-hunt .node path,#t-incident-response-dfir--alert-triage-escalate-tune-hunt .label-container{fill:var(--surface-2,#eef2f7)!important;stroke:var(--border,#94a3b8)!important;stroke-width:1.5px!important}#t-incident-response-dfir--alert-triage-escalate-tune-hunt .cluster rect{fill:var(--surface,#f1f5f9)!important;stroke:var(--border,#94a3b8)!important}#t-incident-response-dfir--alert-triage-escalate-tune-hunt .edgePath .path,#t-incident-response-dfir--alert-triage-escalate-tune-hunt .edgePath path,#t-incident-response-dfir--alert-triage-escalate-tune-hunt path.flowchart-link,#t-incident-response-dfir--alert-triage-escalate-tune-hunt .flowchart-link{stroke:var(--muted,#64748b)!important;stroke-width:1.5px!important;fill:none!important}#t-incident-response-dfir--alert-triage-escalate-tune-hunt marker path,#t-incident-response-dfir--alert-triage-escalate-tune-hunt .arrowMarkerPath,#t-incident-response-dfir--alert-triage-escalate-tune-hunt #arrowhead path{fill:var(--muted,#64748b)!important;stroke:none!important}#t-incident-response-dfir--alert-triage-escalate-tune-hunt .edgeLabel rect,#t-incident-response-dfir--alert-triage-escalate-tune-hunt .edgeLabel .labelBkg,#t-incident-response-dfir--alert-triage-escalate-tune-hunt .label-container.edgeLabel{fill:var(--bg,#ffffff)!important;opacity:1!important}#t-incident-response-dfir--alert-triage-escalate-tune-hunt .edgeLabel text,#t-incident-response-dfir--alert-triage-escalate-tune-hunt .edgeLabel span{fill:var(--muted,#64748b)!important;color:var(--muted,#64748b)!important}#t-incident-response-dfir--alert-triage-escalate-tune-hunt .node:hover rect,#t-incident-response-dfir--alert-triage-escalate-tune-hunt .node:hover polygon,#t-incident-response-dfir--alert-triage-escalate-tune-hunt .node:hover circle,#t-incident-response-dfir--alert-triage-escalate-tune-hunt .node:hover path{stroke:var(--accent,#0d9488)!important;stroke-width:2.5px!important;cursor:default}</style><style>#t-incident-response-dfir--alert-triage-escalate-tune-hunt{font-family:"trebuchet ms",verdana,arial,sans-serif;font-size:16px;fill:#333;}@keyframes edge-animation-frame{from{stroke-dashoffset:0;}}@keyframes dash{to{stroke-dashoffset:0;}}#t-incident-response-dfir--alert-triage-escalate-tune-hunt .edge-animation-slow{stroke-dasharray:9,5!important;stroke-dashoffset:900;animation:dash 50s linear infinite;stroke-linecap:round;}#t-incident-response-dfir--alert-triage-escalate-tune-hunt .edge-animation-fast{stroke-dasharray:9,5!important;stroke-dashoffset:900;animation:dash 20s linear infinite;stroke-linecap:round;}#t-incident-response-dfir--alert-triage-escalate-tune-hunt .error-icon{fill:#552222;}#t-incident-response-dfir--alert-triage-escalate-tune-hunt .error-text{fill:#552222;stroke:#552222;}#t-incident-response-dfir--alert-triage-escalate-tune-hunt .edge-thickness-normal{stroke-width:1px;}#t-incident-response-dfir--alert-triage-escalate-tune-hunt .edge-thickness-thick{stroke-width:3.5px;}#t-incident-response-dfir--alert-triage-escalate-tune-hunt .edge-pattern-solid{stroke-dasharray:0;}#t-incident-response-dfir--alert-triage-escalate-tune-hunt .edge-thickness-invisible{stroke-width:0;fill:none;}#t-incident-response-dfir--alert-triage-escalate-tune-hunt .edge-pattern-dashed{stroke-dasharray:3;}#t-incident-response-dfir--alert-triage-escalate-tune-hunt .edge-pattern-dotted{stroke-dasharray:2;}#t-incident-response-dfir--alert-triage-escalate-tune-hunt .marker{fill:#333333;stroke:#333333;}#t-incident-response-dfir--alert-triage-escalate-tune-hunt .marker.cross{stroke:#333333;}#t-incident-response-dfir--alert-triage-escalate-tune-hunt svg{font-family:"trebuchet ms",verdana,arial,sans-serif;font-size:16px;}#t-incident-response-dfir--alert-triage-escalate-tune-hunt p{margin:0;}#t-incident-response-dfir--alert-triage-escalate-tune-hunt .label{font-family:"trebuchet ms",verdana,arial,sans-serif;color:#333;}#t-incident-response-dfir--alert-triage-escalate-tune-hunt .cluster-label text{fill:#333;}#t-incident-response-dfir--alert-triage-escalate-tune-hunt .cluster-label span{color:#333;}#t-incident-response-dfir--alert-triage-escalate-tune-hunt .cluster-label span p{background-color:transparent;}#t-incident-response-dfir--alert-triage-escalate-tune-hunt .label text,#t-incident-response-dfir--alert-triage-escalate-tune-hunt span{fill:#333;color:#333;}#t-incident-response-dfir--alert-triage-escalate-tune-hunt .node rect,#t-incident-response-dfir--alert-triage-escalate-tune-hunt .node circle,#t-incident-response-dfir--alert-triage-escalate-tune-hunt .node ellipse,#t-incident-response-dfir--alert-triage-escalate-tune-hunt .node polygon,#t-incident-response-dfir--alert-triage-escalate-tune-hunt .node path{fill:#ECECFF;stroke:#9370DB;stroke-width:1px;}#t-incident-response-dfir--alert-triage-escalate-tune-hunt .rough-node .label text,#t-incident-response-dfir--alert-triage-escalate-tune-hunt .node .label text,#t-incident-response-dfir--alert-triage-escalate-tune-hunt .image-shape .label,#t-incident-response-dfir--alert-triage-escalate-tune-hunt .icon-shape .label{text-anchor:middle;}#t-incident-response-dfir--alert-triage-escalate-tune-hunt .node .katex path{fill:#000;stroke:#000;stroke-width:1px;}#t-incident-response-dfir--alert-triage-escalate-tune-hunt .rough-node .label,#t-incident-response-dfir--alert-triage-escalate-tune-hunt .node .label,#t-incident-response-dfir--alert-triage-escalate-tune-hunt .image-shape .label,#t-incident-response-dfir--alert-triage-escalate-tune-hunt .icon-shape .label{text-align:center;}#t-incident-response-dfir--alert-triage-escalate-tune-hunt .node.clickable{cursor:pointer;}#t-incident-response-dfir--alert-triage-escalate-tune-hunt .root .anchor path{fill:#333333!important;stroke-width:0;stroke:#333333;}#t-incident-response-dfir--alert-triage-escalate-tune-hunt .arrowheadPath{fill:#333333;}#t-incident-response-dfir--alert-triage-escalate-tune-hunt .edgePath .path{stroke:#333333;stroke-width:1px;}#t-incident-response-dfir--alert-triage-escalate-tune-hunt .flowchart-link{stroke:#333333;fill:none;}#t-incident-response-dfir--alert-triage-escalate-tune-hunt .edgeLabel{background-color:rgba(232,232,232, 0.8);text-align:center;}#t-incident-response-dfir--alert-triage-escalate-tune-hunt .edgeLabel p{background-color:rgba(232,232,232, 0.8);}#t-incident-response-dfir--alert-triage-escalate-tune-hunt .edgeLabel rect{opacity:0.5;background-color:rgba(232,232,232, 0.8);fill:rgba(232,232,232, 0.8);}#t-incident-response-dfir--alert-triage-escalate-tune-hunt .labelBkg{background-color:rgba(232, 232, 232, 0.5);}#t-incident-response-dfir--alert-triage-escalate-tune-hunt .cluster rect{fill:#ffffde;stroke:#aaaa33;stroke-width:1px;}#t-incident-response-dfir--alert-triage-escalate-tune-hunt .cluster text{fill:#333;}#t-incident-response-dfir--alert-triage-escalate-tune-hunt .cluster span{color:#333;}#t-incident-response-dfir--alert-triage-escalate-tune-hunt div.mermaidTooltip{position:absolute;text-align:center;max-width:200px;padding:2px;font-family:"trebuchet ms",verdana,arial,sans-serif;font-size:12px;background:hsl(80, 100%, 96.2745098039%);border:1px solid #aaaa33;border-radius:2px;pointer-events:none;z-index:100;}#t-incident-response-dfir--alert-triage-escalate-tune-hunt .flowchartTitleText{text-anchor:middle;font-size:18px;fill:#333;}#t-incident-response-dfir--alert-triage-escalate-tune-hunt rect.text{fill:none;stroke-width:0;}#t-incident-response-dfir--alert-triage-escalate-tune-hunt .icon-shape,#t-incident-response-dfir--alert-triage-escalate-tune-hunt .image-shape{background-color:rgba(232,232,232, 0.8);text-align:center;}#t-incident-response-dfir--alert-triage-escalate-tune-hunt .icon-shape p,#t-incident-response-dfir--alert-triage-escalate-tune-hunt .image-shape p{background-color:rgba(232,232,232, 0.8);padding:2px;}#t-incident-response-dfir--alert-triage-escalate-tune-hunt .icon-shape .label rect,#t-incident-response-dfir--alert-triage-escalate-tune-hunt .image-shape .label rect{opacity:0.5;background-color:rgba(232,232,232, 0.8);fill:rgba(232,232,232, 0.8);}#t-incident-response-dfir--alert-triage-escalate-tune-hunt .label-icon{display:inline-block;height:1em;overflow:visible;vertical-align:-0.125em;}#t-incident-response-dfir--alert-triage-escalate-tune-hunt .node .label-icon path{fill:currentColor;stroke:revert;stroke-width:revert;}#t-incident-response-dfir--alert-triage-escalate-tune-hunt .node .neo-node{stroke:#9370DB;}#t-incident-response-dfir--alert-triage-escalate-tune-hunt [data-look="neo"].node rect,#t-incident-response-dfir--alert-triage-escalate-tune-hunt [data-look="neo"].cluster rect,#t-incident-response-dfir--alert-triage-escalate-tune-hunt [data-look="neo"].node polygon{stroke:#9370DB;filter:drop-shadow(1px 2px 2px rgba(185, 185, 185, 1));}#t-incident-response-dfir--alert-triage-escalate-tune-hunt [data-look="neo"].swimlane.cluster rect{filter:none;}#t-incident-response-dfir--alert-triage-escalate-tune-hunt [data-look="neo"].node path{stroke:#9370DB;stroke-width:1px;}#t-incident-response-dfir--alert-triage-escalate-tune-hunt [data-look="neo"].node .outer-path{filter:drop-shadow(1px 2px 2px rgba(185, 185, 185, 1));}#t-incident-response-dfir--alert-triage-escalate-tune-hunt [data-look="neo"].node .neo-line path{stroke:#9370DB;filter:none;}#t-incident-response-dfir--alert-triage-escalate-tune-hunt [data-look="neo"].node circle{stroke:#9370DB;filter:drop-shadow(1px 2px 2px rgba(185, 185, 185, 1));}#t-incident-response-dfir--alert-triage-escalate-tune-hunt [data-look="neo"].node circle .state-start{fill:#000000;}#t-incident-response-dfir--alert-triage-escalate-tune-hunt [data-look="neo"].icon-shape .icon{fill:#9370DB;filter:drop-shadow(1px 2px 2px rgba(185, 185, 185, 1));}#t-incident-response-dfir--alert-triage-escalate-tune-hunt [data-look="neo"].icon-shape .icon-neo path{stroke:#9370DB;filter:drop-shadow(1px 2px 2px rgba(185, 185, 185, 1));}#t-incident-response-dfir--alert-triage-escalate-tune-hunt :root{--mermaid-font-family:"trebuchet ms",verdana,arial,sans-serif;}</style><g><marker id="t-incident-response-dfir--alert-triage-escalate-tune-hunt_flowchart-v2-pointEnd" class="marker flowchart-v2" viewBox="0 0 10 10" refX="5" refY="5" markerUnits="userSpaceOnUse" markerWidth="8" markerHeight="8" orient="auto"><path d="M 0 0 L 10 5 L 0 10 z" class="arrowMarkerPath" style="stroke-width: 1; stroke-dasharray: 1, 0;"/></marker><marker id="t-incident-response-dfir--alert-triage-escalate-tune-hunt_flowchart-v2-pointStart" class="marker flowchart-v2" viewBox="0 0 10 10" refX="4.5" refY="5" markerUnits="userSpaceOnUse" markerWidth="8" markerHeight="8" orient="auto"><path d="M 0 5 L 10 10 L 10 0 z" class="arrowMarkerPath" style="stroke-width: 1; stroke-dasharray: 1, 0;"/></marker><marker id="t-incident-response-dfir--alert-triage-escalate-tune-hunt_flowchart-v2-pointEnd-margin" class="marker flowchart-v2" viewBox="0 0 11.5 14" refX="11.5" refY="7" markerUnits="userSpaceOnUse" markerWidth="10.5" markerHeight="14" orient="auto"><path d="M 0 0 L 11.5 7 L 0 14 z" class="arrowMarkerPath" style="stroke-width: 0; stroke-dasharray: 1, 0;"/></marker><marker id="t-incident-response-dfir--alert-triage-escalate-tune-hunt_flowchart-v2-pointStart-margin" class="marker flowchart-v2" viewBox="0 0 11.5 14" refX="1" refY="7" markerUnits="userSpaceOnUse" markerWidth="11.5" markerHeight="14" orient="auto"><polygon points="0,7 11.5,14 11.5,0" class="arrowMarkerPath" style="stroke-width: 0; stroke-dasharray: 1, 0;"/></marker><marker id="t-incident-response-dfir--alert-triage-escalate-tune-hunt_flowchart-v2-circleEnd" class="marker flowchart-v2" viewBox="0 0 10 10" refX="11" refY="5" markerUnits="userSpaceOnUse" markerWidth="11" markerHeight="11" orient="auto"><circle cx="5" cy="5" r="5" class="arrowMarkerPath" style="stroke-width: 1; stroke-dasharray: 1, 0;"/></marker><marker id="t-incident-response-dfir--alert-triage-escalate-tune-hunt_flowchart-v2-circleStart" class="marker flowchart-v2" viewBox="0 0 10 10" refX="-1" refY="5" markerUnits="userSpaceOnUse" markerWidth="11" markerHeight="11" orient="auto"><circle cx="5" cy="5" r="5" class="arrowMarkerPath" style="stroke-width: 1; stroke-dasharray: 1, 0;"/></marker><marker id="t-incident-response-dfir--alert-triage-escalate-tune-hunt_flowchart-v2-circleEnd-margin" class="marker flowchart-v2" viewBox="0 0 10 10" refY="5" refX="12.25" markerUnits="userSpaceOnUse" markerWidth="14" markerHeight="14" orient="auto"><circle cx="5" cy="5" r="5" class="arrowMarkerPath" style="stroke-width: 0; stroke-dasharray: 1, 0;"/></marker><marker id="t-incident-response-dfir--alert-triage-escalate-tune-hunt_flowchart-v2-circleStart-margin" class="marker flowchart-v2" viewBox="0 0 10 10" refX="-2" refY="5" markerUnits="userSpaceOnUse" markerWidth="14" markerHeight="14" orient="auto"><circle cx="5" cy="5" r="5" class="arrowMarkerPath" style="stroke-width: 0; stroke-dasharray: 1, 0;"/></marker><marker id="t-incident-response-dfir--alert-triage-escalate-tune-hunt_flowchart-v2-crossEnd" class="marker cross flowchart-v2" viewBox="0 0 11 11" refX="12" refY="5.2" markerUnits="userSpaceOnUse" markerWidth="11" markerHeight="11" orient="auto"><path d="M 1,1 l 9,9 M 10,1 l -9,9" class="arrowMarkerPath" style="stroke-width: 2; stroke-dasharray: 1, 0;"/></marker><marker id="t-incident-response-dfir--alert-triage-escalate-tune-hunt_flowchart-v2-crossStart" class="marker cross flowchart-v2" viewBox="0 0 11 11" refX="-1" refY="5.2" markerUnits="userSpaceOnUse" markerWidth="11" markerHeight="11" orient="auto"><path d="M 1,1 l 9,9 M 10,1 l -9,9" class="arrowMarkerPath" style="stroke-width: 2; stroke-dasharray: 1, 0;"/></marker><marker id="t-incident-response-dfir--alert-triage-escalate-tune-hunt_flowchart-v2-crossEnd-margin" class="marker cross flowchart-v2" viewBox="0 0 15 15" refX="17.7" refY="7.5" markerUnits="userSpaceOnUse" markerWidth="12" markerHeight="12" orient="auto"><path d="M 1,1 L 14,14 M 1,14 L 14,1" class="arrowMarkerPath" style="stroke-width: 2.5;"/></marker><marker id="t-incident-response-dfir--alert-triage-escalate-tune-hunt_flowchart-v2-crossStart-margin" class="marker cross flowchart-v2" viewBox="0 0 15 15" refX="-3.5" refY="7.5" markerUnits="userSpaceOnUse" markerWidth="12" markerHeight="12" orient="auto"><path d="M 1,1 L 14,14 M 1,14 L 14,1" class="arrowMarkerPath" style="stroke-width: 2.5; stroke-dasharray: 1, 0;"/></marker><g class="root"><g class="clusters"/><g class="edgePaths"><path d="M349,47.5L348.917,51.583C348.833,55.667,348.667,63.833,348.583,71.417C348.5,79,348.5,86,348.5,89.5L348.5,93" id="t-incident-response-dfir--alert-triage-escalate-tune-hunt-L_A_T_0" class="edge-thickness-normal edge-pattern-solid edge-thickness-normal edge-pattern-solid flowchart-link" style=";" data-edge="true" data-et="edge" data-id="L_A_T_0" data-points="W3sieCI6MzQ5LCJ5Ijo0Ny40OTk5OTk5OTk5OTk5NjR9LHsieCI6MzQ4LjUsInkiOjcyfSx7IngiOjM0OC41LCJ5Ijo5N31d" data-look="classic" marker-end="url(#t-incident-response-dfir--alert-triage-escalate-tune-hunt_flowchart-v2-pointEnd)"/><path d="M281.705,260.283L257.754,277.582C233.803,294.882,185.902,329.48,161.951,352.279C138,375.078,138,386.078,138,391.578L138,397.078" id="t-incident-response-dfir--alert-triage-escalate-tune-hunt-L_T_TUNE_0" class="edge-thickness-normal edge-pattern-solid edge-thickness-normal edge-pattern-solid flowchart-link" style=";" data-edge="true" data-et="edge" data-id="L_T_TUNE_0" data-points="W3sieCI6MjgxLjcwNTIwNDE4MDU4Mzk2LCJ5IjoyNjAuMjgzMzI5MTgwNTgzOTZ9LHsieCI6MTM4LCJ5IjozNjQuMDc4MTI1fSx7IngiOjEzOCwieSI6NDAxLjA3ODEyNX1d" data-look="classic" marker-end="url(#t-incident-response-dfir--alert-triage-escalate-tune-hunt_flowchart-v2-pointEnd)"/><path d="M348.5,327.078L348.5,333.245C348.5,339.411,348.5,351.745,348.5,374.578C348.5,397.411,348.5,430.745,348.5,462.078C348.5,493.411,348.5,522.745,359.056,547.621C369.612,572.497,390.724,592.917,401.28,603.126L411.836,613.336" id="t-incident-response-dfir--alert-triage-escalate-tune-hunt-L_T_SEV_0" class="edge-thickness-normal edge-pattern-solid edge-thickness-normal edge-pattern-solid flowchart-link" style=";" data-edge="true" data-et="edge" data-id="L_T_SEV_0" data-points="W3sieCI6MzQ4LjUsInkiOjMyNy4wNzgxMjV9LHsieCI6MzQ4LjUsInkiOjM2NC4wNzgxMjV9LHsieCI6MzQ4LjUsInkiOjQ2NC4wNzgxMjV9LHsieCI6MzQ4LjUsInkiOjU1Mi4wNzgxMjV9LHsieCI6NDE0LjcxMTE1Mzg3NTE3OTIsInkiOjYxNi4xMTY5NzExMjQ4MjA4fV0=" data-look="classic" marker-end="url(#t-incident-response-dfir--alert-triage-escalate-tune-hunt_flowchart-v2-pointEnd)"/><path d="M415.295,260.283L439.246,277.582C463.197,294.882,511.098,329.48,535.049,352.279C559,375.078,559,386.078,559,391.578L559,397.078" id="t-incident-response-dfir--alert-triage-escalate-tune-hunt-L_T_ENRICH_0" class="edge-thickness-normal edge-pattern-solid edge-thickness-normal edge-pattern-solid flowchart-link" style=";" data-edge="true" data-et="edge" data-id="L_T_ENRICH_0" data-points="W3sieCI6NDE1LjI5NDc5NTgxOTQxNjA0LCJ5IjoyNjAuMjgzMzI5MTgwNTgzOTZ9LHsieCI6NTU5LCJ5IjozNjQuMDc4MTI1fSx7IngiOjU1OSwieSI6NDAxLjA3ODEyNX1d" data-look="classic" marker-end="url(#t-incident-response-dfir--alert-triage-escalate-tune-hunt_flowchart-v2-pointEnd)"/><path d="M559,527.078L559,531.245C559,535.411,559,543.745,548.444,558.121C537.888,572.497,516.776,592.917,506.22,603.126L495.664,613.336" id="t-incident-response-dfir--alert-triage-escalate-tune-hunt-L_ENRICH_SEV_0" class="edge-thickness-normal edge-pattern-solid edge-thickness-normal edge-pattern-solid flowchart-link" style=";" data-edge="true" data-et="edge" data-id="L_ENRICH_SEV_0" data-points="W3sieCI6NTU5LCJ5Ijo1MjcuMDc4MTI1fSx7IngiOjU1OSwieSI6NTUyLjA3ODEyNX0seyJ4Ijo0OTIuNzg4ODQ2MTI0ODIwOCwieSI6NjE2LjExNjk3MTEyNDgyMDh9XQ==" data-look="classic" marker-end="url(#t-incident-response-dfir--alert-triage-escalate-tune-hunt_flowchart-v2-pointEnd)"/><path d="M398.482,675.404L359.005,690.782C319.529,706.16,240.575,736.916,201.098,777.267C161.621,817.617,161.621,867.563,161.621,917.508C161.621,967.453,161.621,1017.398,161.621,1047.871C161.621,1078.344,161.621,1089.344,161.621,1094.844L161.621,1100.344" id="t-incident-response-dfir--alert-triage-escalate-tune-hunt-L_SEV_INC_0" class="edge-thickness-normal edge-pattern-solid edge-thickness-normal edge-pattern-solid flowchart-link" style=";" data-edge="true" data-et="edge" data-id="L_SEV_INC_0" data-points="W3sieCI6Mzk4LjQ4MjI5MzExMDEyNjM2LCJ5Ijo2NzUuNDA0MTY4MTEwMTI2M30seyJ4IjoxNjEuNjIxMDkzNzUsInkiOjc2Ny42NzE4NzV9LHsieCI6MTYxLjYyMTA5Mzc1LCJ5Ijo5MTcuNTA3ODEyNX0seyJ4IjoxNjEuNjIxMDkzNzUsInkiOjEwNjcuMzQzNzV9LHsieCI6MTYxLjYyMTA5Mzc1LCJ5IjoxMTA0LjM0Mzc1fV0=" data-look="classic" marker-end="url(#t-incident-response-dfir--alert-triage-escalate-tune-hunt_flowchart-v2-pointEnd)"/><path d="M498.034,686.387L516.487,699.935C534.94,713.482,571.845,740.577,590.297,759.624C608.75,778.672,608.75,789.672,608.75,795.172L608.75,800.672" id="t-incident-response-dfir--alert-triage-escalate-tune-hunt-L_SEV_HUNT_0" class="edge-thickness-normal edge-pattern-solid edge-thickness-normal edge-pattern-solid flowchart-link" style=";" data-edge="true" data-et="edge" data-id="L_SEV_HUNT_0" data-points="W3sieCI6NDk4LjAzNDQyNzEzNDgwMjA2LCJ5Ijo2ODYuMzg3NDQ3ODY1MTk3OX0seyJ4Ijo2MDguNzUsInkiOjc2Ny42NzE4NzV9LHsieCI6NjA4Ljc1LCJ5Ijo4MDQuNjcxODc1fV0=" data-look="classic" marker-end="url(#t-incident-response-dfir--alert-triage-escalate-tune-hunt_flowchart-v2-pointEnd)"/><path d="M554.83,976.424L540.962,991.577C527.094,1006.731,499.357,1037.037,485.489,1057.69C471.621,1078.344,471.621,1089.344,471.621,1094.844L471.621,1100.344" id="t-incident-response-dfir--alert-triage-escalate-tune-hunt-L_HUNT_DET_0" class="edge-thickness-normal edge-pattern-solid edge-thickness-normal edge-pattern-solid flowchart-link" style=";" data-edge="true" data-et="edge" data-id="L_HUNT_DET_0" data-points="W3sieCI6NTU0LjgzMDI2MzcyNTQ0NjgsInkiOjk3Ni40MjQwMTM3MjU0NDY4fSx7IngiOjQ3MS42MjEwOTM3NSwieSI6MTA2Ny4zNDM3NX0seyJ4Ijo0NzEuNjIxMDkzNzUsInkiOjExMDQuMzQzNzV9XQ==" data-look="classic" marker-end="url(#t-incident-response-dfir--alert-triage-escalate-tune-hunt_flowchart-v2-pointEnd)"/><path d="M662.67,976.424L676.538,991.577C690.406,1006.731,718.143,1037.037,732.011,1061.69C745.879,1086.344,745.879,1105.344,745.879,1114.844L745.879,1124.344" id="t-incident-response-dfir--alert-triage-escalate-tune-hunt-L_HUNT_DOC_0" class="edge-thickness-normal edge-pattern-solid edge-thickness-normal edge-pattern-solid flowchart-link" style=";" data-edge="true" data-et="edge" data-id="L_HUNT_DOC_0" data-points="W3sieCI6NjYyLjY2OTczNjI3NDU1MzIsInkiOjk3Ni40MjQwMTM3MjU0NDY4fSx7IngiOjc0NS44Nzg5MDYyNSwieSI6MTA2Ny4zNDM3NX0seyJ4Ijo3NDUuODc4OTA2MjUsInkiOjExMjguMzQzNzV9XQ==" data-look="classic" marker-end="url(#t-incident-response-dfir--alert-triage-escalate-tune-hunt_flowchart-v2-pointEnd)"/><path d="M161.621,1206.344L161.621,1210.51C161.621,1214.677,161.621,1223.01,178.354,1239.512C195.087,1256.013,228.553,1280.683,245.286,1293.017L262.02,1305.352" id="t-incident-response-dfir--alert-triage-escalate-tune-hunt-L_INC_GAP_0" class="edge-thickness-normal edge-pattern-solid edge-thickness-normal edge-pattern-solid flowchart-link" style=";" data-edge="true" data-et="edge" data-id="L_INC_GAP_0" data-points="W3sieCI6MTYxLjYyMTA5Mzc1LCJ5IjoxMjA2LjM0Mzc1fSx7IngiOjE2MS42MjEwOTM3NSwieSI6MTIzMS4zNDM3NX0seyJ4IjoyNjUuMjM5MjU3MTA0MTI3NCwieSI6MTMwNy43MjU1ODY2NDU4NzI3fV0=" data-look="classic" marker-end="url(#t-incident-response-dfir--alert-triage-escalate-tune-hunt_flowchart-v2-pointEnd)"/><path d="M471.621,1206.344L471.621,1210.51C471.621,1214.677,471.621,1223.01,454.888,1239.512C438.155,1256.013,404.689,1280.683,387.956,1293.017L371.223,1305.352" id="t-incident-response-dfir--alert-triage-escalate-tune-hunt-L_DET_GAP_0" class="edge-thickness-normal edge-pattern-solid edge-thickness-normal edge-pattern-solid flowchart-link" style=";" data-edge="true" data-et="edge" data-id="L_DET_GAP_0" data-points="W3sieCI6NDcxLjYyMTA5Mzc1LCJ5IjoxMjA2LjM0Mzc1fSx7IngiOjQ3MS42MjEwOTM3NSwieSI6MTIzMS4zNDM3NX0seyJ4IjozNjguMDAyOTMwMzk1ODcyNiwieSI6MTMwNy43MjU1ODY2NDU4NzI3fV0=" data-look="classic" marker-end="url(#t-incident-response-dfir--alert-triage-escalate-tune-hunt_flowchart-v2-pointEnd)"/><path d="M316.621,1434.859L316.621,1441.026C316.621,1447.193,316.621,1459.526,316.621,1471.193C316.621,1482.859,316.621,1493.859,316.621,1499.359L316.621,1504.859" id="t-incident-response-dfir--alert-triage-escalate-tune-hunt-L_GAP_PROHUNT_0" class="edge-thickness-normal edge-pattern-solid edge-thickness-normal edge-pattern-solid flowchart-link" style=";" data-edge="true" data-et="edge" data-id="L_GAP_PROHUNT_0" data-points="W3sieCI6MzE2LjYyMTA5Mzc1LCJ5IjoxNDM0Ljg1OTM3NX0seyJ4IjozMTYuNjIxMDkzNzUsInkiOjE0NzEuODU5Mzc1fSx7IngiOjMxNi42MjEwOTM3NSwieSI6MTUwOC44NTkzNzV9XQ==" data-look="classic" marker-end="url(#t-incident-response-dfir--alert-triage-escalate-tune-hunt_flowchart-v2-pointEnd)"/></g><g class="edgeLabels"><g class="edgeLabel"><g class="label" data-id="L_A_T_0" transform="translate(0, 0)"><foreignObject width="0" height="0"><div xmlns="http://www.w3.org/1999/xhtml" class="labelBkg" style="display: table-cell; white-space: nowrap; line-height: 1.5; max-width: 200px; text-align: center;"><span class="edgeLabel"></span></div></foreignObject></g></g><g class="edgeLabel" transform="translate(138, 364.078125)"><g class="label" data-id="L_T_TUNE_0" transform="translate(-48.9140625, -12)"><foreignObject width="97.828125" height="24"><div xmlns="http://www.w3.org/1999/xhtml" class="labelBkg" style="display: table-cell; white-space: nowrap; line-height: 1.5; max-width: 200px; text-align: center;"><span class="edgeLabel"><p>False positive</p></span></div></foreignObject></g></g><g class="edgeLabel" transform="translate(348.5, 464.078125)"><g class="label" data-id="L_T_SEV_0" transform="translate(-45.5, -12)"><foreignObject width="91" height="24"><div xmlns="http://www.w3.org/1999/xhtml" class="labelBkg" style="display: table-cell; white-space: nowrap; line-height: 1.5; max-width: 200px; text-align: center;"><span class="edgeLabel"><p>True positive</p></span></div></foreignObject></g></g><g class="edgeLabel" transform="translate(559, 364.078125)"><g class="label" data-id="L_T_ENRICH_0" transform="translate(-27.5703125, -12)"><foreignObject width="55.140625" height="24"><div xmlns="http://www.w3.org/1999/xhtml" class="labelBkg" style="display: table-cell; white-space: nowrap; line-height: 1.5; max-width: 200px; text-align: center;"><span class="edgeLabel"><p>Unclear</p></span></div></foreignObject></g></g><g class="edgeLabel"><g class="label" data-id="L_ENRICH_SEV_0" transform="translate(0, 0)"><foreignObject width="0" height="0"><div xmlns="http://www.w3.org/1999/xhtml" class="labelBkg" style="display: table-cell; white-space: nowrap; line-height: 1.5; max-width: 200px; text-align: center;"><span class="edgeLabel"></span></div></foreignObject></g></g><g class="edgeLabel" transform="translate(161.62109375, 917.5078125)"><g class="label" data-id="L_SEV_INC_0" transform="translate(-13.0546875, -12)"><foreignObject width="26.109375" height="24"><div xmlns="http://www.w3.org/1999/xhtml" class="labelBkg" style="display: table-cell; white-space: nowrap; line-height: 1.5; max-width: 200px; text-align: center;"><span class="edgeLabel"><p>Yes</p></span></div></foreignObject></g></g><g class="edgeLabel" transform="translate(608.75, 767.671875)"><g class="label" data-id="L_SEV_HUNT_0" transform="translate(-67.609375, -12)"><foreignObject width="135.21875" height="24"><div xmlns="http://www.w3.org/1999/xhtml" class="labelBkg" style="display: table-cell; white-space: nowrap; line-height: 1.5; max-width: 200px; text-align: center;"><span class="edgeLabel"><p>Benign-but-notable</p></span></div></foreignObject></g></g><g class="edgeLabel" transform="translate(471.62109375, 1067.34375)"><g class="label" data-id="L_HUNT_DET_0" transform="translate(-13.0546875, -12)"><foreignObject width="26.109375" height="24"><div xmlns="http://www.w3.org/1999/xhtml" class="labelBkg" style="display: table-cell; white-space: nowrap; line-height: 1.5; max-width: 200px; text-align: center;"><span class="edgeLabel"><p>Yes</p></span></div></foreignObject></g></g><g class="edgeLabel" transform="translate(745.87890625, 1067.34375)"><g class="label" data-id="L_HUNT_DOC_0" transform="translate(-10.2265625, -12)"><foreignObject width="20.453125" height="24"><div xmlns="http://www.w3.org/1999/xhtml" class="labelBkg" style="display: table-cell; white-space: nowrap; line-height: 1.5; max-width: 200px; text-align: center;"><span class="edgeLabel"><p>No</p></span></div></foreignObject></g></g><g class="edgeLabel"><g class="label" data-id="L_INC_GAP_0" transform="translate(0, 0)"><foreignObject width="0" height="0"><div xmlns="http://www.w3.org/1999/xhtml" class="labelBkg" style="display: table-cell; white-space: nowrap; line-height: 1.5; max-width: 200px; text-align: center;"><span class="edgeLabel"></span></div></foreignObject></g></g><g class="edgeLabel"><g class="label" data-id="L_DET_GAP_0" transform="translate(0, 0)"><foreignObject width="0" height="0"><div xmlns="http://www.w3.org/1999/xhtml" class="labelBkg" style="display: table-cell; white-space: nowrap; line-height: 1.5; max-width: 200px; text-align: center;"><span class="edgeLabel"></span></div></foreignObject></g></g><g class="edgeLabel" transform="translate(316.62109375, 1471.859375)"><g class="label" data-id="L_GAP_PROHUNT_0" transform="translate(-13.0546875, -12)"><foreignObject width="26.109375" height="24"><div xmlns="http://www.w3.org/1999/xhtml" class="labelBkg" style="display: table-cell; white-space: nowrap; line-height: 1.5; max-width: 200px; text-align: center;"><span class="edgeLabel"><p>Yes</p></span></div></foreignObject></g></g></g><g class="nodes"><g class="node default" id="t-incident-response-dfir--alert-triage-escalate-tune-hunt-flowchart-A-0" data-look="classic" transform="translate(348.5, 27.5)"><g class="basic label-container outer-path"><path d="M-26.6640625 -19.5 C-8.558894657672745 -19.5, 9.54627318465451 -19.5, 26.6640625 -19.5 C26.6640625 -19.5, 26.6640625 -19.5, 26.6640625 -19.5 C26.93503554019576 -19.49131042201795, 27.206008580391515 -19.482620844035896, 27.9134317896239 -19.45993515863156 C28.28986907567584 -19.423620706378202, 28.666306361727774 -19.387306254124844, 29.157667152847864 -19.3399052695533 C29.480316321964544 -19.28774185407219, 29.802965491081224 -19.235578438591084, 30.39165575967676 -19.140403561325776 C30.81399344087469 -19.04400774160328, 31.23633112207262 -18.947611921880785, 31.61032688623539 -18.862249829261074 C31.87725578058729 -18.78302673455579, 32.14418467493919 -18.703803639850506, 32.808672751460605 -18.50658706670804 C33.06314597652933 -18.412938567558044, 33.31761920159805 -18.319290068408048, 33.9817690951478 -18.074876768247425 C34.36286238104454 -17.906178075311605, 34.74395566694129 -17.737479382375785, 35.12479541279238 -17.568892924097174 C35.49305605309744 -17.37677158393222, 35.86131669340251 -17.18465024376727, 36.23305476407678 -16.990714730406097 C36.60196293860563 -16.767080427061636, 36.97087111313448 -16.543446123717178, 37.3019930736057 -16.342718045390892 C37.53413216406449 -16.180787865026105, 37.766271254523275 -16.018857684661317, 38.32721784457871 -15.627565626425154 C38.61882607826353 -15.395015820082511, 38.91043431194834 -15.162466013739866, 39.304516208501866 -14.848196188198123 C39.65685192105266 -14.528214216351598, 40.00918763360347 -14.208232244505073, 40.22987223676799 -14.007812326905688 C40.5452265155966 -13.68218314294734, 40.86058079442522 -13.356553958988993, 41.09948344296865 -13.10986736009568 C41.3977235545241 -12.759537554719552, 41.69596366607955 -12.409207749343423, 41.90977640812658 -12.158051136245305 C42.17592660711457 -11.801434116383328, 42.44207680610256 -11.444817096521351, 42.657421464640635 -11.156274872382312 C42.82410791825637 -10.90019971804854, 42.9907943718721 -10.644124563714769, 43.33934637860425 -10.108655082055241 C43.52441270483789 -9.780051079829775, 43.709479031071545 -9.451447077604309, 43.952748974273504 -9.019496659696287 C44.07318090483311 -8.769417179058753, 44.19361283539271 -8.519337698421218, 44.49510864880834 -7.893275190886684 C44.60374847865131 -7.624932710766329, 44.71238830849428 -7.356590230645974, 44.964196729970325 -6.734618561215508 C45.07402166501414 -6.403843355090623, 45.18384660005796 -6.073068148965737, 45.35808563421488 -5.548287939305138 C45.42988453750687 -5.274487603211246, 45.501683440798864 -5.000687267117353, 45.67515678754556 -4.339158212148133 C45.73816723136825 -4.015612900380627, 45.80117767519094 -3.6920675886131207, 45.914107276581774 -3.1121979531509023 C45.96441550187679 -2.7220172922454795, 46.01472372717181 -2.3318366313400567, 46.07395520250937 -1.872449005199798 C46.09196925849306 -1.5918655425695005, 46.10998331447676 -1.311282079939203, 46.15404371591342 -0.6250057626472757 C46.15404371591342 -0.1609769904236058, 46.15404371591342 0.3030517818000641, 46.15404371591342 0.625005762647271 C46.134345718673984 0.9318179695886211, 46.11464772143455 1.2386301765299712, 46.07395520250937 1.8724490051997846 C46.01371993751695 2.3396218256824453, 45.953484672524546 2.806794646165106, 45.914107276581774 3.1121979531508885 C45.83167117162038 3.535489929250702, 45.74923506665898 3.9587819053505147, 45.67515678754556 4.339158212148129 C45.56804674352687 4.747615231778115, 45.46093669950819 5.156072251408101, 45.35808563421489 5.548287939305125 C45.23940985266702 5.90572048490932, 45.12073407111915 6.263153030513516, 44.964196729970325 6.734618561215495 C44.85195018712672 7.011869692178472, 44.73970364428312 7.28912082314145, 44.49510864880834 7.893275190886679 C44.36329858805968 8.16698160231478, 44.231488527311015 8.44068801374288, 43.952748974273504 9.019496659696284 C43.748067907156674 9.382928620567732, 43.543386840039844 9.74636058143918, 43.33934637860425 10.108655082055236 C43.06735266379727 10.526510468537817, 42.7953589489903 10.944365855020399, 42.65742146464064 11.156274872382301 C42.447220027662404 11.437925648188282, 42.23701859068417 11.71957642399426, 41.90977640812658 12.158051136245302 C41.71574543669797 12.385970955960387, 41.52171446526937 12.613890775675474, 41.09948344296866 13.10986736009567 C40.885669343672255 13.330647972083229, 40.67185524437585 13.551428584070788, 40.22987223676799 14.007812326905684 C39.91970341166585 14.289499447246042, 39.60953458656372 14.571186567586398, 39.30451620850189 14.848196188198111 C38.97651651905025 15.10976721209748, 38.64851682959862 15.371338235996852, 38.32721784457871 15.627565626425152 C38.09002231613771 15.793022959036662, 37.852826787696706 15.95848029164817, 37.30199307360571 16.34271804539089 C36.934785184949675 16.565321625447258, 36.56757729629364 16.787925205503626, 36.23305476407678 16.990714730406093 C35.913641304619304 17.157352527610975, 35.594227845161825 17.32399032481586, 35.12479541279239 17.56889292409717 C34.807598154763824 17.709306740904072, 34.49040089673526 17.84972055771097, 33.981769095147804 18.07487676824742 C33.61126021930797 18.211227459502982, 33.24075134346813 18.347578150758547, 32.80867275146062 18.506587066708033 C32.4844295414671 18.602820749446767, 32.16018633147359 18.699054432185505, 31.610326886235413 18.86224982926107 C31.25382264562343 18.94361959577317, 30.897318405011447 19.02498936228527, 30.391655759676766 19.140403561325773 C29.917030330526533 19.217137319935606, 29.442404901376296 19.293871078545443, 29.15766715284788 19.3399052695533 C28.807413007071073 19.373693865754145, 28.45715886129427 19.407482461954995, 27.9134317896239 19.45993515863156 C27.42333572356553 19.47565158555593, 26.933239657507162 19.491368012480297, 26.664062500000004 19.5 C26.664062500000004 19.5, 26.6640625 19.5, 26.6640625 19.5 C14.682721526693843 19.5, 2.7013805533876862 19.5, -26.664062499999996 19.5 C-26.996993128390795 19.48932356275766, -27.32992375678159 19.478647125515327, -27.913431789623893 19.45993515863156 C-28.337456785545495 19.41902997723967, -28.761481781467097 19.378124795847782, -29.15766715284787 19.3399052695533 C-29.464251880820946 19.290339028334685, -29.77083660879402 19.240772787116075, -30.39165575967676 19.140403561325773 C-30.827850636580123 19.040844927110165, -31.264045513483488 18.941286292894556, -31.610326886235388 18.862249829261074 C-32.080760163328556 18.722627701974485, -32.55119344042172 18.583005574687895, -32.80867275146059 18.506587066708043 C-33.22611464035328 18.352964592805012, -33.64355652924598 18.19934211890198, -33.9817690951478 18.074876768247425 C-34.32214414235843 17.924202831714307, -34.66251918956907 17.773528895181194, -35.12479541279238 17.568892924097174 C-35.531032879664096 17.356959097837716, -35.93727034653581 17.145025271578263, -36.23305476407678 16.990714730406097 C-36.49850888241251 16.829794883889427, -36.76396300074823 16.668875037372757, -37.301993073605686 16.3427180453909 C-37.508700124567184 16.198528154844176, -37.71540717552868 16.054338264297453, -38.32721784457871 15.627565626425156 C-38.667548647917506 15.356160867345494, -39.0078794512563 15.084756108265832, -39.304516208501866 14.848196188198125 C-39.52662015712004 14.646487258611552, -39.74872410573822 14.444778329024981, -40.229872236767974 14.007812326905697 C-40.53696436252296 13.69071449433126, -40.84405648827794 13.373616661756824, -41.099483442968655 13.109867360095677 C-41.41290625602602 12.741703089615209, -41.726329069083384 12.37353881913474, -41.909776408126575 12.158051136245307 C-42.07528507627858 11.936284599071476, -42.24079374443059 11.714518061897643, -42.657421464640635 11.156274872382316 C-42.80867264241396 10.92391244669439, -42.95992382018729 10.691550021006464, -43.33934637860425 10.108655082055249 C-43.52611397934806 9.777030294664259, -43.712881580091874 9.44540550727327, -43.952748974273504 9.019496659696289 C-44.09073837122064 8.732958724435456, -44.228727768167765 8.446420789174622, -44.49510864880834 7.893275190886686 C-44.61483212381812 7.597555892916609, -44.7345555988279 7.301836594946532, -44.964196729970325 6.73461856121551 C-45.04704511977093 6.485092411234405, -45.129893509571524 6.235566261253299, -45.35808563421488 5.5482879393051325 C-45.42499917516931 5.29311760713378, -45.49191271612375 5.037947274962428, -45.67515678754556 4.339158212148136 C-45.72320906861947 4.092419904686834, -45.77126134969337 3.8456815972255325, -45.914107276581774 3.112197953150904 C-45.955190731167754 2.7935627922277924, -45.996274185753734 2.4749276313046806, -46.07395520250937 1.872449005199809 C-46.10234891948225 1.430193944351267, -46.13074263645514 0.9879388835027252, -46.15404371591342 0.6250057626472781 C-46.15404371591342 0.18436426882261558, -46.15404371591342 -0.25627722500204697, -46.15404371591342 -0.6250057626472687 C-46.130415449986685 -0.9930350768491041, -46.106787184059954 -1.3610643910509395, -46.07395520250937 -1.8724490051997822 C-46.022432227488444 -2.2720510250998256, -45.97090925246752 -2.671653044999869, -45.914107276581774 -3.112197953150895 C-45.83727614855023 -3.506709557328198, -45.760445020518695 -3.901221161505501, -45.67515678754556 -4.339158212148126 C-45.550731376656074 -4.813646230183956, -45.42630596576658 -5.288134248219785, -45.35808563421489 -5.548287939305123 C-45.24214331544226 -5.89748773054845, -45.12620099666963 -6.2466875217917766, -44.96419672997033 -6.734618561215485 C-44.83268789635852 -7.059447922786982, -44.70117906274671 -7.38427728435848, -44.49510864880834 -7.893275190886676 C-44.32039392903741 -8.256074044787166, -44.14567920926647 -8.618872898687654, -43.952748974273504 -9.019496659696282 C-43.80145844670228 -9.288128311226139, -43.65016791913105 -9.556759962755995, -43.33934637860425 -10.108655082055243 C-43.0901317720052 -10.491515641283428, -42.84091716540615 -10.874376200511612, -42.65742146464064 -11.156274872382308 C-42.46623693491832 -11.412444724941256, -42.275052405196 -11.668614577500204, -41.90977640812659 -12.158051136245302 C-41.599680340594176 -12.52230762213498, -41.289584273061756 -12.886564108024658, -41.09948344296866 -13.10986736009567 C-40.826636301602385 -13.39160443472326, -40.553789160236114 -13.673341509350848, -40.229872236767996 -14.007812326905677 C-39.89325238155018 -14.313521572941191, -39.55663252633236 -14.619230818976703, -39.30451620850189 -14.848196188198107 C-38.951431526045724 -15.129771826478896, -38.59834684358955 -15.411347464759684, -38.32721784457872 -15.627565626425149 C-37.99906236280741 -15.856472684886965, -37.6709068810361 -16.08537974334878, -37.301993073605715 -16.342718045390885 C-36.99188715097295 -16.530706078075546, -36.68178122834019 -16.71869411076021, -36.23305476407679 -16.99071473040609 C-35.96624266380003 -17.12991043221917, -35.699430563523265 -17.26910613403225, -35.12479541279239 -17.56889292409717 C-34.78200687341766 -17.72063524201763, -34.43921833404293 -17.872377559938087, -33.981769095147804 -18.07487676824742 C-33.570864336009315 -18.22609351797234, -33.159959576870826 -18.37731026769726, -32.80867275146062 -18.506587066708033 C-32.555466307413646 -18.581737410193426, -32.30225986336667 -18.656887753678824, -31.610326886235413 -18.862249829261067 C-31.253245774685322 -18.943751262800358, -30.896164663135234 -19.025252696339646, -30.391655759676766 -19.140403561325773 C-30.057741593348116 -19.194388214194756, -29.72382742701946 -19.248372867063736, -29.157667152847882 -19.3399052695533 C-28.894200775560737 -19.365321554105513, -28.630734398273592 -19.390737838657724, -27.913431789623903 -19.45993515863156 C-27.476143540062495 -19.47395814166505, -27.038855290501083 -19.487981124698543, -26.664062500000007 -19.5 C-26.664062500000004 -19.5, -26.664062500000004 -19.5, -26.6640625 -19.5" stroke="none" stroke-width="0" fill="#ECECFF" style=""/><path d="M-26.6640625 -19.5 C-5.347517921916253 -19.5, 15.969026656167493 -19.5, 26.6640625 -19.5 M-26.6640625 -19.5 C-5.949567480082166 -19.5, 14.764927539835668 -19.5, 26.6640625 -19.5 M26.6640625 -19.5 C26.6640625 -19.5, 26.6640625 -19.5, 26.6640625 -19.5 M26.6640625 -19.5 C26.6640625 -19.5, 26.6640625 -19.5, 26.6640625 -19.5 M26.6640625 -19.5 C26.93499581656285 -19.49131169587754, 27.205929133125704 -19.482623391755077, 27.9134317896239 -19.45993515863156 M26.6640625 -19.5 C27.093275231735365 -19.486235983105146, 27.52248796347073 -19.472471966210296, 27.9134317896239 -19.45993515863156 M27.9134317896239 -19.45993515863156 C28.219990445404754 -19.430361813799106, 28.526549101185612 -19.40078846896665, 29.157667152847864 -19.3399052695533 M27.9134317896239 -19.45993515863156 C28.23478698256016 -19.428934409655163, 28.556142175496415 -19.397933660678767, 29.157667152847864 -19.3399052695533 M29.157667152847864 -19.3399052695533 C29.646318509360743 -19.260903907780165, 30.13496986587362 -19.18190254600703, 30.39165575967676 -19.140403561325776 M29.157667152847864 -19.3399052695533 C29.59429494804476 -19.26931467372499, 30.03092274324165 -19.19872407789668, 30.39165575967676 -19.140403561325776 M30.39165575967676 -19.140403561325776 C30.712777700779075 -19.067109573785675, 31.033899641881394 -18.99381558624557, 31.61032688623539 -18.862249829261074 M30.39165575967676 -19.140403561325776 C30.64847556913092 -19.08178611572374, 30.90529537858508 -19.02316867012171, 31.61032688623539 -18.862249829261074 M31.61032688623539 -18.862249829261074 C32.011431660002366 -18.743204037848958, 32.41253643376934 -18.624158246436842, 32.808672751460605 -18.50658706670804 M31.61032688623539 -18.862249829261074 C31.92675417994245 -18.76833586944958, 32.24318147364951 -18.67442190963808, 32.808672751460605 -18.50658706670804 M32.808672751460605 -18.50658706670804 C33.183962716526096 -18.36847689042153, 33.55925268159159 -18.23036671413502, 33.9817690951478 -18.074876768247425 M32.808672751460605 -18.50658706670804 C33.19016381226707 -18.36619482986655, 33.57165487307355 -18.22580259302506, 33.9817690951478 -18.074876768247425 M33.9817690951478 -18.074876768247425 C34.381937510350646 -17.897734081411397, 34.782105925553495 -17.720591394575372, 35.12479541279238 -17.568892924097174 M33.9817690951478 -18.074876768247425 C34.23616744937209 -17.96226216329138, 34.49056580359639 -17.849647558335338, 35.12479541279238 -17.568892924097174 M35.12479541279238 -17.568892924097174 C35.50178704614986 -17.372216630449245, 35.878778679507334 -17.175540336801316, 36.23305476407678 -16.990714730406097 M35.12479541279238 -17.568892924097174 C35.52595633033719 -17.359607530369882, 35.92711724788199 -17.15032213664259, 36.23305476407678 -16.990714730406097 M36.23305476407678 -16.990714730406097 C36.640257178955714 -16.743866233519483, 37.04745959383464 -16.497017736632866, 37.3019930736057 -16.342718045390892 M36.23305476407678 -16.990714730406097 C36.58400937797126 -16.777963981025025, 36.93496399186574 -16.565213231643952, 37.3019930736057 -16.342718045390892 M37.3019930736057 -16.342718045390892 C37.571262397027034 -16.154887421853314, 37.84053172044837 -15.967056798315731, 38.32721784457871 -15.627565626425154 M37.3019930736057 -16.342718045390892 C37.53046883138664 -16.183343247319055, 37.758944589167584 -16.023968449247217, 38.32721784457871 -15.627565626425154 M38.32721784457871 -15.627565626425154 C38.62044167852627 -15.393727421865906, 38.91366551247382 -15.159889217306656, 39.304516208501866 -14.848196188198123 M38.32721784457871 -15.627565626425154 C38.648636966866775 -15.37124242972248, 38.970056089154845 -15.114919233019808, 39.304516208501866 -14.848196188198123 M39.304516208501866 -14.848196188198123 C39.62537117743882 -14.556804194766855, 39.946226146375786 -14.265412201335588, 40.22987223676799 -14.007812326905688 M39.304516208501866 -14.848196188198123 C39.54910182871964 -14.626069999297231, 39.79368744893742 -14.403943810396337, 40.22987223676799 -14.007812326905688 M40.22987223676799 -14.007812326905688 C40.40441869981056 -13.827578773283099, 40.578965162853144 -13.647345219660508, 41.09948344296865 -13.10986736009568 M40.22987223676799 -14.007812326905688 C40.52214796390944 -13.70601364234867, 40.81442369105089 -13.404214957791654, 41.09948344296865 -13.10986736009568 M41.09948344296865 -13.10986736009568 C41.35199806604482 -12.813249315341315, 41.604512689120995 -12.516631270586949, 41.90977640812658 -12.158051136245305 M41.09948344296865 -13.10986736009568 C41.33898725091025 -12.82853255913473, 41.57849105885186 -12.547197758173782, 41.90977640812658 -12.158051136245305 M41.90977640812658 -12.158051136245305 C42.15609330106626 -11.828008939636716, 42.40241019400594 -11.497966743028126, 42.657421464640635 -11.156274872382312 M41.90977640812658 -12.158051136245305 C42.10744997737637 -11.893186561883212, 42.30512354662616 -11.62832198752112, 42.657421464640635 -11.156274872382312 M42.657421464640635 -11.156274872382312 C42.83704480165966 -10.880325191101473, 43.01666813867869 -10.604375509820636, 43.33934637860425 -10.108655082055241 M42.657421464640635 -11.156274872382312 C42.90971215130566 -10.768688628129631, 43.16200283797069 -10.38110238387695, 43.33934637860425 -10.108655082055241 M43.33934637860425 -10.108655082055241 C43.584472733021315 -9.673408418052778, 43.82959908743838 -9.238161754050315, 43.952748974273504 -9.019496659696287 M43.33934637860425 -10.108655082055241 C43.53247945042699 -9.76572775618977, 43.72561252224973 -9.422800430324301, 43.952748974273504 -9.019496659696287 M43.952748974273504 -9.019496659696287 C44.06770568795786 -8.780786584051082, 44.18266240164221 -8.542076508405877, 44.49510864880834 -7.893275190886684 M43.952748974273504 -9.019496659696287 C44.12203590324284 -8.667968729531443, 44.29132283221217 -8.3164407993666, 44.49510864880834 -7.893275190886684 M44.49510864880834 -7.893275190886684 C44.64446851883872 -7.524353424235004, 44.7938283888691 -7.155431657583324, 44.964196729970325 -6.734618561215508 M44.49510864880834 -7.893275190886684 C44.614451769650465 -7.5984953750643704, 44.73379489049258 -7.3037155592420575, 44.964196729970325 -6.734618561215508 M44.964196729970325 -6.734618561215508 C45.04492396520957 -6.491480990813122, 45.125651200448814 -6.2483434204107375, 45.35808563421488 -5.548287939305138 M44.964196729970325 -6.734618561215508 C45.05461545172832 -6.4622917775473345, 45.14503417348631 -6.18996499387916, 45.35808563421488 -5.548287939305138 M45.35808563421488 -5.548287939305138 C45.42183363137005 -5.305189197595755, 45.48558162852521 -5.062090455886372, 45.67515678754556 -4.339158212148133 M45.35808563421488 -5.548287939305138 C45.44263201541694 -5.22587594514829, 45.52717839661899 -4.9034639509914415, 45.67515678754556 -4.339158212148133 M45.67515678754556 -4.339158212148133 C45.769113798352116 -3.8567088194777392, 45.86307080915867 -3.3742594268073454, 45.914107276581774 -3.1121979531509023 M45.67515678754556 -4.339158212148133 C45.72906414343241 -4.062355332992855, 45.78297149931926 -3.7855524538375755, 45.914107276581774 -3.1121979531509023 M45.914107276581774 -3.1121979531509023 C45.967624275176505 -2.697130680176893, 46.021141273771235 -2.2820634072028834, 46.07395520250937 -1.872449005199798 M45.914107276581774 -3.1121979531509023 C45.97291287886382 -2.6561133143309954, 46.031718481145866 -2.200028675511088, 46.07395520250937 -1.872449005199798 M46.07395520250937 -1.872449005199798 C46.0954232366606 -1.5380670446090483, 46.116891270811834 -1.2036850840182987, 46.15404371591342 -0.6250057626472757 M46.07395520250937 -1.872449005199798 C46.10516617159649 -1.3863129686271218, 46.13637714068361 -0.9001769320544459, 46.15404371591342 -0.6250057626472757 M46.15404371591342 -0.6250057626472757 C46.15404371591342 -0.2929031887370668, 46.15404371591342 0.03919938517314214, 46.15404371591342 0.625005762647271 M46.15404371591342 -0.6250057626472757 C46.15404371591342 -0.16403692596095487, 46.15404371591342 0.29693191072536596, 46.15404371591342 0.625005762647271 M46.15404371591342 0.625005762647271 C46.132692683305756 0.9575653297549438, 46.111341650698094 1.2901248968626164, 46.07395520250937 1.8724490051997846 M46.15404371591342 0.625005762647271 C46.12389729673042 1.0945605751740504, 46.09375087754742 1.5641153877008298, 46.07395520250937 1.8724490051997846 M46.07395520250937 1.8724490051997846 C46.03602307296304 2.1666431114148934, 45.998090943416706 2.4608372176300017, 45.914107276581774 3.1121979531508885 M46.07395520250937 1.8724490051997846 C46.03642464694056 2.1635285829449966, 45.998894091371746 2.454608160690209, 45.914107276581774 3.1121979531508885 M45.914107276581774 3.1121979531508885 C45.86274151546069 3.3759502803501986, 45.81137575433961 3.639702607549509, 45.67515678754556 4.339158212148129 M45.914107276581774 3.1121979531508885 C45.83067243781674 3.540618216249943, 45.7472375990517 3.969038479348998, 45.67515678754556 4.339158212148129 M45.67515678754556 4.339158212148129 C45.580087018246246 4.701700445985061, 45.48501724894694 5.064242679821993, 45.35808563421489 5.548287939305125 M45.67515678754556 4.339158212148129 C45.57671973341648 4.714541362431449, 45.4782826792874 5.089924512714768, 45.35808563421489 5.548287939305125 M45.35808563421489 5.548287939305125 C45.20504839015974 6.00921173522569, 45.05201114610459 6.470135531146255, 44.964196729970325 6.734618561215495 M45.35808563421489 5.548287939305125 C45.24685592956007 5.88329408767869, 45.13562622490525 6.218300236052254, 44.964196729970325 6.734618561215495 M44.964196729970325 6.734618561215495 C44.867228506399506 6.974131948188491, 44.77026028282868 7.2136453351614875, 44.49510864880834 7.893275190886679 M44.964196729970325 6.734618561215495 C44.848212250310674 7.0211024683822, 44.73222777065102 7.3075863755489046, 44.49510864880834 7.893275190886679 M44.49510864880834 7.893275190886679 C44.33418439819391 8.227437840514915, 44.17326014757948 8.561600490143151, 43.952748974273504 9.019496659696284 M44.49510864880834 7.893275190886679 C44.283633697811574 8.33240745147056, 44.0721587468148 8.771539712054443, 43.952748974273504 9.019496659696284 M43.952748974273504 9.019496659696284 C43.745065666145415 9.388259403493093, 43.537382358017325 9.757022147289902, 43.33934637860425 10.108655082055236 M43.952748974273504 9.019496659696284 C43.820976910337414 9.253471302583192, 43.68920484640132 9.487445945470101, 43.33934637860425 10.108655082055236 M43.33934637860425 10.108655082055236 C43.09476560387943 10.484396831166512, 42.850184829154614 10.86013858027779, 42.65742146464064 11.156274872382301 M43.33934637860425 10.108655082055236 C43.12932828268827 10.431299275137365, 42.91931018677229 10.753943468219493, 42.65742146464064 11.156274872382301 M42.65742146464064 11.156274872382301 C42.48495476804346 11.387364533783245, 42.31248807144627 11.618454195184189, 41.90977640812658 12.158051136245302 M42.65742146464064 11.156274872382301 C42.36844030219823 11.543483303329642, 42.07945913975582 11.930691734276984, 41.90977640812658 12.158051136245302 M41.90977640812658 12.158051136245302 C41.69245531812119 12.413328854485968, 41.4751342281158 12.668606572726636, 41.09948344296866 13.10986736009567 M41.90977640812658 12.158051136245302 C41.692547848242945 12.41322016333984, 41.47531928835931 12.668389190434379, 41.09948344296866 13.10986736009567 M41.09948344296866 13.10986736009567 C40.758374615341644 13.462090230176148, 40.41726578771462 13.814313100256625, 40.22987223676799 14.007812326905684 M41.09948344296866 13.10986736009567 C40.87793421872083 13.33863512366114, 40.65638499447301 13.567402887226612, 40.22987223676799 14.007812326905684 M40.22987223676799 14.007812326905684 C40.03345694551566 14.186191497557223, 39.83704165426333 14.364570668208762, 39.30451620850189 14.848196188198111 M40.22987223676799 14.007812326905684 C39.93116833845453 14.279087304081902, 39.63246444014108 14.550362281258119, 39.30451620850189 14.848196188198111 M39.30451620850189 14.848196188198111 C39.1076978840576 15.005153564386852, 38.91087955961331 15.162110940575594, 38.32721784457871 15.627565626425152 M39.30451620850189 14.848196188198111 C38.98004999251104 15.106949361042181, 38.655583776520196 15.365702533886251, 38.32721784457871 15.627565626425152 M38.32721784457871 15.627565626425152 C38.05107848114772 15.820188492474234, 37.77493911771673 16.012811358523315, 37.30199307360571 16.34271804539089 M38.32721784457871 15.627565626425152 C38.003456124987274 15.853407786593191, 37.67969440539583 16.07924994676123, 37.30199307360571 16.34271804539089 M37.30199307360571 16.34271804539089 C36.881090796914 16.59787147901773, 36.4601885202223 16.85302491264457, 36.23305476407678 16.990714730406093 M37.30199307360571 16.34271804539089 C36.90393946586793 16.58402048162418, 36.50588585813014 16.82532291785747, 36.23305476407678 16.990714730406093 M36.23305476407678 16.990714730406093 C35.805746451869055 17.213641203180828, 35.378438139661334 17.436567675955562, 35.12479541279239 17.56889292409717 M36.23305476407678 16.990714730406093 C35.98367587675692 17.120815536186065, 35.73429698943706 17.250916341966036, 35.12479541279239 17.56889292409717 M35.12479541279239 17.56889292409717 C34.82188959968176 17.70298034217955, 34.518983786571134 17.837067760261927, 33.981769095147804 18.07487676824742 M35.12479541279239 17.56889292409717 C34.75494897619987 17.73261297047194, 34.38510253960735 17.89633301684671, 33.981769095147804 18.07487676824742 M33.981769095147804 18.07487676824742 C33.629065144732586 18.2046750823598, 33.276361194317374 18.334473396472173, 32.80867275146062 18.506587066708033 M33.981769095147804 18.07487676824742 C33.59644003982806 18.21668142254783, 33.21111098450831 18.358486076848237, 32.80867275146062 18.506587066708033 M32.80867275146062 18.506587066708033 C32.3578177926404 18.6403984518999, 31.90696283382018 18.774209837091774, 31.610326886235413 18.86224982926107 M32.80867275146062 18.506587066708033 C32.456968215429015 18.610971126867433, 32.1052636793974 18.71535518702683, 31.610326886235413 18.86224982926107 M31.610326886235413 18.86224982926107 C31.327563198168836 18.92678879585676, 31.04479951010226 18.991327762452446, 30.391655759676766 19.140403561325773 M31.610326886235413 18.86224982926107 C31.212938887096655 18.95295104686545, 30.815550887957897 19.04365226446983, 30.391655759676766 19.140403561325773 M30.391655759676766 19.140403561325773 C29.947781667228398 19.21216568229783, 29.503907574780026 19.283927803269883, 29.15766715284788 19.3399052695533 M30.391655759676766 19.140403561325773 C29.922426504558597 19.216264908366057, 29.453197249440425 19.292126255406345, 29.15766715284788 19.3399052695533 M29.15766715284788 19.3399052695533 C28.82974917151559 19.37153912283335, 28.501831190183307 19.403172976113407, 27.9134317896239 19.45993515863156 M29.15766715284788 19.3399052695533 C28.807984632784535 19.37363872170905, 28.458302112721192 19.4073721738648, 27.9134317896239 19.45993515863156 M27.9134317896239 19.45993515863156 C27.488879226514555 19.473549732989042, 27.064326663405215 19.487164307346525, 26.664062500000004 19.5 M27.9134317896239 19.45993515863156 C27.647744829907086 19.468455222301383, 27.382057870190273 19.476975285971207, 26.664062500000004 19.5 M26.664062500000004 19.5 C26.664062500000004 19.5, 26.664062500000004 19.5, 26.6640625 19.5 M26.664062500000004 19.5 C26.664062500000004 19.5, 26.664062500000004 19.5, 26.6640625 19.5 M26.6640625 19.5 C5.354942724661061 19.5, -15.954177050677878 19.5, -26.664062499999996 19.5 M26.6640625 19.5 C12.358425356071708 19.5, -1.9472117878565847 19.5, -26.664062499999996 19.5 M-26.664062499999996 19.5 C-27.135776526026003 19.484873049321, -27.607490552052013 19.469746098641995, -27.913431789623893 19.45993515863156 M-26.664062499999996 19.5 C-27.065288481172853 19.48713346372278, -27.46651446234571 19.474266927445566, -27.913431789623893 19.45993515863156 M-27.913431789623893 19.45993515863156 C-28.186552745973017 19.433587508448568, -28.459673702322142 19.407239858265573, -29.15766715284787 19.3399052695533 M-27.913431789623893 19.45993515863156 C-28.305748579897106 19.422088829703874, -28.69806537017032 19.38424250077619, -29.15766715284787 19.3399052695533 M-29.15766715284787 19.3399052695533 C-29.56649979019201 19.273808379291953, -29.97533242753615 19.207711489030608, -30.39165575967676 19.140403561325773 M-29.15766715284787 19.3399052695533 C-29.56056704281143 19.274767539879303, -29.96346693277499 19.209629810205303, -30.39165575967676 19.140403561325773 M-30.39165575967676 19.140403561325773 C-30.718450448950968 19.06581480603358, -31.045245138225173 18.991226050741385, -31.610326886235388 18.862249829261074 M-30.39165575967676 19.140403561325773 C-30.693511522245743 19.07150695331234, -30.995367284814726 19.00261034529891, -31.610326886235388 18.862249829261074 M-31.610326886235388 18.862249829261074 C-31.871076970707588 18.78486057289485, -32.131827055179784 18.707471316528625, -32.80867275146059 18.506587066708043 M-31.610326886235388 18.862249829261074 C-31.85773576707423 18.788820172103822, -32.10514464791308 18.71539051494657, -32.80867275146059 18.506587066708043 M-32.80867275146059 18.506587066708043 C-33.19411157384595 18.364742017112814, -33.57955039623131 18.222896967517585, -33.9817690951478 18.074876768247425 M-32.80867275146059 18.506587066708043 C-33.216087345606084 18.356654729963278, -33.62350193975158 18.206722393218513, -33.9817690951478 18.074876768247425 M-33.9817690951478 18.074876768247425 C-34.39037310858832 17.893999892304713, -34.79897712202884 17.713123016361997, -35.12479541279238 17.568892924097174 M-33.9817690951478 18.074876768247425 C-34.336479631209315 17.91785693604719, -34.69119016727083 17.76083710384696, -35.12479541279238 17.568892924097174 M-35.12479541279238 17.568892924097174 C-35.39229262026371 17.429339802299523, -35.65978982773503 17.28978668050187, -36.23305476407678 16.990714730406097 M-35.12479541279238 17.568892924097174 C-35.55149063306354 17.346286300993043, -35.97818585333469 17.123679677888916, -36.23305476407678 16.990714730406097 M-36.23305476407678 16.990714730406097 C-36.52109913101971 16.8161005424287, -36.809143497962644 16.641486354451306, -37.301993073605686 16.3427180453909 M-36.23305476407678 16.990714730406097 C-36.64399727944337 16.741598962624593, -37.05493979480996 16.49248319484309, -37.301993073605686 16.3427180453909 M-37.301993073605686 16.3427180453909 C-37.663101867993944 16.090824182573414, -38.0242106623822 15.83893031975593, -38.32721784457871 15.627565626425156 M-37.301993073605686 16.3427180453909 C-37.60457866564462 16.131647435103705, -37.907164257683554 15.920576824816514, -38.32721784457871 15.627565626425156 M-38.32721784457871 15.627565626425156 C-38.62518904809299 15.389941520969254, -38.92316025160727 15.152317415513352, -39.304516208501866 14.848196188198125 M-38.32721784457871 15.627565626425156 C-38.71632211901489 15.317265322061909, -39.10542639345106 15.00696501769866, -39.304516208501866 14.848196188198125 M-39.304516208501866 14.848196188198125 C-39.545983108057314 14.628902338885933, -39.78745000761276 14.40960848957374, -40.229872236767974 14.007812326905697 M-39.304516208501866 14.848196188198125 C-39.53875384185945 14.635467767170926, -39.77299147521704 14.422739346143725, -40.229872236767974 14.007812326905697 M-40.229872236767974 14.007812326905697 C-40.425117457977706 13.806205606075876, -40.62036267918743 13.604598885246054, -41.099483442968655 13.109867360095677 M-40.229872236767974 14.007812326905697 C-40.56309537527084 13.663732078273023, -40.896318513773714 13.31965182964035, -41.099483442968655 13.109867360095677 M-41.099483442968655 13.109867360095677 C-41.42078079761164 12.73245320499463, -41.74207815225462 12.355039049893582, -41.909776408126575 12.158051136245307 M-41.099483442968655 13.109867360095677 C-41.265037740654 12.915397861728065, -41.43059203833935 12.720928363360452, -41.909776408126575 12.158051136245307 M-41.909776408126575 12.158051136245307 C-42.09574840564973 11.908865601961793, -42.28172040317288 11.659680067678277, -42.657421464640635 11.156274872382316 M-41.909776408126575 12.158051136245307 C-42.19085786307414 11.781427593662903, -42.47193931802171 11.404804051080497, -42.657421464640635 11.156274872382316 M-42.657421464640635 11.156274872382316 C-42.89510344333185 10.791131526564774, -43.13278542202306 10.42598818074723, -43.33934637860425 10.108655082055249 M-42.657421464640635 11.156274872382316 C-42.89713270821019 10.78801403077773, -43.13684395177974 10.419753189173143, -43.33934637860425 10.108655082055249 M-43.33934637860425 10.108655082055249 C-43.52799396622917 9.773692187587539, -43.71664155385409 9.43872929311983, -43.952748974273504 9.019496659696289 M-43.33934637860425 10.108655082055249 C-43.53451898439233 9.762106357109111, -43.72969159018041 9.415557632162974, -43.952748974273504 9.019496659696289 M-43.952748974273504 9.019496659696289 C-44.1524156832805 8.604884466260074, -44.3520823922875 8.19027227282386, -44.49510864880834 7.893275190886686 M-43.952748974273504 9.019496659696289 C-44.07368986895831 8.76836030416269, -44.19463076364311 8.51722394862909, -44.49510864880834 7.893275190886686 M-44.49510864880834 7.893275190886686 C-44.60162999516088 7.6301654059457995, -44.70815134151341 7.367055621004912, -44.964196729970325 6.73461856121551 M-44.49510864880834 7.893275190886686 C-44.671611674126275 7.4573093058975415, -44.84811469944421 7.021343420908397, -44.964196729970325 6.73461856121551 M-44.964196729970325 6.73461856121551 C-45.072295768624876 6.409041480030851, -45.18039480727943 6.083464398846191, -45.35808563421488 5.5482879393051325 M-44.964196729970325 6.73461856121551 C-45.049854380025074 6.4766313669437405, -45.13551203007983 6.218644172671972, -45.35808563421488 5.5482879393051325 M-45.35808563421488 5.5482879393051325 C-45.45513914424792 5.178180842291815, -45.552192654280965 4.808073745278499, -45.67515678754556 4.339158212148136 M-45.35808563421488 5.5482879393051325 C-45.452856289638916 5.186886356311418, -45.547626945062945 4.825484773317704, -45.67515678754556 4.339158212148136 M-45.67515678754556 4.339158212148136 C-45.75482161817875 3.930096144014607, -45.834486448811944 3.5210340758810785, -45.914107276581774 3.112197953150904 M-45.67515678754556 4.339158212148136 C-45.7550108872617 3.9291242872757346, -45.83486498697783 3.5190903624033334, -45.914107276581774 3.112197953150904 M-45.914107276581774 3.112197953150904 C-45.97307997070712 2.6548173829903705, -46.03205266483247 2.1974368128298365, -46.07395520250937 1.872449005199809 M-45.914107276581774 3.112197953150904 C-45.95719563550197 2.7780131501247407, -46.00028399442217 2.443828347098577, -46.07395520250937 1.872449005199809 M-46.07395520250937 1.872449005199809 C-46.10264734601518 1.4255457102153228, -46.131339489521004 0.9786424152308365, -46.15404371591342 0.6250057626472781 M-46.07395520250937 1.872449005199809 C-46.103780188881785 1.4079007681536786, -46.13360517525421 0.9433525311075482, -46.15404371591342 0.6250057626472781 M-46.15404371591342 0.6250057626472781 C-46.15404371591342 0.3588593215361907, -46.15404371591342 0.09271288042510328, -46.15404371591342 -0.6250057626472687 M-46.15404371591342 0.6250057626472781 C-46.15404371591342 0.18402278481780426, -46.15404371591342 -0.2569601930116696, -46.15404371591342 -0.6250057626472687 M-46.15404371591342 -0.6250057626472687 C-46.136098629599 -0.9045149670072744, -46.118153543284585 -1.18402417136728, -46.07395520250937 -1.8724490051997822 M-46.15404371591342 -0.6250057626472687 C-46.125651754565105 -1.067233478225883, -46.0972597932168 -1.5094611938044973, -46.07395520250937 -1.8724490051997822 M-46.07395520250937 -1.8724490051997822 C-46.03017470173898 -2.2120019237371786, -45.98639420096859 -2.551554842274575, -45.914107276581774 -3.112197953150895 M-46.07395520250937 -1.8724490051997822 C-46.03945977387338 -2.139988737807611, -46.0049643452374 -2.407528470415439, -45.914107276581774 -3.112197953150895 M-45.914107276581774 -3.112197953150895 C-45.86288309384832 -3.375223305252348, -45.81165891111486 -3.6382486573538007, -45.67515678754556 -4.339158212148126 M-45.914107276581774 -3.112197953150895 C-45.86293874325886 -3.3749375572907225, -45.81177020993594 -3.63767716143055, -45.67515678754556 -4.339158212148126 M-45.67515678754556 -4.339158212148126 C-45.60166275251384 -4.619422820240358, -45.52816871748212 -4.899687428332591, -45.35808563421489 -5.548287939305123 M-45.67515678754556 -4.339158212148126 C-45.55692688853848 -4.79002005822451, -45.438696989531394 -5.240881904300894, -45.35808563421489 -5.548287939305123 M-45.35808563421489 -5.548287939305123 C-45.22466113059978 -5.950141285886126, -45.09123662698466 -6.351994632467129, -44.96419672997033 -6.734618561215485 M-45.35808563421489 -5.548287939305123 C-45.21680653981878 -5.973798061859387, -45.07552744542267 -6.399308184413653, -44.96419672997033 -6.734618561215485 M-44.96419672997033 -6.734618561215485 C-44.80198495613598 -7.1352847787376295, -44.63977318230163 -7.535950996259773, -44.49510864880834 -7.893275190886676 M-44.96419672997033 -6.734618561215485 C-44.789549817497374 -7.165999811592031, -44.61490290502442 -7.597381061968577, -44.49510864880834 -7.893275190886676 M-44.49510864880834 -7.893275190886676 C-44.33687035050125 -8.22186040307855, -44.17863205219416 -8.550445615270425, -43.952748974273504 -9.019496659696282 M-44.49510864880834 -7.893275190886676 C-44.33787173988509 -8.219780996596706, -44.180634830961836 -8.546286802306733, -43.952748974273504 -9.019496659696282 M-43.952748974273504 -9.019496659696282 C-43.71953037218902 -9.433599903641564, -43.48631177010454 -9.847703147586847, -43.33934637860425 -10.108655082055243 M-43.952748974273504 -9.019496659696282 C-43.76630809070989 -9.350541327650133, -43.57986720714627 -9.681585995603982, -43.33934637860425 -10.108655082055243 M-43.33934637860425 -10.108655082055243 C-43.14643780292767 -10.405014457500165, -42.953529227251096 -10.70137383294509, -42.65742146464064 -11.156274872382308 M-43.33934637860425 -10.108655082055243 C-43.14660218808753 -10.40476191775103, -42.953857997570815 -10.700868753446814, -42.65742146464064 -11.156274872382308 M-42.65742146464064 -11.156274872382308 C-42.455268767399225 -11.427141070196228, -42.25311607015781 -11.698007268010148, -41.90977640812659 -12.158051136245302 M-42.65742146464064 -11.156274872382308 C-42.412571885659105 -11.484351001962043, -42.16772230667757 -11.812427131541776, -41.90977640812659 -12.158051136245302 M-41.90977640812659 -12.158051136245302 C-41.63323166535331 -12.482896326948442, -41.35668692258002 -12.807741517651582, -41.09948344296866 -13.10986736009567 M-41.90977640812659 -12.158051136245302 C-41.644236881735495 -12.469968973571369, -41.3786973553444 -12.781886810897436, -41.09948344296866 -13.10986736009567 M-41.09948344296866 -13.10986736009567 C-40.84308272121951 -13.374622156192421, -40.58668199947035 -13.639376952289172, -40.229872236767996 -14.007812326905677 M-41.09948344296866 -13.10986736009567 C-40.85018097820572 -13.36729262307642, -40.60087851344278 -13.62471788605717, -40.229872236767996 -14.007812326905677 M-40.229872236767996 -14.007812326905677 C-39.91894898104263 -14.290184601176906, -39.608025725317276 -14.572556875448136, -39.30451620850189 -14.848196188198107 M-40.229872236767996 -14.007812326905677 C-39.89064466381016 -14.315889833196247, -39.55141709085232 -14.623967339486816, -39.30451620850189 -14.848196188198107 M-39.30451620850189 -14.848196188198107 C-38.96069184978171 -15.122386964727008, -38.616867491061534 -15.396577741255907, -38.32721784457872 -15.627565626425149 M-39.30451620850189 -14.848196188198107 C-39.05189692154724 -15.04965334706289, -38.799277634592585 -15.251110505927674, -38.32721784457872 -15.627565626425149 M-38.32721784457872 -15.627565626425149 C-37.97895276296544 -15.870500271206174, -37.630687681352164 -16.1134349159872, -37.301993073605715 -16.342718045390885 M-38.32721784457872 -15.627565626425149 C-38.03669111655563 -15.830224495194702, -37.74616438853254 -16.032883363964256, -37.301993073605715 -16.342718045390885 M-37.301993073605715 -16.342718045390885 C-36.93042296614895 -16.5679660281195, -36.558852858692184 -16.793214010848118, -36.23305476407679 -16.99071473040609 M-37.301993073605715 -16.342718045390885 C-37.086574710320455 -16.47330592315323, -36.87115634703519 -16.603893800915575, -36.23305476407679 -16.99071473040609 M-36.23305476407679 -16.99071473040609 C-36.00496296111233 -17.10971007791288, -35.77687115814786 -17.22870542541967, -35.12479541279239 -17.56889292409717 M-36.23305476407679 -16.99071473040609 C-35.90081882951729 -17.16404200465851, -35.56858289495779 -17.337369278910927, -35.12479541279239 -17.56889292409717 M-35.12479541279239 -17.56889292409717 C-34.67422353687817 -17.76834772782458, -34.22365166096396 -17.96780253155199, -33.981769095147804 -18.07487676824742 M-35.12479541279239 -17.56889292409717 C-34.81915459664561 -17.70419104689267, -34.51351378049883 -17.83948916968817, -33.981769095147804 -18.07487676824742 M-33.981769095147804 -18.07487676824742 C-33.534256803626555 -18.239565428285516, -33.086744512105305 -18.40425408832361, -32.80867275146062 -18.506587066708033 M-33.981769095147804 -18.07487676824742 C-33.7419222864222 -18.16314261097804, -33.5020754776966 -18.251408453708656, -32.80867275146062 -18.506587066708033 M-32.80867275146062 -18.506587066708033 C-32.403692921074956 -18.626782954583987, -31.998713090689293 -18.746978842459946, -31.610326886235413 -18.862249829261067 M-32.80867275146062 -18.506587066708033 C-32.518281778054806 -18.592773583321552, -32.22789080464899 -18.678960099935075, -31.610326886235413 -18.862249829261067 M-31.610326886235413 -18.862249829261067 C-31.26913378379918 -18.94012492839907, -30.927940681362948 -19.01800002753707, -30.391655759676766 -19.140403561325773 M-31.610326886235413 -18.862249829261067 C-31.152242924980705 -18.966804504140246, -30.694158963725993 -19.071359179019424, -30.391655759676766 -19.140403561325773 M-30.391655759676766 -19.140403561325773 C-30.121250385803535 -19.184120605148603, -29.850845011930303 -19.227837648971434, -29.157667152847882 -19.3399052695533 M-30.391655759676766 -19.140403561325773 C-29.9580081536031 -19.210512343288354, -29.52436054752943 -19.28062112525093, -29.157667152847882 -19.3399052695533 M-29.157667152847882 -19.3399052695533 C-28.703711038152505 -19.383697869975858, -28.249754923457125 -19.427490470398414, -27.913431789623903 -19.45993515863156 M-29.157667152847882 -19.3399052695533 C-28.88016259772907 -19.366675800237555, -28.602658042610255 -19.393446330921808, -27.913431789623903 -19.45993515863156 M-27.913431789623903 -19.45993515863156 C-27.538438484688502 -19.47196046404065, -27.1634451797531 -19.48398576944974, -26.664062500000007 -19.5 M-27.913431789623903 -19.45993515863156 C-27.477668694792538 -19.473909232921393, -27.041905599961172 -19.487883307211224, -26.664062500000007 -19.5 M-26.664062500000007 -19.5 C-26.664062500000004 -19.5, -26.664062500000004 -19.5, -26.6640625 -19.5 M-26.664062500000007 -19.5 C-26.664062500000004 -19.5, -26.664062500000004 -19.5, -26.6640625 -19.5" stroke="#9370DB" stroke-width="1.3" fill="none" stroke-dasharray="0 0" style=""/></g><g class="label" style="" transform="translate(-33.7890625, -12)"><rect/><foreignObject width="67.578125" height="24"><div xmlns="http://www.w3.org/1999/xhtml" style="display: table-cell; white-space: nowrap; line-height: 1.5; max-width: 200px; text-align: center;"><span class="nodeLabel"><p>Alert fires</p></span></div></foreignObject></g></g><g class="node default" id="t-incident-response-dfir--alert-triage-escalate-tune-hunt-flowchart-T-1" data-look="classic" transform="translate(348.5, 212.0390625)"><polygon points="115.0390625,0 230.078125,-115.0390625 115.0390625,-230.078125 0,-115.0390625" class="label-container" transform="translate(-114.5390625, 115.0390625)"/><g class="label" style="" transform="translate(-76.0390625, -24)"><rect/><foreignObject width="152.078125" height="48"><div xmlns="http://www.w3.org/1999/xhtml" style="display: table-cell; white-space: nowrap; line-height: 1.5; max-width: 200px; text-align: center;"><span class="nodeLabel"><p>Triage:<br />true or false positive?</p></span></div></foreignObject></g></g><g class="node default" id="t-incident-response-dfir--alert-triage-escalate-tune-hunt-flowchart-TUNE-3" data-look="classic" transform="translate(138, 464.078125)"><rect class="basic label-container" style="" x="-130" y="-63" width="260" height="126"/><g class="label" style="" transform="translate(-100, -48)"><rect/><foreignObject width="200" height="96"><div xmlns="http://www.w3.org/1999/xhtml" style="display: table; white-space: break-spaces; line-height: 1.5; max-width: 200px; text-align: center; width: 200px;"><span class="nodeLabel"><p>Tune the rule:<br />allow-list the benign source,<br />adjust thresholds — do NOT mute/delete</p></span></div></foreignObject></g></g><g class="node default" id="t-incident-response-dfir--alert-triage-escalate-tune-hunt-flowchart-SEV-5" data-look="classic" transform="translate(453.75, 653.875)"><polygon points="76.796875,0 153.59375,-76.796875 76.796875,-153.59375 0,-76.796875" class="label-container" transform="translate(-76.296875, 76.796875)"/><g class="label" style="" transform="translate(-37.796875, -24)"><rect/><foreignObject width="75.59375" height="48"><div xmlns="http://www.w3.org/1999/xhtml" style="display: table-cell; white-space: nowrap; line-height: 1.5; max-width: 200px; text-align: center;"><span class="nodeLabel"><p>Confirmed<br />malicious?</p></span></div></foreignObject></g></g><g class="node default" id="t-incident-response-dfir--alert-triage-escalate-tune-hunt-flowchart-ENRICH-7" data-look="classic" transform="translate(559, 464.078125)"><rect class="basic label-container" style="" x="-130" y="-63" width="260" height="126"/><g class="label" style="" transform="translate(-100, -48)"><rect/><foreignObject width="200" height="96"><div xmlns="http://www.w3.org/1999/xhtml" style="display: table; white-space: break-spaces; line-height: 1.5; max-width: 200px; text-align: center; width: 200px;"><span class="nodeLabel"><p>Enrich: pivot on host/user/time,<br />check ATT&amp;CK technique context</p></span></div></foreignObject></g></g><g class="node default" id="t-incident-response-dfir--alert-triage-escalate-tune-hunt-flowchart-INC-11" data-look="classic" transform="translate(161.62109375, 1155.34375)"><rect class="basic label-container" style="" x="-130" y="-51" width="260" height="102"/><g class="label" style="" transform="translate(-100, -36)"><rect/><foreignObject width="200" height="72"><div xmlns="http://www.w3.org/1999/xhtml" style="display: table; white-space: break-spaces; line-height: 1.5; max-width: 200px; text-align: center; width: 200px;"><span class="nodeLabel"><p>Open incident -&gt; triage &amp; classify,<br />preserve evidence</p></span></div></foreignObject></g></g><g class="node default" id="t-incident-response-dfir--alert-triage-escalate-tune-hunt-flowchart-HUNT-13" data-look="classic" transform="translate(608.75, 917.5078125)"><polygon points="112.8359375,0 225.671875,-112.8359375 112.8359375,-225.671875 0,-112.8359375" class="label-container" transform="translate(-112.3359375, 112.8359375)"/><g class="label" style="" transform="translate(-73.8359375, -24)"><rect/><foreignObject width="147.671875" height="48"><div xmlns="http://www.w3.org/1999/xhtml" style="display: table-cell; white-space: nowrap; line-height: 1.5; max-width: 200px; text-align: center;"><span class="nodeLabel"><p>Repeatable behavior<br />worth alerting?</p></span></div></foreignObject></g></g><g class="node default" id="t-incident-response-dfir--alert-triage-escalate-tune-hunt-flowchart-DET-15" data-look="classic" transform="translate(471.62109375, 1155.34375)"><rect class="basic label-container" style="" x="-130" y="-51" width="260" height="102"/><g class="label" style="" transform="translate(-100, -36)"><rect/><foreignObject width="200" height="72"><div xmlns="http://www.w3.org/1999/xhtml" style="display: table; white-space: break-spaces; line-height: 1.5; max-width: 200px; text-align: center; width: 200px;"><span class="nodeLabel"><p>Engineer a detection<br />Sigma + ATT&amp;CK map + tuning plan</p></span></div></foreignObject></g></g><g class="node default" id="t-incident-response-dfir--alert-triage-escalate-tune-hunt-flowchart-DOC-17" data-look="classic" transform="translate(745.87890625, 1155.34375)"><rect class="basic label-container" style="" x="-94.2578125" y="-27" width="188.515625" height="54"/><g class="label" style="" transform="translate(-64.2578125, -12)"><rect/><foreignObject width="128.515625" height="24"><div xmlns="http://www.w3.org/1999/xhtml" style="display: table-cell; white-space: nowrap; line-height: 1.5; max-width: 200px; text-align: center;"><span class="nodeLabel"><p>Document + close</p></span></div></foreignObject></g></g><g class="node default" id="t-incident-response-dfir--alert-triage-escalate-tune-hunt-flowchart-GAP-19" data-look="classic" transform="translate(316.62109375, 1345.6015625)"><polygon points="89.2578125,0 178.515625,-89.2578125 89.2578125,-178.515625 0,-89.2578125" class="label-container" transform="translate(-88.7578125, 89.2578125)"/><g class="label" style="" transform="translate(-50.2578125, -24)"><rect/><foreignObject width="100.515625" height="48"><div xmlns="http://www.w3.org/1999/xhtml" style="display: table-cell; white-space: nowrap; line-height: 1.5; max-width: 200px; text-align: center;"><span class="nodeLabel"><p>Coverage gap<br />exposed?</p></span></div></foreignObject></g></g><g class="node default" id="t-incident-response-dfir--alert-triage-escalate-tune-hunt-flowchart-PROHUNT-23" data-look="classic" transform="translate(316.62109375, 1583.859375)"><rect class="basic label-container" style="" x="-130" y="-75" width="260" height="150"/><g class="label" style="" transform="translate(-100, -60)"><rect/><foreignObject width="200" height="120"><div xmlns="http://www.w3.org/1999/xhtml" style="display: table; white-space: break-spaces; line-height: 1.5; max-width: 200px; text-align: center; width: 200px;"><span class="nodeLabel"><p>Proactive hunt:<br />hypothesis + data sources + queries,<br />hunt TTPs up the pyramid of pain</p></span></div></foreignObject></g></g></g></g></g><defs><filter id="t-incident-response-dfir--alert-triage-escalate-tune-hunt-drop-shadow" height="130%" width="130%"><feDropShadow dx="4" dy="4" stdDeviation="0" flood-opacity="0.06" flood-color="#000000"/></filter></defs><defs><filter id="t-incident-response-dfir--alert-triage-escalate-tune-hunt-drop-shadow-small" height="150%" width="150%"><feDropShadow dx="2" dy="2" stdDeviation="0" flood-opacity="0.06" flood-color="#000000"/></filter></defs></svg>